<?xml version="1.0" encoding="utf-8" standalone="no"?>
<!DOCTYPE svg PUBLIC "-//W3C//DTD SVG 1.1//EN"
  "http://www.w3.org/Graphics/SVG/1.1/DTD/svg11.dtd">
<svg xmlns:xlink="http://www.w3.org/1999/xlink" width="460.8pt" height="345.6pt" viewBox="0 0 460.8 345.6" xmlns="http://www.w3.org/2000/svg" version="1.1">
 <metadata>
  <rdf:RDF xmlns:dc="http://purl.org/dc/elements/1.1/" xmlns:cc="http://creativecommons.org/ns#" xmlns:rdf="http://www.w3.org/1999/02/22-rdf-syntax-ns#">
   <cc:Work>
    <dc:type rdf:resource="http://purl.org/dc/dcmitype/StillImage"/>
    <dc:date>2022-07-20T16:50:01.887381</dc:date>
    <dc:format>image/svg+xml</dc:format>
    <dc:creator>
     <cc:Agent>
      <dc:title>Matplotlib v3.5.1, https://matplotlib.org/</dc:title>
     </cc:Agent>
    </dc:creator>
   </cc:Work>
  </rdf:RDF>
 </metadata>
 <defs>
  <style type="text/css">*{stroke-linejoin: round; stroke-linecap: butt}</style>
 </defs>
 <g id="figure_1">
  <g id="patch_1">
   <path d="M 0 345.6 
L 460.8 345.6 
L 460.8 0 
L 0 0 
z
" style="fill: #ffffff"/>
  </g>
  <g id="axes_1">
   <g id="patch_2">
    <path d="M 47.72 303.64 
L 450 303.64 
L 450 26.88 
L 47.72 26.88 
z
" style="fill: #ffffff"/>
   </g>
   <g id="matplotlib.axis_1">
    <g id="xtick_1">
     <g id="line2d_1">
      <defs>
       <path id="m4481fbe696" d="M 0 0 
L 0 3.5 
" style="stroke: #000000; stroke-width: 0.8"/>
      </defs>
      <g>
       <use xlink:href="#m4481fbe696" x="66.005455" y="303.64" style="stroke: #000000; stroke-width: 0.8"/>
      </g>
     </g>
     <g id="text_1">
      <!-- 0 -->
      <g transform="translate(62.824205 318.238437)scale(0.1 -0.1)">
       <defs>
        <path id="DejaVuSans-30" d="M 2034 4250 
Q 1547 4250 1301 3770 
Q 1056 3291 1056 2328 
Q 1056 1369 1301 889 
Q 1547 409 2034 409 
Q 2525 409 2770 889 
Q 3016 1369 3016 2328 
Q 3016 3291 2770 3770 
Q 2525 4250 2034 4250 
z
M 2034 4750 
Q 2819 4750 3233 4129 
Q 3647 3509 3647 2328 
Q 3647 1150 3233 529 
Q 2819 -91 2034 -91 
Q 1250 -91 836 529 
Q 422 1150 422 2328 
Q 422 3509 836 4129 
Q 1250 4750 2034 4750 
z
" transform="scale(0.015625)"/>
       </defs>
       <use xlink:href="#DejaVuSans-30"/>
      </g>
     </g>
    </g>
    <g id="xtick_2">
     <g id="line2d_2">
      <g>
       <use xlink:href="#m4481fbe696" x="127.160821" y="303.64" style="stroke: #000000; stroke-width: 0.8"/>
      </g>
     </g>
     <g id="text_2">
      <!-- 50 -->
      <g transform="translate(120.798321 318.238437)scale(0.1 -0.1)">
       <defs>
        <path id="DejaVuSans-35" d="M 691 4666 
L 3169 4666 
L 3169 4134 
L 1269 4134 
L 1269 2991 
Q 1406 3038 1543 3061 
Q 1681 3084 1819 3084 
Q 2600 3084 3056 2656 
Q 3513 2228 3513 1497 
Q 3513 744 3044 326 
Q 2575 -91 1722 -91 
Q 1428 -91 1123 -41 
Q 819 9 494 109 
L 494 744 
Q 775 591 1075 516 
Q 1375 441 1709 441 
Q 2250 441 2565 725 
Q 2881 1009 2881 1497 
Q 2881 1984 2565 2268 
Q 2250 2553 1709 2553 
Q 1456 2553 1204 2497 
Q 953 2441 691 2322 
L 691 4666 
z
" transform="scale(0.015625)"/>
       </defs>
       <use xlink:href="#DejaVuSans-35"/>
       <use xlink:href="#DejaVuSans-30" x="63.623047"/>
      </g>
     </g>
    </g>
    <g id="xtick_3">
     <g id="line2d_3">
      <g>
       <use xlink:href="#m4481fbe696" x="188.316187" y="303.64" style="stroke: #000000; stroke-width: 0.8"/>
      </g>
     </g>
     <g id="text_3">
      <!-- 100 -->
      <g transform="translate(178.772437 318.238437)scale(0.1 -0.1)">
       <defs>
        <path id="DejaVuSans-31" d="M 794 531 
L 1825 531 
L 1825 4091 
L 703 3866 
L 703 4441 
L 1819 4666 
L 2450 4666 
L 2450 531 
L 3481 531 
L 3481 0 
L 794 0 
L 794 531 
z
" transform="scale(0.015625)"/>
       </defs>
       <use xlink:href="#DejaVuSans-31"/>
       <use xlink:href="#DejaVuSans-30" x="63.623047"/>
       <use xlink:href="#DejaVuSans-30" x="127.246094"/>
      </g>
     </g>
    </g>
    <g id="xtick_4">
     <g id="line2d_4">
      <g>
       <use xlink:href="#m4481fbe696" x="249.471554" y="303.64" style="stroke: #000000; stroke-width: 0.8"/>
      </g>
     </g>
     <g id="text_4">
      <!-- 150 -->
      <g transform="translate(239.927804 318.238437)scale(0.1 -0.1)">
       <use xlink:href="#DejaVuSans-31"/>
       <use xlink:href="#DejaVuSans-35" x="63.623047"/>
       <use xlink:href="#DejaVuSans-30" x="127.246094"/>
      </g>
     </g>
    </g>
    <g id="xtick_5">
     <g id="line2d_5">
      <g>
       <use xlink:href="#m4481fbe696" x="310.62692" y="303.64" style="stroke: #000000; stroke-width: 0.8"/>
      </g>
     </g>
     <g id="text_5">
      <!-- 200 -->
      <g transform="translate(301.08317 318.238437)scale(0.1 -0.1)">
       <defs>
        <path id="DejaVuSans-32" d="M 1228 531 
L 3431 531 
L 3431 0 
L 469 0 
L 469 531 
Q 828 903 1448 1529 
Q 2069 2156 2228 2338 
Q 2531 2678 2651 2914 
Q 2772 3150 2772 3378 
Q 2772 3750 2511 3984 
Q 2250 4219 1831 4219 
Q 1534 4219 1204 4116 
Q 875 4013 500 3803 
L 500 4441 
Q 881 4594 1212 4672 
Q 1544 4750 1819 4750 
Q 2544 4750 2975 4387 
Q 3406 4025 3406 3419 
Q 3406 3131 3298 2873 
Q 3191 2616 2906 2266 
Q 2828 2175 2409 1742 
Q 1991 1309 1228 531 
z
" transform="scale(0.015625)"/>
       </defs>
       <use xlink:href="#DejaVuSans-32"/>
       <use xlink:href="#DejaVuSans-30" x="63.623047"/>
       <use xlink:href="#DejaVuSans-30" x="127.246094"/>
      </g>
     </g>
    </g>
    <g id="xtick_6">
     <g id="line2d_6">
      <g>
       <use xlink:href="#m4481fbe696" x="371.782286" y="303.64" style="stroke: #000000; stroke-width: 0.8"/>
      </g>
     </g>
     <g id="text_6">
      <!-- 250 -->
      <g transform="translate(362.238536 318.238437)scale(0.1 -0.1)">
       <use xlink:href="#DejaVuSans-32"/>
       <use xlink:href="#DejaVuSans-35" x="63.623047"/>
       <use xlink:href="#DejaVuSans-30" x="127.246094"/>
      </g>
     </g>
    </g>
    <g id="xtick_7">
     <g id="line2d_7">
      <g>
       <use xlink:href="#m4481fbe696" x="432.937653" y="303.64" style="stroke: #000000; stroke-width: 0.8"/>
      </g>
     </g>
     <g id="text_7">
      <!-- 300 -->
      <g transform="translate(423.393903 318.238437)scale(0.1 -0.1)">
       <defs>
        <path id="DejaVuSans-33" d="M 2597 2516 
Q 3050 2419 3304 2112 
Q 3559 1806 3559 1356 
Q 3559 666 3084 287 
Q 2609 -91 1734 -91 
Q 1441 -91 1130 -33 
Q 819 25 488 141 
L 488 750 
Q 750 597 1062 519 
Q 1375 441 1716 441 
Q 2309 441 2620 675 
Q 2931 909 2931 1356 
Q 2931 1769 2642 2001 
Q 2353 2234 1838 2234 
L 1294 2234 
L 1294 2753 
L 1863 2753 
Q 2328 2753 2575 2939 
Q 2822 3125 2822 3475 
Q 2822 3834 2567 4026 
Q 2313 4219 1838 4219 
Q 1578 4219 1281 4162 
Q 984 4106 628 3988 
L 628 4550 
Q 988 4650 1302 4700 
Q 1616 4750 1894 4750 
Q 2613 4750 3031 4423 
Q 3450 4097 3450 3541 
Q 3450 3153 3228 2886 
Q 3006 2619 2597 2516 
z
" transform="scale(0.015625)"/>
       </defs>
       <use xlink:href="#DejaVuSans-33"/>
       <use xlink:href="#DejaVuSans-30" x="63.623047"/>
       <use xlink:href="#DejaVuSans-30" x="127.246094"/>
      </g>
     </g>
    </g>
    <g id="text_8">
     <!-- number of epochs -->
     <g transform="translate(203.515469 331.916562)scale(0.1 -0.1)">
      <defs>
       <path id="DejaVuSans-6e" d="M 3513 2113 
L 3513 0 
L 2938 0 
L 2938 2094 
Q 2938 2591 2744 2837 
Q 2550 3084 2163 3084 
Q 1697 3084 1428 2787 
Q 1159 2491 1159 1978 
L 1159 0 
L 581 0 
L 581 3500 
L 1159 3500 
L 1159 2956 
Q 1366 3272 1645 3428 
Q 1925 3584 2291 3584 
Q 2894 3584 3203 3211 
Q 3513 2838 3513 2113 
z
" transform="scale(0.015625)"/>
       <path id="DejaVuSans-75" d="M 544 1381 
L 544 3500 
L 1119 3500 
L 1119 1403 
Q 1119 906 1312 657 
Q 1506 409 1894 409 
Q 2359 409 2629 706 
Q 2900 1003 2900 1516 
L 2900 3500 
L 3475 3500 
L 3475 0 
L 2900 0 
L 2900 538 
Q 2691 219 2414 64 
Q 2138 -91 1772 -91 
Q 1169 -91 856 284 
Q 544 659 544 1381 
z
M 1991 3584 
L 1991 3584 
z
" transform="scale(0.015625)"/>
       <path id="DejaVuSans-6d" d="M 3328 2828 
Q 3544 3216 3844 3400 
Q 4144 3584 4550 3584 
Q 5097 3584 5394 3201 
Q 5691 2819 5691 2113 
L 5691 0 
L 5113 0 
L 5113 2094 
Q 5113 2597 4934 2840 
Q 4756 3084 4391 3084 
Q 3944 3084 3684 2787 
Q 3425 2491 3425 1978 
L 3425 0 
L 2847 0 
L 2847 2094 
Q 2847 2600 2669 2842 
Q 2491 3084 2119 3084 
Q 1678 3084 1418 2786 
Q 1159 2488 1159 1978 
L 1159 0 
L 581 0 
L 581 3500 
L 1159 3500 
L 1159 2956 
Q 1356 3278 1631 3431 
Q 1906 3584 2284 3584 
Q 2666 3584 2933 3390 
Q 3200 3197 3328 2828 
z
" transform="scale(0.015625)"/>
       <path id="DejaVuSans-62" d="M 3116 1747 
Q 3116 2381 2855 2742 
Q 2594 3103 2138 3103 
Q 1681 3103 1420 2742 
Q 1159 2381 1159 1747 
Q 1159 1113 1420 752 
Q 1681 391 2138 391 
Q 2594 391 2855 752 
Q 3116 1113 3116 1747 
z
M 1159 2969 
Q 1341 3281 1617 3432 
Q 1894 3584 2278 3584 
Q 2916 3584 3314 3078 
Q 3713 2572 3713 1747 
Q 3713 922 3314 415 
Q 2916 -91 2278 -91 
Q 1894 -91 1617 61 
Q 1341 213 1159 525 
L 1159 0 
L 581 0 
L 581 4863 
L 1159 4863 
L 1159 2969 
z
" transform="scale(0.015625)"/>
       <path id="DejaVuSans-65" d="M 3597 1894 
L 3597 1613 
L 953 1613 
Q 991 1019 1311 708 
Q 1631 397 2203 397 
Q 2534 397 2845 478 
Q 3156 559 3463 722 
L 3463 178 
Q 3153 47 2828 -22 
Q 2503 -91 2169 -91 
Q 1331 -91 842 396 
Q 353 884 353 1716 
Q 353 2575 817 3079 
Q 1281 3584 2069 3584 
Q 2775 3584 3186 3129 
Q 3597 2675 3597 1894 
z
M 3022 2063 
Q 3016 2534 2758 2815 
Q 2500 3097 2075 3097 
Q 1594 3097 1305 2825 
Q 1016 2553 972 2059 
L 3022 2063 
z
" transform="scale(0.015625)"/>
       <path id="DejaVuSans-72" d="M 2631 2963 
Q 2534 3019 2420 3045 
Q 2306 3072 2169 3072 
Q 1681 3072 1420 2755 
Q 1159 2438 1159 1844 
L 1159 0 
L 581 0 
L 581 3500 
L 1159 3500 
L 1159 2956 
Q 1341 3275 1631 3429 
Q 1922 3584 2338 3584 
Q 2397 3584 2469 3576 
Q 2541 3569 2628 3553 
L 2631 2963 
z
" transform="scale(0.015625)"/>
       <path id="DejaVuSans-20" transform="scale(0.015625)"/>
       <path id="DejaVuSans-6f" d="M 1959 3097 
Q 1497 3097 1228 2736 
Q 959 2375 959 1747 
Q 959 1119 1226 758 
Q 1494 397 1959 397 
Q 2419 397 2687 759 
Q 2956 1122 2956 1747 
Q 2956 2369 2687 2733 
Q 2419 3097 1959 3097 
z
M 1959 3584 
Q 2709 3584 3137 3096 
Q 3566 2609 3566 1747 
Q 3566 888 3137 398 
Q 2709 -91 1959 -91 
Q 1206 -91 779 398 
Q 353 888 353 1747 
Q 353 2609 779 3096 
Q 1206 3584 1959 3584 
z
" transform="scale(0.015625)"/>
       <path id="DejaVuSans-66" d="M 2375 4863 
L 2375 4384 
L 1825 4384 
Q 1516 4384 1395 4259 
Q 1275 4134 1275 3809 
L 1275 3500 
L 2222 3500 
L 2222 3053 
L 1275 3053 
L 1275 0 
L 697 0 
L 697 3053 
L 147 3053 
L 147 3500 
L 697 3500 
L 697 3744 
Q 697 4328 969 4595 
Q 1241 4863 1831 4863 
L 2375 4863 
z
" transform="scale(0.015625)"/>
       <path id="DejaVuSans-70" d="M 1159 525 
L 1159 -1331 
L 581 -1331 
L 581 3500 
L 1159 3500 
L 1159 2969 
Q 1341 3281 1617 3432 
Q 1894 3584 2278 3584 
Q 2916 3584 3314 3078 
Q 3713 2572 3713 1747 
Q 3713 922 3314 415 
Q 2916 -91 2278 -91 
Q 1894 -91 1617 61 
Q 1341 213 1159 525 
z
M 3116 1747 
Q 3116 2381 2855 2742 
Q 2594 3103 2138 3103 
Q 1681 3103 1420 2742 
Q 1159 2381 1159 1747 
Q 1159 1113 1420 752 
Q 1681 391 2138 391 
Q 2594 391 2855 752 
Q 3116 1113 3116 1747 
z
" transform="scale(0.015625)"/>
       <path id="DejaVuSans-63" d="M 3122 3366 
L 3122 2828 
Q 2878 2963 2633 3030 
Q 2388 3097 2138 3097 
Q 1578 3097 1268 2742 
Q 959 2388 959 1747 
Q 959 1106 1268 751 
Q 1578 397 2138 397 
Q 2388 397 2633 464 
Q 2878 531 3122 666 
L 3122 134 
Q 2881 22 2623 -34 
Q 2366 -91 2075 -91 
Q 1284 -91 818 406 
Q 353 903 353 1747 
Q 353 2603 823 3093 
Q 1294 3584 2113 3584 
Q 2378 3584 2631 3529 
Q 2884 3475 3122 3366 
z
" transform="scale(0.015625)"/>
       <path id="DejaVuSans-68" d="M 3513 2113 
L 3513 0 
L 2938 0 
L 2938 2094 
Q 2938 2591 2744 2837 
Q 2550 3084 2163 3084 
Q 1697 3084 1428 2787 
Q 1159 2491 1159 1978 
L 1159 0 
L 581 0 
L 581 4863 
L 1159 4863 
L 1159 2956 
Q 1366 3272 1645 3428 
Q 1925 3584 2291 3584 
Q 2894 3584 3203 3211 
Q 3513 2838 3513 2113 
z
" transform="scale(0.015625)"/>
       <path id="DejaVuSans-73" d="M 2834 3397 
L 2834 2853 
Q 2591 2978 2328 3040 
Q 2066 3103 1784 3103 
Q 1356 3103 1142 2972 
Q 928 2841 928 2578 
Q 928 2378 1081 2264 
Q 1234 2150 1697 2047 
L 1894 2003 
Q 2506 1872 2764 1633 
Q 3022 1394 3022 966 
Q 3022 478 2636 193 
Q 2250 -91 1575 -91 
Q 1294 -91 989 -36 
Q 684 19 347 128 
L 347 722 
Q 666 556 975 473 
Q 1284 391 1588 391 
Q 1994 391 2212 530 
Q 2431 669 2431 922 
Q 2431 1156 2273 1281 
Q 2116 1406 1581 1522 
L 1381 1569 
Q 847 1681 609 1914 
Q 372 2147 372 2553 
Q 372 3047 722 3315 
Q 1072 3584 1716 3584 
Q 2034 3584 2315 3537 
Q 2597 3491 2834 3397 
z
" transform="scale(0.015625)"/>
      </defs>
      <use xlink:href="#DejaVuSans-6e"/>
      <use xlink:href="#DejaVuSans-75" x="63.378906"/>
      <use xlink:href="#DejaVuSans-6d" x="126.757812"/>
      <use xlink:href="#DejaVuSans-62" x="224.169922"/>
      <use xlink:href="#DejaVuSans-65" x="287.646484"/>
      <use xlink:href="#DejaVuSans-72" x="349.169922"/>
      <use xlink:href="#DejaVuSans-20" x="390.283203"/>
      <use xlink:href="#DejaVuSans-6f" x="422.070312"/>
      <use xlink:href="#DejaVuSans-66" x="483.251953"/>
      <use xlink:href="#DejaVuSans-20" x="518.457031"/>
      <use xlink:href="#DejaVuSans-65" x="550.244141"/>
      <use xlink:href="#DejaVuSans-70" x="611.767578"/>
      <use xlink:href="#DejaVuSans-6f" x="675.244141"/>
      <use xlink:href="#DejaVuSans-63" x="736.425781"/>
      <use xlink:href="#DejaVuSans-68" x="791.40625"/>
      <use xlink:href="#DejaVuSans-73" x="854.785156"/>
     </g>
    </g>
   </g>
   <g id="matplotlib.axis_2">
    <g id="ytick_1">
     <g id="line2d_8">
      <defs>
       <path id="m8df627a427" d="M 0 0 
L -3.5 0 
" style="stroke: #000000; stroke-width: 0.8"/>
      </defs>
      <g>
       <use xlink:href="#m8df627a427" x="47.72" y="298.843816" style="stroke: #000000; stroke-width: 0.8"/>
      </g>
     </g>
     <g id="text_9">
      <!-- 0.0 -->
      <g transform="translate(24.816875 302.643035)scale(0.1 -0.1)">
       <defs>
        <path id="DejaVuSans-2e" d="M 684 794 
L 1344 794 
L 1344 0 
L 684 0 
L 684 794 
z
" transform="scale(0.015625)"/>
       </defs>
       <use xlink:href="#DejaVuSans-30"/>
       <use xlink:href="#DejaVuSans-2e" x="63.623047"/>
       <use xlink:href="#DejaVuSans-30" x="95.410156"/>
      </g>
     </g>
    </g>
    <g id="ytick_2">
     <g id="line2d_9">
      <g>
       <use xlink:href="#m8df627a427" x="47.72" y="262.506031" style="stroke: #000000; stroke-width: 0.8"/>
      </g>
     </g>
     <g id="text_10">
      <!-- 0.1 -->
      <g transform="translate(24.816875 266.30525)scale(0.1 -0.1)">
       <use xlink:href="#DejaVuSans-30"/>
       <use xlink:href="#DejaVuSans-2e" x="63.623047"/>
       <use xlink:href="#DejaVuSans-31" x="95.410156"/>
      </g>
     </g>
    </g>
    <g id="ytick_3">
     <g id="line2d_10">
      <g>
       <use xlink:href="#m8df627a427" x="47.72" y="226.168246" style="stroke: #000000; stroke-width: 0.8"/>
      </g>
     </g>
     <g id="text_11">
      <!-- 0.2 -->
      <g transform="translate(24.816875 229.967464)scale(0.1 -0.1)">
       <use xlink:href="#DejaVuSans-30"/>
       <use xlink:href="#DejaVuSans-2e" x="63.623047"/>
       <use xlink:href="#DejaVuSans-32" x="95.410156"/>
      </g>
     </g>
    </g>
    <g id="ytick_4">
     <g id="line2d_11">
      <g>
       <use xlink:href="#m8df627a427" x="47.72" y="189.83046" style="stroke: #000000; stroke-width: 0.8"/>
      </g>
     </g>
     <g id="text_12">
      <!-- 0.3 -->
      <g transform="translate(24.816875 193.629679)scale(0.1 -0.1)">
       <use xlink:href="#DejaVuSans-30"/>
       <use xlink:href="#DejaVuSans-2e" x="63.623047"/>
       <use xlink:href="#DejaVuSans-33" x="95.410156"/>
      </g>
     </g>
    </g>
    <g id="ytick_5">
     <g id="line2d_12">
      <g>
       <use xlink:href="#m8df627a427" x="47.72" y="153.492675" style="stroke: #000000; stroke-width: 0.8"/>
      </g>
     </g>
     <g id="text_13">
      <!-- 0.4 -->
      <g transform="translate(24.816875 157.291894)scale(0.1 -0.1)">
       <defs>
        <path id="DejaVuSans-34" d="M 2419 4116 
L 825 1625 
L 2419 1625 
L 2419 4116 
z
M 2253 4666 
L 3047 4666 
L 3047 1625 
L 3713 1625 
L 3713 1100 
L 3047 1100 
L 3047 0 
L 2419 0 
L 2419 1100 
L 313 1100 
L 313 1709 
L 2253 4666 
z
" transform="scale(0.015625)"/>
       </defs>
       <use xlink:href="#DejaVuSans-30"/>
       <use xlink:href="#DejaVuSans-2e" x="63.623047"/>
       <use xlink:href="#DejaVuSans-34" x="95.410156"/>
      </g>
     </g>
    </g>
    <g id="ytick_6">
     <g id="line2d_13">
      <g>
       <use xlink:href="#m8df627a427" x="47.72" y="117.15489" style="stroke: #000000; stroke-width: 0.8"/>
      </g>
     </g>
     <g id="text_14">
      <!-- 0.5 -->
      <g transform="translate(24.816875 120.954108)scale(0.1 -0.1)">
       <use xlink:href="#DejaVuSans-30"/>
       <use xlink:href="#DejaVuSans-2e" x="63.623047"/>
       <use xlink:href="#DejaVuSans-35" x="95.410156"/>
      </g>
     </g>
    </g>
    <g id="ytick_7">
     <g id="line2d_14">
      <g>
       <use xlink:href="#m8df627a427" x="47.72" y="80.817104" style="stroke: #000000; stroke-width: 0.8"/>
      </g>
     </g>
     <g id="text_15">
      <!-- 0.6 -->
      <g transform="translate(24.816875 84.616323)scale(0.1 -0.1)">
       <defs>
        <path id="DejaVuSans-36" d="M 2113 2584 
Q 1688 2584 1439 2293 
Q 1191 2003 1191 1497 
Q 1191 994 1439 701 
Q 1688 409 2113 409 
Q 2538 409 2786 701 
Q 3034 994 3034 1497 
Q 3034 2003 2786 2293 
Q 2538 2584 2113 2584 
z
M 3366 4563 
L 3366 3988 
Q 3128 4100 2886 4159 
Q 2644 4219 2406 4219 
Q 1781 4219 1451 3797 
Q 1122 3375 1075 2522 
Q 1259 2794 1537 2939 
Q 1816 3084 2150 3084 
Q 2853 3084 3261 2657 
Q 3669 2231 3669 1497 
Q 3669 778 3244 343 
Q 2819 -91 2113 -91 
Q 1303 -91 875 529 
Q 447 1150 447 2328 
Q 447 3434 972 4092 
Q 1497 4750 2381 4750 
Q 2619 4750 2861 4703 
Q 3103 4656 3366 4563 
z
" transform="scale(0.015625)"/>
       </defs>
       <use xlink:href="#DejaVuSans-30"/>
       <use xlink:href="#DejaVuSans-2e" x="63.623047"/>
       <use xlink:href="#DejaVuSans-36" x="95.410156"/>
      </g>
     </g>
    </g>
    <g id="ytick_8">
     <g id="line2d_15">
      <g>
       <use xlink:href="#m8df627a427" x="47.72" y="44.479319" style="stroke: #000000; stroke-width: 0.8"/>
      </g>
     </g>
     <g id="text_16">
      <!-- 0.7 -->
      <g transform="translate(24.816875 48.278538)scale(0.1 -0.1)">
       <defs>
        <path id="DejaVuSans-37" d="M 525 4666 
L 3525 4666 
L 3525 4397 
L 1831 0 
L 1172 0 
L 2766 4134 
L 525 4134 
L 525 4666 
z
" transform="scale(0.015625)"/>
       </defs>
       <use xlink:href="#DejaVuSans-30"/>
       <use xlink:href="#DejaVuSans-2e" x="63.623047"/>
       <use xlink:href="#DejaVuSans-37" x="95.410156"/>
      </g>
     </g>
    </g>
    <g id="text_17">
     <!-- metrics -->
     <g transform="translate(18.737188 183.965469)rotate(-90)scale(0.1 -0.1)">
      <defs>
       <path id="DejaVuSans-74" d="M 1172 4494 
L 1172 3500 
L 2356 3500 
L 2356 3053 
L 1172 3053 
L 1172 1153 
Q 1172 725 1289 603 
Q 1406 481 1766 481 
L 2356 481 
L 2356 0 
L 1766 0 
Q 1100 0 847 248 
Q 594 497 594 1153 
L 594 3053 
L 172 3053 
L 172 3500 
L 594 3500 
L 594 4494 
L 1172 4494 
z
" transform="scale(0.015625)"/>
       <path id="DejaVuSans-69" d="M 603 3500 
L 1178 3500 
L 1178 0 
L 603 0 
L 603 3500 
z
M 603 4863 
L 1178 4863 
L 1178 4134 
L 603 4134 
L 603 4863 
z
" transform="scale(0.015625)"/>
      </defs>
      <use xlink:href="#DejaVuSans-6d"/>
      <use xlink:href="#DejaVuSans-65" x="97.412109"/>
      <use xlink:href="#DejaVuSans-74" x="158.935547"/>
      <use xlink:href="#DejaVuSans-72" x="198.144531"/>
      <use xlink:href="#DejaVuSans-69" x="239.257812"/>
      <use xlink:href="#DejaVuSans-63" x="267.041016"/>
      <use xlink:href="#DejaVuSans-73" x="322.021484"/>
     </g>
    </g>
   </g>
   <g id="line2d_16">
    <path d="M 66.005455 289.967791 
L 67.228562 280.420292 
L 68.451669 261.7855 
L 69.674777 234.875025 
L 70.897884 212.273769 
L 72.120991 199.338945 
L 73.344099 190.771659 
L 74.567206 183.997858 
L 75.790313 178.439074 
L 78.236528 169.006435 
L 79.459635 163.800617 
L 83.128957 154.388879 
L 85.575172 149.210416 
L 88.021386 143.964496 
L 90.467601 139.363917 
L 94.136923 133.365238 
L 96.583138 129.886639 
L 100.25246 125.106778 
L 107.591104 116.896151 
L 110.037318 114.347233 
L 114.929748 109.764576 
L 116.152855 108.540193 
L 123.491499 102.293063 
L 129.607036 97.799989 
L 133.276358 95.350983 
L 143.061216 89.16517 
L 146.730538 87.305831 
L 151.622967 84.749484 
L 158.961611 81.381703 
L 168.74647 77.655985 
L 174.862007 75.379883 
L 178.531329 74.255174 
L 184.646865 72.42579 
L 191.985509 70.297814 
L 194.431724 69.586467 
L 198.101046 68.449781 
L 201.770368 67.472764 
L 206.662797 66.193627 
L 212.778334 64.781979 
L 236.017373 60.233068 
L 237.24048 60.118708 
L 238.463588 60.37827 
L 239.686695 60.259925 
L 240.909802 59.39363 
L 242.13291 58.828459 
L 243.356017 58.981979 
L 244.579124 58.589626 
L 245.802232 58.314643 
L 253.140876 57.397925 
L 254.363983 57.39903 
L 255.58709 57.195955 
L 256.810198 56.549304 
L 258.033305 56.270011 
L 260.47952 56.512224 
L 261.702627 56.061218 
L 269.041271 54.875994 
L 270.264378 54.881105 
L 271.487486 55.021672 
L 273.9337 54.517754 
L 275.156808 53.733914 
L 276.379915 53.782625 
L 280.049237 53.450614 
L 281.272344 53.267661 
L 282.495452 53.236212 
L 283.718559 53.424255 
L 284.941666 53.021138 
L 286.164773 52.274075 
L 287.387881 52.465801 
L 288.610988 52.484861 
L 292.28031 51.975441 
L 294.726525 51.679038 
L 298.395847 50.920409 
L 300.842061 50.916402 
L 302.065169 51.412069 
L 303.288276 51.191298 
L 304.511383 50.308174 
L 305.734491 49.993014 
L 308.180705 49.910515 
L 314.296242 49.275018 
L 316.742457 49.144306 
L 317.965564 49.159185 
L 319.188671 49.595008 
L 320.411779 50.175837 
L 321.634886 48.440344 
L 322.857993 48.81942 
L 324.081101 48.14171 
L 325.304208 47.964821 
L 328.97353 47.790314 
L 341.204603 46.768637 
L 342.427711 46.731037 
L 343.650818 47.784921 
L 344.873925 47.132314 
L 346.097033 45.977585 
L 347.32014 46.32374 
L 348.543247 45.651812 
L 349.766355 45.872019 
L 352.212569 45.692423 
L 355.881891 45.357921 
L 360.77432 45.097731 
L 363.220535 44.703408 
L 365.66675 44.250366 
L 366.889857 44.218397 
L 368.112964 44.365874 
L 369.336072 45.001067 
L 370.559179 44.864377 
L 371.782286 43.683983 
L 374.228501 43.638066 
L 375.451608 43.69843 
L 377.897823 43.55104 
L 380.344038 43.660483 
L 381.567145 43.913547 
L 382.790252 43.649978 
L 384.01336 42.632352 
L 385.236467 42.599603 
L 387.682682 43.157193 
L 390.128896 42.710042 
L 391.352004 42.41496 
L 395.021326 41.96337 
L 396.244433 42.005995 
L 397.46754 42.411408 
L 398.690648 43.015608 
L 399.913755 42.416714 
L 401.136862 41.391962 
L 408.475506 41.527785 
L 409.698614 41.941299 
L 410.921721 41.603419 
L 412.144828 40.531146 
L 413.367936 40.427681 
L 414.591043 40.657137 
L 415.81415 41.02534 
L 417.037258 40.955706 
L 421.929687 40.030563 
L 423.152794 39.94657 
L 424.375901 39.986119 
L 425.599009 40.280703 
L 426.822116 41.049295 
L 428.045223 40.723716 
L 429.268331 39.536413 
L 431.714545 39.486944 
L 431.714545 39.486944 
" clip-path="url(#pe8cd4fdebd)" style="fill: none; stroke: #1f77b4; stroke-width: 1.5; stroke-linecap: square"/>
   </g>
   <g id="line2d_17">
    <path d="M 66.005455 282.675269 
L 68.451669 276.243451 
L 69.674777 272.325063 
L 70.897884 269.387769 
L 72.120991 267.858182 
L 73.344099 266.852882 
L 75.790313 265.389402 
L 79.459635 263.634262 
L 85.575172 261.730895 
L 90.467601 260.448314 
L 95.36003 259.449387 
L 101.475567 258.388726 
L 108.814211 257.367179 
L 117.375962 256.394495 
L 127.160821 255.495968 
L 139.391894 254.593017 
L 154.069182 253.740803 
L 171.192685 252.974337 
L 195.654831 252.130009 
L 216.447656 251.574521 
L 237.24048 251.115853 
L 238.463588 251.210265 
L 239.686695 251.172405 
L 240.909802 250.889885 
L 243.356017 251.05132 
L 245.802232 250.920462 
L 254.363983 250.787763 
L 256.810198 250.666824 
L 261.702627 250.694737 
L 264.148842 250.576452 
L 272.710593 250.526398 
L 273.9337 250.362493 
L 278.82613 250.374449 
L 300.842061 250.047718 
L 302.065169 250.167459 
L 304.511383 249.954102 
L 309.403813 249.940213 
L 319.188671 249.880391 
L 320.411779 249.660363 
L 321.634886 249.814851 
L 322.857993 249.848606 
L 325.304208 249.746408 
L 337.535281 249.597784 
L 342.427711 249.533089 
L 343.650818 249.766703 
L 344.873925 249.481605 
L 347.32014 249.522535 
L 352.212569 249.451429 
L 368.112964 249.279646 
L 369.336072 249.438287 
L 371.782286 249.2361 
L 380.344038 249.215145 
L 410.921721 248.917821 
L 413.367936 248.867665 
L 417.037258 248.928813 
L 424.375901 248.795015 
L 426.822116 248.938435 
L 429.268331 248.770648 
L 431.714545 248.776269 
L 431.714545 248.776269 
" clip-path="url(#pe8cd4fdebd)" style="fill: none; stroke: #ff7f0e; stroke-width: 1.5; stroke-linecap: square"/>
   </g>
   <g id="line2d_18">
    <path d="M 66.005455 221.103529 
L 67.228562 205.02399 
L 68.451669 191.443229 
L 69.674777 173.582735 
L 70.897884 160.600704 
L 72.120991 153.889477 
L 73.344099 149.536384 
L 74.567206 146.136895 
L 75.790313 143.358391 
L 78.236528 138.754552 
L 79.459635 135.70661 
L 80.682742 134.086104 
L 81.90585 132.175412 
L 84.352064 129.288439 
L 89.244494 123.785752 
L 91.690708 121.576327 
L 95.36003 118.696459 
L 99.029352 116.08017 
L 102.698674 113.788019 
L 106.367996 111.787528 
L 111.260426 109.417642 
L 116.152855 107.31256 
L 121.045284 105.453416 
L 127.160821 103.406921 
L 133.276358 101.600517 
L 140.615002 99.694026 
L 147.953645 98.024571 
L 156.515397 96.322823 
L 165.077148 94.837773 
L 174.862007 93.36143 
L 187.09308 91.765898 
L 202.993475 89.935278 
L 215.224548 88.754602 
L 236.017373 87.005616 
L 237.24048 86.949606 
L 239.686695 87.057446 
L 240.909802 86.646899 
L 242.13291 86.374364 
L 243.356017 86.631955 
L 245.802232 86.270812 
L 254.363983 85.834297 
L 255.58709 85.775189 
L 256.810198 85.47963 
L 259.256412 85.352449 
L 260.47952 85.369126 
L 270.264378 84.648661 
L 272.710593 84.721197 
L 273.9337 84.595228 
L 275.156808 84.27056 
L 277.603022 84.240345 
L 281.272344 84.049313 
L 284.941666 84.031877 
L 286.164773 83.643856 
L 294.726525 83.392049 
L 300.842061 82.942624 
L 302.065169 83.144464 
L 303.288276 83.215788 
L 304.511383 82.803725 
L 305.734491 82.646979 
L 308.180705 82.622071 
L 315.519349 82.297965 
L 317.965564 82.270459 
L 319.188671 82.478017 
L 320.411779 82.896555 
L 321.634886 81.772864 
L 322.857993 82.239746 
L 324.081101 81.947111 
L 325.304208 81.779081 
L 327.750423 81.760844 
L 338.758389 81.297752 
L 341.204603 81.27631 
L 342.427711 81.050277 
L 343.650818 81.685275 
L 344.873925 81.712198 
L 346.097033 80.727947 
L 347.32014 81.283284 
L 348.543247 80.854999 
L 350.989462 80.848133 
L 357.104998 80.650126 
L 363.220535 80.435616 
L 365.66675 80.236699 
L 366.889857 80.202175 
L 368.112964 80.022795 
L 369.336072 80.590131 
L 370.559179 80.65305 
L 371.782286 79.952728 
L 374.228501 79.987989 
L 377.897823 79.911078 
L 380.344038 79.947443 
L 381.567145 80.109821 
L 382.790252 80.110601 
L 384.01336 79.467306 
L 386.459574 79.55195 
L 387.682682 79.79531 
L 391.352004 79.479284 
L 396.244433 79.124054 
L 397.46754 79.392799 
L 398.690648 79.812724 
L 399.913755 79.521194 
L 401.136862 78.988859 
L 403.583077 79.063582 
L 408.475506 79.099103 
L 409.698614 79.282793 
L 410.921721 79.273372 
L 412.144828 78.615523 
L 414.591043 78.644156 
L 415.81415 78.942292 
L 423.152794 78.406925 
L 424.375901 78.277512 
L 425.599009 78.479049 
L 426.822116 79.005861 
L 428.045223 78.859121 
L 429.268331 78.197872 
L 431.714545 78.250222 
L 431.714545 78.250222 
" clip-path="url(#pe8cd4fdebd)" style="fill: none; stroke: #2ca02c; stroke-width: 1.5; stroke-linecap: square"/>
   </g>
   <g id="line2d_19">
    <path d="M 66.005455 278.98796 
L 67.228562 276.010024 
L 68.451669 272.199663 
L 69.674777 267.926414 
L 70.897884 264.76712 
L 72.120991 263.145597 
L 73.344099 262.082193 
L 75.790313 260.526995 
L 79.459635 258.671807 
L 80.682742 258.298535 
L 81.90585 257.802019 
L 89.244494 255.711034 
L 94.136923 254.624499 
L 100.25246 253.500012 
L 106.367996 252.584697 
L 114.929748 251.540299 
L 124.714606 250.585581 
L 136.94568 249.639283 
L 150.39986 248.821201 
L 166.300255 248.072346 
L 188.316187 247.273914 
L 212.778334 246.579087 
L 237.24048 246.02303 
L 238.463588 246.126955 
L 239.686695 246.101842 
L 240.909802 245.799872 
L 243.356017 245.993872 
L 245.802232 245.859526 
L 254.363983 245.721082 
L 256.810198 245.607832 
L 261.702627 245.643543 
L 264.148842 245.521651 
L 272.710593 245.474759 
L 273.9337 245.295114 
L 277.603022 245.356111 
L 288.610988 245.220369 
L 295.949632 245.052956 
L 300.842061 244.978194 
L 302.065169 245.127343 
L 304.511383 244.913813 
L 309.403813 244.907217 
L 319.188671 244.828519 
L 320.411779 244.559747 
L 321.634886 244.785478 
L 322.857993 244.824599 
L 325.304208 244.718622 
L 338.758389 244.55698 
L 342.427711 244.460029 
L 343.650818 244.734157 
L 344.873925 244.414242 
L 346.097033 244.517686 
L 358.328106 244.373778 
L 368.112964 244.231928 
L 369.336072 244.418677 
L 371.782286 244.223627 
L 380.344038 244.200175 
L 396.244433 244.000182 
L 398.690648 244.127591 
L 401.136862 243.980131 
L 409.698614 243.966875 
L 412.144828 243.858407 
L 425.599009 243.875431 
L 426.822116 243.928685 
L 429.268331 243.773807 
L 431.714545 243.776937 
L 431.714545 243.776937 
" clip-path="url(#pe8cd4fdebd)" style="fill: none; stroke: #d62728; stroke-width: 1.5; stroke-linecap: square"/>
   </g>
   <g id="line2d_20">
    <path d="M 66.005455 267.915181 
L 68.451669 256.323215 
L 69.674777 249.448916 
L 70.897884 244.381602 
L 72.120991 241.773814 
L 73.344099 240.071936 
L 74.567206 238.732234 
L 75.790313 237.611002 
L 79.459635 234.703892 
L 84.352064 232.098416 
L 89.244494 229.916173 
L 92.913816 228.586522 
L 97.806245 227.085433 
L 102.698674 225.792861 
L 108.814211 224.451319 
L 116.152855 223.098768 
L 123.491499 221.96696 
L 133.276358 220.711036 
L 144.284324 219.552777 
L 156.515397 218.504909 
L 171.192685 217.494889 
L 189.539295 216.483782 
L 210.332119 215.537045 
L 237.24048 214.612368 
L 238.463588 214.753341 
L 239.686695 214.684119 
L 240.909802 214.250922 
L 243.356017 214.501311 
L 245.802232 214.298745 
L 253.140876 214.130834 
L 259.256412 213.973081 
L 260.47952 214.037624 
L 265.371949 213.74806 
L 270.264378 213.668999 
L 271.487486 213.775215 
L 272.710593 213.686646 
L 273.9337 213.435228 
L 277.603022 213.496382 
L 287.387881 213.253558 
L 289.834095 213.262335 
L 294.726525 213.060949 
L 300.842061 212.964231 
L 302.065169 213.133388 
L 304.511383 212.807712 
L 308.180705 212.818731 
L 317.965564 212.650928 
L 319.188671 212.689871 
L 320.411779 212.357611 
L 321.634886 212.60134 
L 322.857993 212.644241 
L 325.304208 212.488128 
L 333.865959 212.331923 
L 342.427711 212.180657 
L 343.650818 212.512646 
L 344.873925 212.088736 
L 347.32014 212.145217 
L 349.766355 212.084112 
L 366.889857 211.75006 
L 368.112964 211.780956 
L 369.336072 212.008679 
L 371.782286 211.702513 
L 376.674716 211.687649 
L 382.790252 211.54288 
L 385.236467 211.510002 
L 387.682682 211.624881 
L 392.575111 211.438224 
L 396.244433 211.387244 
L 397.46754 211.529858 
L 398.690648 211.559861 
L 399.913755 211.372327 
L 402.35997 211.335522 
L 409.698614 211.31395 
L 412.144828 211.134798 
L 414.591043 211.207756 
L 417.037258 211.227011 
L 423.152794 211.03293 
L 424.375901 211.030688 
L 426.822116 211.241777 
L 429.268331 210.98913 
L 431.714545 210.994864 
L 431.714545 210.994864 
" clip-path="url(#pe8cd4fdebd)" style="fill: none; stroke: #9467bd; stroke-width: 1.5; stroke-linecap: square"/>
   </g>
   <g id="line2d_21">
    <path d="M 66.005455 286.966332 
L 67.228562 288.275875 
L 68.451669 288.323757 
L 70.897884 288.84332 
L 73.344099 289.100169 
L 75.790313 289.29878 
L 77.01342 289.602955 
L 78.236528 290.209012 
L 79.459635 289.85127 
L 80.682742 289.672151 
L 89.244494 289.95829 
L 94.136923 289.981984 
L 103.921782 290.078509 
L 166.300255 290.29661 
L 209.109012 290.312744 
L 234.794266 290.547508 
L 237.24048 290.842056 
L 238.463588 290.312059 
L 239.686695 290.009137 
L 240.909802 290.464988 
L 244.579124 290.304487 
L 248.248446 290.363479 
L 251.917768 290.274189 
L 254.363983 290.083451 
L 255.58709 290.238258 
L 258.033305 290.730886 
L 259.256412 290.771228 
L 260.47952 290.480551 
L 261.702627 290.314328 
L 264.148842 290.350001 
L 267.818164 290.626328 
L 269.041271 290.809528 
L 270.264378 290.82361 
L 271.487486 290.383075 
L 272.710593 290.137989 
L 273.9337 290.397341 
L 275.156808 290.511892 
L 280.049237 290.386889 
L 283.718559 290.097519 
L 286.164773 290.698463 
L 287.387881 290.771628 
L 291.057203 290.377236 
L 293.503417 290.290966 
L 295.949632 290.403191 
L 298.395847 290.66693 
L 299.618954 290.91547 
L 300.842061 290.880281 
L 302.065169 290.295402 
L 303.288276 290.347417 
L 304.511383 290.536076 
L 308.180705 290.559642 
L 316.742457 290.357648 
L 317.965564 290.221082 
L 319.188671 289.890764 
L 320.411779 290.850258 
L 321.634886 290.504976 
L 327.750423 290.608739 
L 335.089067 290.594171 
L 338.758389 290.732433 
L 339.981496 290.829348 
L 341.204603 291.06 
L 342.427711 290.945201 
L 343.650818 290.030583 
L 344.873925 290.677114 
L 346.097033 290.352238 
L 348.543247 290.498234 
L 359.551213 290.354387 
L 361.997428 290.385995 
L 364.443642 290.586741 
L 366.889857 291.038836 
L 368.112964 290.860198 
L 369.336072 290.327119 
L 371.782286 290.599485 
L 375.451608 290.569002 
L 379.12093 290.400175 
L 381.567145 290.199176 
L 384.01336 290.803364 
L 385.236467 290.903922 
L 387.682682 290.505403 
L 390.128896 290.471884 
L 393.798218 290.787085 
L 395.021326 290.976188 
L 396.244433 290.932648 
L 397.46754 290.47354 
L 398.690648 290.282614 
L 399.913755 290.532986 
L 402.35997 290.664676 
L 406.029292 290.521656 
L 409.698614 290.228817 
L 412.144828 290.801666 
L 413.367936 290.921812 
L 415.81415 290.534137 
L 418.260365 290.465627 
L 421.929687 290.787788 
L 423.152794 290.968029 
L 424.375901 290.967391 
L 425.599009 290.5392 
L 426.822116 290.303725 
L 429.268331 290.644498 
L 431.714545 290.675556 
L 431.714545 290.675556 
" clip-path="url(#pe8cd4fdebd)" style="fill: none; stroke: #8c564b; stroke-width: 1.5; stroke-linecap: square"/>
   </g>
   <g id="line2d_22">
    <path d="M 66.005455 278.348612 
L 431.714545 278.348612 
L 431.714545 278.348612 
" clip-path="url(#pe8cd4fdebd)" style="fill: none; stroke: #e377c2; stroke-width: 1.5; stroke-linecap: square"/>
   </g>
   <g id="line2d_23">
    <path d="M 66.005455 255.885134 
L 67.228562 255.220381 
L 68.451669 255.431898 
L 70.897884 255.091621 
L 75.790313 254.763333 
L 77.01342 254.353428 
L 78.236528 253.165808 
L 79.459635 253.949978 
L 80.682742 254.371611 
L 84.352064 254.136478 
L 86.798279 253.930812 
L 92.913816 254.200941 
L 103.921782 254.198206 
L 124.714606 254.245813 
L 179.754436 254.549028 
L 206.662797 254.619008 
L 227.455622 254.585908 
L 233.571158 254.474337 
L 234.794266 254.329546 
L 237.24048 253.777735 
L 238.463588 254.666111 
L 239.686695 254.989063 
L 240.909802 254.462075 
L 243.356017 254.72746 
L 249.471554 254.649894 
L 253.140876 254.848209 
L 254.363983 254.945913 
L 255.58709 254.783931 
L 258.033305 254.06796 
L 259.256412 253.995906 
L 260.47952 254.485703 
L 261.702627 254.712616 
L 264.148842 254.674315 
L 266.595056 254.46817 
L 267.818164 254.278824 
L 269.041271 253.946791 
L 270.264378 253.920993 
L 271.487486 254.63705 
L 272.710593 254.910084 
L 273.9337 254.622084 
L 275.156808 254.470195 
L 280.049237 254.653522 
L 283.718559 254.958841 
L 286.164773 254.186846 
L 287.387881 254.060136 
L 289.834095 254.549973 
L 292.28031 254.752847 
L 294.726525 254.746374 
L 297.172739 254.509105 
L 298.395847 254.268373 
L 299.618954 253.802686 
L 300.842061 253.878319 
L 302.065169 254.772798 
L 303.288276 254.715667 
L 304.511383 254.480272 
L 306.957598 254.429955 
L 315.519349 254.646675 
L 317.965564 254.87665 
L 319.188671 255.121251 
L 320.411779 253.938628 
L 321.634886 254.528051 
L 327.750423 254.4031 
L 333.865959 254.457229 
L 337.535281 254.321127 
L 339.981496 254.048331 
L 341.204603 253.572662 
L 342.427711 253.82115 
L 343.650818 255.011017 
L 344.873925 254.298496 
L 346.097033 254.759719 
L 347.32014 254.601703 
L 350.989462 254.648437 
L 363.220535 254.633468 
L 364.443642 254.475899 
L 365.66675 254.199866 
L 366.889857 253.662606 
L 368.112964 254.018464 
L 369.336072 254.773345 
L 371.782286 254.46129 
L 374.228501 254.466967 
L 379.12093 254.726599 
L 381.567145 254.923745 
L 384.01336 254.140669 
L 385.236467 253.963268 
L 386.459574 254.382882 
L 387.682682 254.596843 
L 388.905789 254.685775 
L 391.352004 254.549545 
L 393.798218 254.188343 
L 395.021326 253.837952 
L 396.244433 253.924377 
L 397.46754 254.632358 
L 398.690648 254.832255 
L 401.136862 254.414282 
L 403.583077 254.438545 
L 407.252399 254.703987 
L 409.698614 254.907049 
L 413.367936 253.960956 
L 414.591043 254.345693 
L 415.81415 254.578054 
L 417.037258 254.689297 
L 419.483472 254.574031 
L 421.929687 254.213544 
L 423.152794 253.887724 
L 424.375901 253.890656 
L 425.599009 254.567793 
L 426.822116 254.820773 
L 429.268331 254.440506 
L 431.714545 254.398579 
L 431.714545 254.398579 
" clip-path="url(#pe8cd4fdebd)" style="fill: none; stroke: #7f7f7f; stroke-width: 1.5; stroke-linecap: square"/>
   </g>
   <g id="line2d_24">
    <path d="M 66.005455 256.895256 
L 67.228562 257.73947 
L 70.897884 258.216783 
L 74.567206 258.407735 
L 77.01342 258.459684 
L 78.236528 258.234406 
L 80.682742 258.541606 
L 97.806245 258.755998 
L 139.391894 259.087029 
L 201.770368 259.325879 
L 236.017373 259.346214 
L 237.24048 259.2958 
L 238.463588 259.387667 
L 239.686695 259.31081 
L 242.13291 259.401989 
L 255.58709 259.396341 
L 260.47952 259.429872 
L 275.156808 259.450356 
L 298.395847 259.464123 
L 300.842061 259.404433 
L 305.734491 259.482252 
L 317.965564 259.444067 
L 319.188671 259.28497 
L 321.634886 259.483941 
L 338.758389 259.49594 
L 343.650818 259.347625 
L 344.873925 259.49539 
L 388.905789 259.52724 
L 397.46754 259.525521 
L 398.690648 259.474522 
L 401.136862 259.546866 
L 431.714545 259.56389 
L 431.714545 259.56389 
" clip-path="url(#pe8cd4fdebd)" style="fill: none; stroke: #bcbd22; stroke-width: 1.5; stroke-linecap: square"/>
   </g>
   <g id="patch_3">
    <path d="M 47.72 303.64 
L 47.72 26.88 
" style="fill: none; stroke: #000000; stroke-width: 0.8; stroke-linejoin: miter; stroke-linecap: square"/>
   </g>
   <g id="patch_4">
    <path d="M 450 303.64 
L 450 26.88 
" style="fill: none; stroke: #000000; stroke-width: 0.8; stroke-linejoin: miter; stroke-linecap: square"/>
   </g>
   <g id="patch_5">
    <path d="M 47.72 303.64 
L 450 303.64 
" style="fill: none; stroke: #000000; stroke-width: 0.8; stroke-linejoin: miter; stroke-linecap: square"/>
   </g>
   <g id="patch_6">
    <path d="M 47.72 26.88 
L 450 26.88 
" style="fill: none; stroke: #000000; stroke-width: 0.8; stroke-linejoin: miter; stroke-linecap: square"/>
   </g>
   <g id="text_18">
    <!-- Metrics of training -->
    <g transform="translate(194.240312 20.88)scale(0.12 -0.12)">
     <defs>
      <path id="DejaVuSans-4d" d="M 628 4666 
L 1569 4666 
L 2759 1491 
L 3956 4666 
L 4897 4666 
L 4897 0 
L 4281 0 
L 4281 4097 
L 3078 897 
L 2444 897 
L 1241 4097 
L 1241 0 
L 628 0 
L 628 4666 
z
" transform="scale(0.015625)"/>
      <path id="DejaVuSans-61" d="M 2194 1759 
Q 1497 1759 1228 1600 
Q 959 1441 959 1056 
Q 959 750 1161 570 
Q 1363 391 1709 391 
Q 2188 391 2477 730 
Q 2766 1069 2766 1631 
L 2766 1759 
L 2194 1759 
z
M 3341 1997 
L 3341 0 
L 2766 0 
L 2766 531 
Q 2569 213 2275 61 
Q 1981 -91 1556 -91 
Q 1019 -91 701 211 
Q 384 513 384 1019 
Q 384 1609 779 1909 
Q 1175 2209 1959 2209 
L 2766 2209 
L 2766 2266 
Q 2766 2663 2505 2880 
Q 2244 3097 1772 3097 
Q 1472 3097 1187 3025 
Q 903 2953 641 2809 
L 641 3341 
Q 956 3463 1253 3523 
Q 1550 3584 1831 3584 
Q 2591 3584 2966 3190 
Q 3341 2797 3341 1997 
z
" transform="scale(0.015625)"/>
      <path id="DejaVuSans-67" d="M 2906 1791 
Q 2906 2416 2648 2759 
Q 2391 3103 1925 3103 
Q 1463 3103 1205 2759 
Q 947 2416 947 1791 
Q 947 1169 1205 825 
Q 1463 481 1925 481 
Q 2391 481 2648 825 
Q 2906 1169 2906 1791 
z
M 3481 434 
Q 3481 -459 3084 -895 
Q 2688 -1331 1869 -1331 
Q 1566 -1331 1297 -1286 
Q 1028 -1241 775 -1147 
L 775 -588 
Q 1028 -725 1275 -790 
Q 1522 -856 1778 -856 
Q 2344 -856 2625 -561 
Q 2906 -266 2906 331 
L 2906 616 
Q 2728 306 2450 153 
Q 2172 0 1784 0 
Q 1141 0 747 490 
Q 353 981 353 1791 
Q 353 2603 747 3093 
Q 1141 3584 1784 3584 
Q 2172 3584 2450 3431 
Q 2728 3278 2906 2969 
L 2906 3500 
L 3481 3500 
L 3481 434 
z
" transform="scale(0.015625)"/>
     </defs>
     <use xlink:href="#DejaVuSans-4d"/>
     <use xlink:href="#DejaVuSans-65" x="86.279297"/>
     <use xlink:href="#DejaVuSans-74" x="147.802734"/>
     <use xlink:href="#DejaVuSans-72" x="187.011719"/>
     <use xlink:href="#DejaVuSans-69" x="228.125"/>
     <use xlink:href="#DejaVuSans-63" x="255.908203"/>
     <use xlink:href="#DejaVuSans-73" x="310.888672"/>
     <use xlink:href="#DejaVuSans-20" x="362.988281"/>
     <use xlink:href="#DejaVuSans-6f" x="394.775391"/>
     <use xlink:href="#DejaVuSans-66" x="455.957031"/>
     <use xlink:href="#DejaVuSans-20" x="491.162109"/>
     <use xlink:href="#DejaVuSans-74" x="522.949219"/>
     <use xlink:href="#DejaVuSans-72" x="562.158203"/>
     <use xlink:href="#DejaVuSans-61" x="603.271484"/>
     <use xlink:href="#DejaVuSans-69" x="664.550781"/>
     <use xlink:href="#DejaVuSans-6e" x="692.333984"/>
     <use xlink:href="#DejaVuSans-69" x="755.712891"/>
     <use xlink:href="#DejaVuSans-6e" x="783.496094"/>
     <use xlink:href="#DejaVuSans-67" x="846.875"/>
    </g>
   </g>
   <g id="legend_1">
    <g id="patch_7">
     <path d="M 344.534375 233.506875 
L 443 233.506875 
Q 445 233.506875 445 231.506875 
L 445 99.013125 
Q 445 97.013125 443 97.013125 
L 344.534375 97.013125 
Q 342.534375 97.013125 342.534375 99.013125 
L 342.534375 231.506875 
Q 342.534375 233.506875 344.534375 233.506875 
z
" style="fill: #ffffff; opacity: 0.8; stroke: #cccccc; stroke-linejoin: miter"/>
    </g>
    <g id="line2d_25">
     <path d="M 346.534375 105.111562 
L 356.534375 105.111562 
L 366.534375 105.111562 
" style="fill: none; stroke: #1f77b4; stroke-width: 1.5; stroke-linecap: square"/>
    </g>
    <g id="text_19">
     <!-- iou_binarized -->
     <g transform="translate(374.534375 108.611562)scale(0.1 -0.1)">
      <defs>
       <path id="DejaVuSans-5f" d="M 3263 -1063 
L 3263 -1509 
L -63 -1509 
L -63 -1063 
L 3263 -1063 
z
" transform="scale(0.015625)"/>
       <path id="DejaVuSans-7a" d="M 353 3500 
L 3084 3500 
L 3084 2975 
L 922 459 
L 3084 459 
L 3084 0 
L 275 0 
L 275 525 
L 2438 3041 
L 353 3041 
L 353 3500 
z
" transform="scale(0.015625)"/>
       <path id="DejaVuSans-64" d="M 2906 2969 
L 2906 4863 
L 3481 4863 
L 3481 0 
L 2906 0 
L 2906 525 
Q 2725 213 2448 61 
Q 2172 -91 1784 -91 
Q 1150 -91 751 415 
Q 353 922 353 1747 
Q 353 2572 751 3078 
Q 1150 3584 1784 3584 
Q 2172 3584 2448 3432 
Q 2725 3281 2906 2969 
z
M 947 1747 
Q 947 1113 1208 752 
Q 1469 391 1925 391 
Q 2381 391 2643 752 
Q 2906 1113 2906 1747 
Q 2906 2381 2643 2742 
Q 2381 3103 1925 3103 
Q 1469 3103 1208 2742 
Q 947 2381 947 1747 
z
" transform="scale(0.015625)"/>
      </defs>
      <use xlink:href="#DejaVuSans-69"/>
      <use xlink:href="#DejaVuSans-6f" x="27.783203"/>
      <use xlink:href="#DejaVuSans-75" x="88.964844"/>
      <use xlink:href="#DejaVuSans-5f" x="152.34375"/>
      <use xlink:href="#DejaVuSans-62" x="202.34375"/>
      <use xlink:href="#DejaVuSans-69" x="265.820312"/>
      <use xlink:href="#DejaVuSans-6e" x="293.603516"/>
      <use xlink:href="#DejaVuSans-61" x="356.982422"/>
      <use xlink:href="#DejaVuSans-72" x="418.261719"/>
      <use xlink:href="#DejaVuSans-69" x="459.375"/>
      <use xlink:href="#DejaVuSans-7a" x="487.158203"/>
      <use xlink:href="#DejaVuSans-65" x="539.648438"/>
      <use xlink:href="#DejaVuSans-64" x="601.171875"/>
     </g>
    </g>
    <g id="line2d_26">
     <path d="M 346.534375 120.067812 
L 356.534375 120.067812 
L 366.534375 120.067812 
" style="fill: none; stroke: #ff7f0e; stroke-width: 1.5; stroke-linecap: square"/>
    </g>
    <g id="text_20">
     <!-- iou -->
     <g transform="translate(374.534375 123.567812)scale(0.1 -0.1)">
      <use xlink:href="#DejaVuSans-69"/>
      <use xlink:href="#DejaVuSans-6f" x="27.783203"/>
      <use xlink:href="#DejaVuSans-75" x="88.964844"/>
     </g>
    </g>
    <g id="line2d_27">
     <path d="M 346.534375 134.745937 
L 356.534375 134.745937 
L 366.534375 134.745937 
" style="fill: none; stroke: #2ca02c; stroke-width: 1.5; stroke-linecap: square"/>
    </g>
    <g id="text_21">
     <!-- recall -->
     <g transform="translate(374.534375 138.245937)scale(0.1 -0.1)">
      <defs>
       <path id="DejaVuSans-6c" d="M 603 4863 
L 1178 4863 
L 1178 0 
L 603 0 
L 603 4863 
z
" transform="scale(0.015625)"/>
      </defs>
      <use xlink:href="#DejaVuSans-72"/>
      <use xlink:href="#DejaVuSans-65" x="38.863281"/>
      <use xlink:href="#DejaVuSans-63" x="100.386719"/>
      <use xlink:href="#DejaVuSans-61" x="155.367188"/>
      <use xlink:href="#DejaVuSans-6c" x="216.646484"/>
      <use xlink:href="#DejaVuSans-6c" x="244.429688"/>
     </g>
    </g>
    <g id="line2d_28">
     <path d="M 346.534375 149.424062 
L 356.534375 149.424062 
L 366.534375 149.424062 
" style="fill: none; stroke: #d62728; stroke-width: 1.5; stroke-linecap: square"/>
    </g>
    <g id="text_22">
     <!-- precision -->
     <g transform="translate(374.534375 152.924062)scale(0.1 -0.1)">
      <use xlink:href="#DejaVuSans-70"/>
      <use xlink:href="#DejaVuSans-72" x="63.476562"/>
      <use xlink:href="#DejaVuSans-65" x="102.339844"/>
      <use xlink:href="#DejaVuSans-63" x="163.863281"/>
      <use xlink:href="#DejaVuSans-69" x="218.84375"/>
      <use xlink:href="#DejaVuSans-73" x="246.626953"/>
      <use xlink:href="#DejaVuSans-69" x="298.726562"/>
      <use xlink:href="#DejaVuSans-6f" x="326.509766"/>
      <use xlink:href="#DejaVuSans-6e" x="387.691406"/>
     </g>
    </g>
    <g id="line2d_29">
     <path d="M 346.534375 164.102187 
L 356.534375 164.102187 
L 366.534375 164.102187 
" style="fill: none; stroke: #9467bd; stroke-width: 1.5; stroke-linecap: square"/>
    </g>
    <g id="text_23">
     <!-- F1_score -->
     <g transform="translate(374.534375 167.602187)scale(0.1 -0.1)">
      <defs>
       <path id="DejaVuSans-46" d="M 628 4666 
L 3309 4666 
L 3309 4134 
L 1259 4134 
L 1259 2759 
L 3109 2759 
L 3109 2228 
L 1259 2228 
L 1259 0 
L 628 0 
L 628 4666 
z
" transform="scale(0.015625)"/>
      </defs>
      <use xlink:href="#DejaVuSans-46"/>
      <use xlink:href="#DejaVuSans-31" x="57.519531"/>
      <use xlink:href="#DejaVuSans-5f" x="121.142578"/>
      <use xlink:href="#DejaVuSans-73" x="171.142578"/>
      <use xlink:href="#DejaVuSans-63" x="223.242188"/>
      <use xlink:href="#DejaVuSans-6f" x="278.222656"/>
      <use xlink:href="#DejaVuSans-72" x="339.404297"/>
      <use xlink:href="#DejaVuSans-65" x="378.267578"/>
     </g>
    </g>
    <g id="line2d_30">
     <path d="M 346.534375 179.058437 
L 356.534375 179.058437 
L 366.534375 179.058437 
" style="fill: none; stroke: #8c564b; stroke-width: 1.5; stroke-linecap: square"/>
    </g>
    <g id="text_24">
     <!-- s_loss -->
     <g transform="translate(374.534375 182.558437)scale(0.1 -0.1)">
      <use xlink:href="#DejaVuSans-73"/>
      <use xlink:href="#DejaVuSans-5f" x="52.099609"/>
      <use xlink:href="#DejaVuSans-6c" x="102.099609"/>
      <use xlink:href="#DejaVuSans-6f" x="129.882812"/>
      <use xlink:href="#DejaVuSans-73" x="191.064453"/>
      <use xlink:href="#DejaVuSans-73" x="243.164062"/>
     </g>
    </g>
    <g id="line2d_31">
     <path d="M 346.534375 194.014687 
L 356.534375 194.014687 
L 366.534375 194.014687 
" style="fill: none; stroke: #e377c2; stroke-width: 1.5; stroke-linecap: square"/>
    </g>
    <g id="text_25">
     <!-- t_loss -->
     <g transform="translate(374.534375 197.514687)scale(0.1 -0.1)">
      <use xlink:href="#DejaVuSans-74"/>
      <use xlink:href="#DejaVuSans-5f" x="39.208984"/>
      <use xlink:href="#DejaVuSans-6c" x="89.208984"/>
      <use xlink:href="#DejaVuSans-6f" x="116.992188"/>
      <use xlink:href="#DejaVuSans-73" x="178.173828"/>
      <use xlink:href="#DejaVuSans-73" x="230.273438"/>
     </g>
    </g>
    <g id="line2d_32">
     <path d="M 346.534375 208.970937 
L 356.534375 208.970937 
L 366.534375 208.970937 
" style="fill: none; stroke: #7f7f7f; stroke-width: 1.5; stroke-linecap: square"/>
    </g>
    <g id="text_26">
     <!-- dist_loss -->
     <g transform="translate(374.534375 212.470937)scale(0.1 -0.1)">
      <use xlink:href="#DejaVuSans-64"/>
      <use xlink:href="#DejaVuSans-69" x="63.476562"/>
      <use xlink:href="#DejaVuSans-73" x="91.259766"/>
      <use xlink:href="#DejaVuSans-74" x="143.359375"/>
      <use xlink:href="#DejaVuSans-5f" x="182.568359"/>
      <use xlink:href="#DejaVuSans-6c" x="232.568359"/>
      <use xlink:href="#DejaVuSans-6f" x="260.351562"/>
      <use xlink:href="#DejaVuSans-73" x="321.533203"/>
      <use xlink:href="#DejaVuSans-73" x="373.632812"/>
     </g>
    </g>
    <g id="line2d_33">
     <path d="M 346.534375 223.927187 
L 356.534375 223.927187 
L 366.534375 223.927187 
" style="fill: none; stroke: #bcbd22; stroke-width: 1.5; stroke-linecap: square"/>
    </g>
    <g id="text_27">
     <!-- loss -->
     <g transform="translate(374.534375 227.427187)scale(0.1 -0.1)">
      <use xlink:href="#DejaVuSans-6c"/>
      <use xlink:href="#DejaVuSans-6f" x="27.783203"/>
      <use xlink:href="#DejaVuSans-73" x="88.964844"/>
      <use xlink:href="#DejaVuSans-73" x="141.064453"/>
     </g>
    </g>
   </g>
  </g>
 </g>
 <defs>
  <clipPath id="pe8cd4fdebd">
   <rect x="47.72" y="26.88" width="402.28" height="276.76"/>
  </clipPath>
 </defs>
</svg>
