<?xml version="1.0" encoding="utf-8" standalone="no"?>
<!DOCTYPE svg PUBLIC "-//W3C//DTD SVG 1.1//EN"
  "http://www.w3.org/Graphics/SVG/1.1/DTD/svg11.dtd">
<svg xmlns:xlink="http://www.w3.org/1999/xlink" width="460.8pt" height="345.6pt" viewBox="0 0 460.8 345.6" xmlns="http://www.w3.org/2000/svg" version="1.1">
 <metadata>
  <rdf:RDF xmlns:dc="http://purl.org/dc/elements/1.1/" xmlns:cc="http://creativecommons.org/ns#" xmlns:rdf="http://www.w3.org/1999/02/22-rdf-syntax-ns#">
   <cc:Work>
    <dc:type rdf:resource="http://purl.org/dc/dcmitype/StillImage"/>
    <dc:date>2022-07-20T14:12:33.352131</dc:date>
    <dc:format>image/svg+xml</dc:format>
    <dc:creator>
     <cc:Agent>
      <dc:title>Matplotlib v3.5.1, https://matplotlib.org/</dc:title>
     </cc:Agent>
    </dc:creator>
   </cc:Work>
  </rdf:RDF>
 </metadata>
 <defs>
  <style type="text/css">*{stroke-linejoin: round; stroke-linecap: butt}</style>
 </defs>
 <g id="figure_1">
  <g id="patch_1">
   <path d="M 0 345.6 
L 460.8 345.6 
L 460.8 0 
L 0 0 
z
" style="fill: #ffffff"/>
  </g>
  <g id="axes_1">
   <g id="patch_2">
    <path d="M 47.72 303.64 
L 450 303.64 
L 450 26.88 
L 47.72 26.88 
z
" style="fill: #ffffff"/>
   </g>
   <g id="matplotlib.axis_1">
    <g id="xtick_1">
     <g id="line2d_1">
      <defs>
       <path id="mc6180f7608" d="M 0 0 
L 0 3.5 
" style="stroke: #000000; stroke-width: 0.8"/>
      </defs>
      <g>
       <use xlink:href="#mc6180f7608" x="66.005455" y="303.64" style="stroke: #000000; stroke-width: 0.8"/>
      </g>
     </g>
     <g id="text_1">
      <!-- 0 -->
      <g transform="translate(62.824205 318.238437)scale(0.1 -0.1)">
       <defs>
        <path id="DejaVuSans-30" d="M 2034 4250 
Q 1547 4250 1301 3770 
Q 1056 3291 1056 2328 
Q 1056 1369 1301 889 
Q 1547 409 2034 409 
Q 2525 409 2770 889 
Q 3016 1369 3016 2328 
Q 3016 3291 2770 3770 
Q 2525 4250 2034 4250 
z
M 2034 4750 
Q 2819 4750 3233 4129 
Q 3647 3509 3647 2328 
Q 3647 1150 3233 529 
Q 2819 -91 2034 -91 
Q 1250 -91 836 529 
Q 422 1150 422 2328 
Q 422 3509 836 4129 
Q 1250 4750 2034 4750 
z
" transform="scale(0.015625)"/>
       </defs>
       <use xlink:href="#DejaVuSans-30"/>
      </g>
     </g>
    </g>
    <g id="xtick_2">
     <g id="line2d_2">
      <g>
       <use xlink:href="#mc6180f7608" x="127.160821" y="303.64" style="stroke: #000000; stroke-width: 0.8"/>
      </g>
     </g>
     <g id="text_2">
      <!-- 50 -->
      <g transform="translate(120.798321 318.238437)scale(0.1 -0.1)">
       <defs>
        <path id="DejaVuSans-35" d="M 691 4666 
L 3169 4666 
L 3169 4134 
L 1269 4134 
L 1269 2991 
Q 1406 3038 1543 3061 
Q 1681 3084 1819 3084 
Q 2600 3084 3056 2656 
Q 3513 2228 3513 1497 
Q 3513 744 3044 326 
Q 2575 -91 1722 -91 
Q 1428 -91 1123 -41 
Q 819 9 494 109 
L 494 744 
Q 775 591 1075 516 
Q 1375 441 1709 441 
Q 2250 441 2565 725 
Q 2881 1009 2881 1497 
Q 2881 1984 2565 2268 
Q 2250 2553 1709 2553 
Q 1456 2553 1204 2497 
Q 953 2441 691 2322 
L 691 4666 
z
" transform="scale(0.015625)"/>
       </defs>
       <use xlink:href="#DejaVuSans-35"/>
       <use xlink:href="#DejaVuSans-30" x="63.623047"/>
      </g>
     </g>
    </g>
    <g id="xtick_3">
     <g id="line2d_3">
      <g>
       <use xlink:href="#mc6180f7608" x="188.316187" y="303.64" style="stroke: #000000; stroke-width: 0.8"/>
      </g>
     </g>
     <g id="text_3">
      <!-- 100 -->
      <g transform="translate(178.772437 318.238437)scale(0.1 -0.1)">
       <defs>
        <path id="DejaVuSans-31" d="M 794 531 
L 1825 531 
L 1825 4091 
L 703 3866 
L 703 4441 
L 1819 4666 
L 2450 4666 
L 2450 531 
L 3481 531 
L 3481 0 
L 794 0 
L 794 531 
z
" transform="scale(0.015625)"/>
       </defs>
       <use xlink:href="#DejaVuSans-31"/>
       <use xlink:href="#DejaVuSans-30" x="63.623047"/>
       <use xlink:href="#DejaVuSans-30" x="127.246094"/>
      </g>
     </g>
    </g>
    <g id="xtick_4">
     <g id="line2d_4">
      <g>
       <use xlink:href="#mc6180f7608" x="249.471554" y="303.64" style="stroke: #000000; stroke-width: 0.8"/>
      </g>
     </g>
     <g id="text_4">
      <!-- 150 -->
      <g transform="translate(239.927804 318.238437)scale(0.1 -0.1)">
       <use xlink:href="#DejaVuSans-31"/>
       <use xlink:href="#DejaVuSans-35" x="63.623047"/>
       <use xlink:href="#DejaVuSans-30" x="127.246094"/>
      </g>
     </g>
    </g>
    <g id="xtick_5">
     <g id="line2d_5">
      <g>
       <use xlink:href="#mc6180f7608" x="310.62692" y="303.64" style="stroke: #000000; stroke-width: 0.8"/>
      </g>
     </g>
     <g id="text_5">
      <!-- 200 -->
      <g transform="translate(301.08317 318.238437)scale(0.1 -0.1)">
       <defs>
        <path id="DejaVuSans-32" d="M 1228 531 
L 3431 531 
L 3431 0 
L 469 0 
L 469 531 
Q 828 903 1448 1529 
Q 2069 2156 2228 2338 
Q 2531 2678 2651 2914 
Q 2772 3150 2772 3378 
Q 2772 3750 2511 3984 
Q 2250 4219 1831 4219 
Q 1534 4219 1204 4116 
Q 875 4013 500 3803 
L 500 4441 
Q 881 4594 1212 4672 
Q 1544 4750 1819 4750 
Q 2544 4750 2975 4387 
Q 3406 4025 3406 3419 
Q 3406 3131 3298 2873 
Q 3191 2616 2906 2266 
Q 2828 2175 2409 1742 
Q 1991 1309 1228 531 
z
" transform="scale(0.015625)"/>
       </defs>
       <use xlink:href="#DejaVuSans-32"/>
       <use xlink:href="#DejaVuSans-30" x="63.623047"/>
       <use xlink:href="#DejaVuSans-30" x="127.246094"/>
      </g>
     </g>
    </g>
    <g id="xtick_6">
     <g id="line2d_6">
      <g>
       <use xlink:href="#mc6180f7608" x="371.782286" y="303.64" style="stroke: #000000; stroke-width: 0.8"/>
      </g>
     </g>
     <g id="text_6">
      <!-- 250 -->
      <g transform="translate(362.238536 318.238437)scale(0.1 -0.1)">
       <use xlink:href="#DejaVuSans-32"/>
       <use xlink:href="#DejaVuSans-35" x="63.623047"/>
       <use xlink:href="#DejaVuSans-30" x="127.246094"/>
      </g>
     </g>
    </g>
    <g id="xtick_7">
     <g id="line2d_7">
      <g>
       <use xlink:href="#mc6180f7608" x="432.937653" y="303.64" style="stroke: #000000; stroke-width: 0.8"/>
      </g>
     </g>
     <g id="text_7">
      <!-- 300 -->
      <g transform="translate(423.393903 318.238437)scale(0.1 -0.1)">
       <defs>
        <path id="DejaVuSans-33" d="M 2597 2516 
Q 3050 2419 3304 2112 
Q 3559 1806 3559 1356 
Q 3559 666 3084 287 
Q 2609 -91 1734 -91 
Q 1441 -91 1130 -33 
Q 819 25 488 141 
L 488 750 
Q 750 597 1062 519 
Q 1375 441 1716 441 
Q 2309 441 2620 675 
Q 2931 909 2931 1356 
Q 2931 1769 2642 2001 
Q 2353 2234 1838 2234 
L 1294 2234 
L 1294 2753 
L 1863 2753 
Q 2328 2753 2575 2939 
Q 2822 3125 2822 3475 
Q 2822 3834 2567 4026 
Q 2313 4219 1838 4219 
Q 1578 4219 1281 4162 
Q 984 4106 628 3988 
L 628 4550 
Q 988 4650 1302 4700 
Q 1616 4750 1894 4750 
Q 2613 4750 3031 4423 
Q 3450 4097 3450 3541 
Q 3450 3153 3228 2886 
Q 3006 2619 2597 2516 
z
" transform="scale(0.015625)"/>
       </defs>
       <use xlink:href="#DejaVuSans-33"/>
       <use xlink:href="#DejaVuSans-30" x="63.623047"/>
       <use xlink:href="#DejaVuSans-30" x="127.246094"/>
      </g>
     </g>
    </g>
    <g id="text_8">
     <!-- number of epochs -->
     <g transform="translate(203.515469 331.916562)scale(0.1 -0.1)">
      <defs>
       <path id="DejaVuSans-6e" d="M 3513 2113 
L 3513 0 
L 2938 0 
L 2938 2094 
Q 2938 2591 2744 2837 
Q 2550 3084 2163 3084 
Q 1697 3084 1428 2787 
Q 1159 2491 1159 1978 
L 1159 0 
L 581 0 
L 581 3500 
L 1159 3500 
L 1159 2956 
Q 1366 3272 1645 3428 
Q 1925 3584 2291 3584 
Q 2894 3584 3203 3211 
Q 3513 2838 3513 2113 
z
" transform="scale(0.015625)"/>
       <path id="DejaVuSans-75" d="M 544 1381 
L 544 3500 
L 1119 3500 
L 1119 1403 
Q 1119 906 1312 657 
Q 1506 409 1894 409 
Q 2359 409 2629 706 
Q 2900 1003 2900 1516 
L 2900 3500 
L 3475 3500 
L 3475 0 
L 2900 0 
L 2900 538 
Q 2691 219 2414 64 
Q 2138 -91 1772 -91 
Q 1169 -91 856 284 
Q 544 659 544 1381 
z
M 1991 3584 
L 1991 3584 
z
" transform="scale(0.015625)"/>
       <path id="DejaVuSans-6d" d="M 3328 2828 
Q 3544 3216 3844 3400 
Q 4144 3584 4550 3584 
Q 5097 3584 5394 3201 
Q 5691 2819 5691 2113 
L 5691 0 
L 5113 0 
L 5113 2094 
Q 5113 2597 4934 2840 
Q 4756 3084 4391 3084 
Q 3944 3084 3684 2787 
Q 3425 2491 3425 1978 
L 3425 0 
L 2847 0 
L 2847 2094 
Q 2847 2600 2669 2842 
Q 2491 3084 2119 3084 
Q 1678 3084 1418 2786 
Q 1159 2488 1159 1978 
L 1159 0 
L 581 0 
L 581 3500 
L 1159 3500 
L 1159 2956 
Q 1356 3278 1631 3431 
Q 1906 3584 2284 3584 
Q 2666 3584 2933 3390 
Q 3200 3197 3328 2828 
z
" transform="scale(0.015625)"/>
       <path id="DejaVuSans-62" d="M 3116 1747 
Q 3116 2381 2855 2742 
Q 2594 3103 2138 3103 
Q 1681 3103 1420 2742 
Q 1159 2381 1159 1747 
Q 1159 1113 1420 752 
Q 1681 391 2138 391 
Q 2594 391 2855 752 
Q 3116 1113 3116 1747 
z
M 1159 2969 
Q 1341 3281 1617 3432 
Q 1894 3584 2278 3584 
Q 2916 3584 3314 3078 
Q 3713 2572 3713 1747 
Q 3713 922 3314 415 
Q 2916 -91 2278 -91 
Q 1894 -91 1617 61 
Q 1341 213 1159 525 
L 1159 0 
L 581 0 
L 581 4863 
L 1159 4863 
L 1159 2969 
z
" transform="scale(0.015625)"/>
       <path id="DejaVuSans-65" d="M 3597 1894 
L 3597 1613 
L 953 1613 
Q 991 1019 1311 708 
Q 1631 397 2203 397 
Q 2534 397 2845 478 
Q 3156 559 3463 722 
L 3463 178 
Q 3153 47 2828 -22 
Q 2503 -91 2169 -91 
Q 1331 -91 842 396 
Q 353 884 353 1716 
Q 353 2575 817 3079 
Q 1281 3584 2069 3584 
Q 2775 3584 3186 3129 
Q 3597 2675 3597 1894 
z
M 3022 2063 
Q 3016 2534 2758 2815 
Q 2500 3097 2075 3097 
Q 1594 3097 1305 2825 
Q 1016 2553 972 2059 
L 3022 2063 
z
" transform="scale(0.015625)"/>
       <path id="DejaVuSans-72" d="M 2631 2963 
Q 2534 3019 2420 3045 
Q 2306 3072 2169 3072 
Q 1681 3072 1420 2755 
Q 1159 2438 1159 1844 
L 1159 0 
L 581 0 
L 581 3500 
L 1159 3500 
L 1159 2956 
Q 1341 3275 1631 3429 
Q 1922 3584 2338 3584 
Q 2397 3584 2469 3576 
Q 2541 3569 2628 3553 
L 2631 2963 
z
" transform="scale(0.015625)"/>
       <path id="DejaVuSans-20" transform="scale(0.015625)"/>
       <path id="DejaVuSans-6f" d="M 1959 3097 
Q 1497 3097 1228 2736 
Q 959 2375 959 1747 
Q 959 1119 1226 758 
Q 1494 397 1959 397 
Q 2419 397 2687 759 
Q 2956 1122 2956 1747 
Q 2956 2369 2687 2733 
Q 2419 3097 1959 3097 
z
M 1959 3584 
Q 2709 3584 3137 3096 
Q 3566 2609 3566 1747 
Q 3566 888 3137 398 
Q 2709 -91 1959 -91 
Q 1206 -91 779 398 
Q 353 888 353 1747 
Q 353 2609 779 3096 
Q 1206 3584 1959 3584 
z
" transform="scale(0.015625)"/>
       <path id="DejaVuSans-66" d="M 2375 4863 
L 2375 4384 
L 1825 4384 
Q 1516 4384 1395 4259 
Q 1275 4134 1275 3809 
L 1275 3500 
L 2222 3500 
L 2222 3053 
L 1275 3053 
L 1275 0 
L 697 0 
L 697 3053 
L 147 3053 
L 147 3500 
L 697 3500 
L 697 3744 
Q 697 4328 969 4595 
Q 1241 4863 1831 4863 
L 2375 4863 
z
" transform="scale(0.015625)"/>
       <path id="DejaVuSans-70" d="M 1159 525 
L 1159 -1331 
L 581 -1331 
L 581 3500 
L 1159 3500 
L 1159 2969 
Q 1341 3281 1617 3432 
Q 1894 3584 2278 3584 
Q 2916 3584 3314 3078 
Q 3713 2572 3713 1747 
Q 3713 922 3314 415 
Q 2916 -91 2278 -91 
Q 1894 -91 1617 61 
Q 1341 213 1159 525 
z
M 3116 1747 
Q 3116 2381 2855 2742 
Q 2594 3103 2138 3103 
Q 1681 3103 1420 2742 
Q 1159 2381 1159 1747 
Q 1159 1113 1420 752 
Q 1681 391 2138 391 
Q 2594 391 2855 752 
Q 3116 1113 3116 1747 
z
" transform="scale(0.015625)"/>
       <path id="DejaVuSans-63" d="M 3122 3366 
L 3122 2828 
Q 2878 2963 2633 3030 
Q 2388 3097 2138 3097 
Q 1578 3097 1268 2742 
Q 959 2388 959 1747 
Q 959 1106 1268 751 
Q 1578 397 2138 397 
Q 2388 397 2633 464 
Q 2878 531 3122 666 
L 3122 134 
Q 2881 22 2623 -34 
Q 2366 -91 2075 -91 
Q 1284 -91 818 406 
Q 353 903 353 1747 
Q 353 2603 823 3093 
Q 1294 3584 2113 3584 
Q 2378 3584 2631 3529 
Q 2884 3475 3122 3366 
z
" transform="scale(0.015625)"/>
       <path id="DejaVuSans-68" d="M 3513 2113 
L 3513 0 
L 2938 0 
L 2938 2094 
Q 2938 2591 2744 2837 
Q 2550 3084 2163 3084 
Q 1697 3084 1428 2787 
Q 1159 2491 1159 1978 
L 1159 0 
L 581 0 
L 581 4863 
L 1159 4863 
L 1159 2956 
Q 1366 3272 1645 3428 
Q 1925 3584 2291 3584 
Q 2894 3584 3203 3211 
Q 3513 2838 3513 2113 
z
" transform="scale(0.015625)"/>
       <path id="DejaVuSans-73" d="M 2834 3397 
L 2834 2853 
Q 2591 2978 2328 3040 
Q 2066 3103 1784 3103 
Q 1356 3103 1142 2972 
Q 928 2841 928 2578 
Q 928 2378 1081 2264 
Q 1234 2150 1697 2047 
L 1894 2003 
Q 2506 1872 2764 1633 
Q 3022 1394 3022 966 
Q 3022 478 2636 193 
Q 2250 -91 1575 -91 
Q 1294 -91 989 -36 
Q 684 19 347 128 
L 347 722 
Q 666 556 975 473 
Q 1284 391 1588 391 
Q 1994 391 2212 530 
Q 2431 669 2431 922 
Q 2431 1156 2273 1281 
Q 2116 1406 1581 1522 
L 1381 1569 
Q 847 1681 609 1914 
Q 372 2147 372 2553 
Q 372 3047 722 3315 
Q 1072 3584 1716 3584 
Q 2034 3584 2315 3537 
Q 2597 3491 2834 3397 
z
" transform="scale(0.015625)"/>
      </defs>
      <use xlink:href="#DejaVuSans-6e"/>
      <use xlink:href="#DejaVuSans-75" x="63.378906"/>
      <use xlink:href="#DejaVuSans-6d" x="126.757812"/>
      <use xlink:href="#DejaVuSans-62" x="224.169922"/>
      <use xlink:href="#DejaVuSans-65" x="287.646484"/>
      <use xlink:href="#DejaVuSans-72" x="349.169922"/>
      <use xlink:href="#DejaVuSans-20" x="390.283203"/>
      <use xlink:href="#DejaVuSans-6f" x="422.070312"/>
      <use xlink:href="#DejaVuSans-66" x="483.251953"/>
      <use xlink:href="#DejaVuSans-20" x="518.457031"/>
      <use xlink:href="#DejaVuSans-65" x="550.244141"/>
      <use xlink:href="#DejaVuSans-70" x="611.767578"/>
      <use xlink:href="#DejaVuSans-6f" x="675.244141"/>
      <use xlink:href="#DejaVuSans-63" x="736.425781"/>
      <use xlink:href="#DejaVuSans-68" x="791.40625"/>
      <use xlink:href="#DejaVuSans-73" x="854.785156"/>
     </g>
    </g>
   </g>
   <g id="matplotlib.axis_2">
    <g id="ytick_1">
     <g id="line2d_8">
      <defs>
       <path id="m676fbceba2" d="M 0 0 
L -3.5 0 
" style="stroke: #000000; stroke-width: 0.8"/>
      </defs>
      <g>
       <use xlink:href="#m676fbceba2" x="47.72" y="291.433722" style="stroke: #000000; stroke-width: 0.8"/>
      </g>
     </g>
     <g id="text_9">
      <!-- 0.0 -->
      <g transform="translate(24.816875 295.23294)scale(0.1 -0.1)">
       <defs>
        <path id="DejaVuSans-2e" d="M 684 794 
L 1344 794 
L 1344 0 
L 684 0 
L 684 794 
z
" transform="scale(0.015625)"/>
       </defs>
       <use xlink:href="#DejaVuSans-30"/>
       <use xlink:href="#DejaVuSans-2e" x="63.623047"/>
       <use xlink:href="#DejaVuSans-30" x="95.410156"/>
      </g>
     </g>
    </g>
    <g id="ytick_2">
     <g id="line2d_9">
      <g>
       <use xlink:href="#m676fbceba2" x="47.72" y="238.198331" style="stroke: #000000; stroke-width: 0.8"/>
      </g>
     </g>
     <g id="text_10">
      <!-- 0.1 -->
      <g transform="translate(24.816875 241.99755)scale(0.1 -0.1)">
       <use xlink:href="#DejaVuSans-30"/>
       <use xlink:href="#DejaVuSans-2e" x="63.623047"/>
       <use xlink:href="#DejaVuSans-31" x="95.410156"/>
      </g>
     </g>
    </g>
    <g id="ytick_3">
     <g id="line2d_10">
      <g>
       <use xlink:href="#m676fbceba2" x="47.72" y="184.962941" style="stroke: #000000; stroke-width: 0.8"/>
      </g>
     </g>
     <g id="text_11">
      <!-- 0.2 -->
      <g transform="translate(24.816875 188.76216)scale(0.1 -0.1)">
       <use xlink:href="#DejaVuSans-30"/>
       <use xlink:href="#DejaVuSans-2e" x="63.623047"/>
       <use xlink:href="#DejaVuSans-32" x="95.410156"/>
      </g>
     </g>
    </g>
    <g id="ytick_4">
     <g id="line2d_11">
      <g>
       <use xlink:href="#m676fbceba2" x="47.72" y="131.727551" style="stroke: #000000; stroke-width: 0.8"/>
      </g>
     </g>
     <g id="text_12">
      <!-- 0.3 -->
      <g transform="translate(24.816875 135.526769)scale(0.1 -0.1)">
       <use xlink:href="#DejaVuSans-30"/>
       <use xlink:href="#DejaVuSans-2e" x="63.623047"/>
       <use xlink:href="#DejaVuSans-33" x="95.410156"/>
      </g>
     </g>
    </g>
    <g id="ytick_5">
     <g id="line2d_12">
      <g>
       <use xlink:href="#m676fbceba2" x="47.72" y="78.49216" style="stroke: #000000; stroke-width: 0.8"/>
      </g>
     </g>
     <g id="text_13">
      <!-- 0.4 -->
      <g transform="translate(24.816875 82.291379)scale(0.1 -0.1)">
       <defs>
        <path id="DejaVuSans-34" d="M 2419 4116 
L 825 1625 
L 2419 1625 
L 2419 4116 
z
M 2253 4666 
L 3047 4666 
L 3047 1625 
L 3713 1625 
L 3713 1100 
L 3047 1100 
L 3047 0 
L 2419 0 
L 2419 1100 
L 313 1100 
L 313 1709 
L 2253 4666 
z
" transform="scale(0.015625)"/>
       </defs>
       <use xlink:href="#DejaVuSans-30"/>
       <use xlink:href="#DejaVuSans-2e" x="63.623047"/>
       <use xlink:href="#DejaVuSans-34" x="95.410156"/>
      </g>
     </g>
    </g>
    <g id="text_14">
     <!-- metrics -->
     <g transform="translate(18.737188 183.965469)rotate(-90)scale(0.1 -0.1)">
      <defs>
       <path id="DejaVuSans-74" d="M 1172 4494 
L 1172 3500 
L 2356 3500 
L 2356 3053 
L 1172 3053 
L 1172 1153 
Q 1172 725 1289 603 
Q 1406 481 1766 481 
L 2356 481 
L 2356 0 
L 1766 0 
Q 1100 0 847 248 
Q 594 497 594 1153 
L 594 3053 
L 172 3053 
L 172 3500 
L 594 3500 
L 594 4494 
L 1172 4494 
z
" transform="scale(0.015625)"/>
       <path id="DejaVuSans-69" d="M 603 3500 
L 1178 3500 
L 1178 0 
L 603 0 
L 603 3500 
z
M 603 4863 
L 1178 4863 
L 1178 4134 
L 603 4134 
L 603 4863 
z
" transform="scale(0.015625)"/>
      </defs>
      <use xlink:href="#DejaVuSans-6d"/>
      <use xlink:href="#DejaVuSans-65" x="97.412109"/>
      <use xlink:href="#DejaVuSans-74" x="158.935547"/>
      <use xlink:href="#DejaVuSans-72" x="198.144531"/>
      <use xlink:href="#DejaVuSans-69" x="239.257812"/>
      <use xlink:href="#DejaVuSans-63" x="267.041016"/>
      <use xlink:href="#DejaVuSans-73" x="322.021484"/>
     </g>
    </g>
   </g>
   <g id="line2d_13">
    <path d="M 66.005455 276.309152 
L 67.228562 291.06 
L 68.451669 290.919523 
L 69.674777 289.345424 
L 70.897884 287.406921 
L 72.120991 284.522136 
L 73.344099 281.925956 
L 75.790313 278.333319 
L 78.236528 273.619614 
L 81.90585 265.947345 
L 84.352064 259.796637 
L 86.798279 252.472745 
L 89.244494 244.12908 
L 92.913816 230.619037 
L 95.36003 221.345736 
L 100.25246 203.659309 
L 103.921782 191.498351 
L 106.367996 184.344673 
L 110.037318 175.336373 
L 112.483533 170.049979 
L 114.929748 165.280211 
L 118.59907 159.152714 
L 121.045284 155.700455 
L 124.714606 151.22437 
L 128.383928 147.239526 
L 133.276358 142.612149 
L 139.391894 137.637907 
L 143.061216 134.903334 
L 151.622967 129.241566 
L 161.407826 123.709354 
L 167.523363 120.494774 
L 182.200651 113.993061 
L 185.869973 112.571364 
L 190.762402 110.891077 
L 193.208617 109.948499 
L 202.993475 106.496858 
L 205.43969 105.734574 
L 207.885905 104.904291 
L 218.89387 101.537641 
L 226.232514 99.434319 
L 239.686695 95.576065 
L 256.810198 90.694255 
L 259.256412 90.08431 
L 264.148842 88.701896 
L 282.495452 84.016737 
L 288.610988 82.497119 
L 291.057203 81.878798 
L 299.618954 79.78187 
L 324.081101 74.452275 
L 325.304208 74.2637 
L 327.750423 74.149009 
L 328.97353 74.265064 
L 330.196637 73.816819 
L 331.419745 71.715783 
L 332.642852 70.530305 
L 333.865959 69.682031 
L 335.089067 69.600039 
L 337.535281 69.660644 
L 339.981496 69.301389 
L 347.32014 67.738252 
L 349.766355 67.29199 
L 364.443642 64.278155 
L 371.782286 62.496726 
L 391.352004 58.074853 
L 395.021326 57.173129 
L 409.698614 53.797372 
L 412.144828 53.294963 
L 415.81415 52.388859 
L 421.929687 51.066099 
L 429.268331 49.308468 
L 431.714545 48.772091 
L 431.714545 48.772091 
" clip-path="url(#pc640f73cfb)" style="fill: none; stroke: #1f77b4; stroke-width: 1.5; stroke-linecap: square"/>
   </g>
   <g id="line2d_14">
    <path d="M 66.005455 264.664268 
L 67.228562 261.909708 
L 68.451669 258.383173 
L 69.674777 255.385871 
L 70.897884 252.975816 
L 72.120991 251.075322 
L 73.344099 249.744688 
L 77.01342 246.281969 
L 78.236528 244.972885 
L 80.682742 242.793854 
L 83.128957 240.90347 
L 86.798279 238.389314 
L 91.690708 235.307888 
L 97.806245 231.739097 
L 103.921782 228.41292 
L 108.814211 225.968782 
L 113.70664 223.795383 
L 118.59907 221.930122 
L 123.491499 220.352095 
L 128.383928 218.995431 
L 134.499465 217.527082 
L 141.838109 216.001498 
L 151.622967 214.226535 
L 162.630933 212.471847 
L 174.862007 210.761448 
L 188.316187 209.124878 
L 204.216583 207.440538 
L 222.563192 205.729924 
L 244.579124 203.914893 
L 270.264378 202.040493 
L 308.180705 199.57245 
L 319.188671 199.046854 
L 325.304208 198.931584 
L 328.97353 199.001772 
L 330.196637 198.660849 
L 331.419745 198.027646 
L 333.865959 197.701438 
L 347.32014 197.03437 
L 360.77432 196.226853 
L 398.690648 194.225777 
L 431.714545 192.578077 
L 431.714545 192.578077 
" clip-path="url(#pc640f73cfb)" style="fill: none; stroke: #ff7f0e; stroke-width: 1.5; stroke-linecap: square"/>
   </g>
   <g id="line2d_15">
    <path d="M 66.005455 199.589759 
L 67.228562 208.251108 
L 68.451669 198.79227 
L 69.674777 187.695101 
L 70.897884 181.620857 
L 72.120991 176.609839 
L 73.344099 172.906113 
L 75.790313 166.745157 
L 80.682742 155.555255 
L 83.128957 150.898908 
L 86.798279 144.871681 
L 91.690708 137.33069 
L 96.583138 130.21367 
L 101.475567 123.481797 
L 106.367996 117.157459 
L 110.037318 112.784722 
L 113.70664 108.826102 
L 117.375962 105.324422 
L 121.045284 102.263593 
L 124.714606 99.582978 
L 128.383928 97.200664 
L 132.05325 95.059329 
L 136.94568 92.500767 
L 141.838109 90.202571 
L 147.953645 87.597126 
L 154.069182 85.221412 
L 161.407826 82.60521 
L 168.74647 80.213012 
L 177.308221 77.672091 
L 185.869973 75.366978 
L 195.654831 72.971385 
L 206.662797 70.513139 
L 218.89387 68.007662 
L 232.348051 65.473944 
L 247.025339 62.915429 
L 265.371949 59.964865 
L 286.164773 56.880063 
L 305.734491 54.169812 
L 317.965564 52.690936 
L 325.304208 51.977247 
L 328.97353 51.86611 
L 330.196637 51.86949 
L 331.419745 51.095338 
L 333.865959 50.05165 
L 335.089067 49.855221 
L 337.535281 49.697551 
L 344.873925 48.810089 
L 357.104998 47.416648 
L 404.806184 42.251213 
L 431.714545 39.46 
L 431.714545 39.46 
" clip-path="url(#pc640f73cfb)" style="fill: none; stroke: #2ca02c; stroke-width: 1.5; stroke-linecap: square"/>
   </g>
   <g id="line2d_16">
    <path d="M 66.005455 249.086961 
L 67.228562 248.050694 
L 68.451669 243.750334 
L 70.897884 237.053671 
L 72.120991 234.613611 
L 73.344099 233.025768 
L 75.790313 230.645254 
L 77.01342 228.9932 
L 78.236528 227.030624 
L 81.90585 222.844872 
L 85.575172 219.262524 
L 89.244494 216.107376 
L 92.913816 213.273628 
L 97.806245 209.80179 
L 102.698674 206.585901 
L 107.591104 203.649457 
L 111.260426 201.663658 
L 114.929748 199.878097 
L 118.59907 198.293454 
L 123.491499 196.464818 
L 128.383928 194.888616 
L 134.499465 193.179391 
L 141.838109 191.402548 
L 150.39986 189.581146 
L 160.184719 187.736462 
L 171.192685 185.902265 
L 182.200651 184.286757 
L 195.654831 182.552496 
L 211.555227 180.753766 
L 229.901836 178.91876 
L 251.917768 176.968667 
L 275.156808 175.146408 
L 311.850027 172.570275 
L 320.411779 172.164898 
L 325.304208 172.107386 
L 328.97353 172.315136 
L 330.196637 171.850137 
L 331.419745 171.163166 
L 335.089067 170.86458 
L 338.758389 170.779406 
L 346.097033 170.256935 
L 358.328106 169.403164 
L 385.236467 167.81093 
L 431.714545 165.295695 
L 431.714545 165.295695 
" clip-path="url(#pc640f73cfb)" style="fill: none; stroke: #d62728; stroke-width: 1.5; stroke-linecap: square"/>
   </g>
   <g id="line2d_17">
    <path d="M 66.005455 240.624774 
L 67.228562 235.60672 
L 68.451669 229.325655 
L 69.674777 224.050919 
L 70.897884 219.839223 
L 72.120991 216.539866 
L 73.344099 214.240655 
L 80.682742 202.463242 
L 83.128957 199.312242 
L 86.798279 195.153187 
L 91.690708 190.098461 
L 96.583138 185.426589 
L 101.475567 181.053265 
L 106.367996 176.982731 
L 110.037318 174.189329 
L 113.70664 171.665694 
L 117.375962 169.428001 
L 121.045284 167.464327 
L 124.714606 165.733905 
L 129.607036 163.705794 
L 134.499465 161.925024 
L 140.615002 159.955796 
L 147.953645 157.854704 
L 156.515397 155.664202 
L 165.077148 153.690057 
L 174.862007 151.664682 
L 184.646865 149.851507 
L 196.877939 147.830337 
L 210.332119 145.841992 
L 226.232514 143.726977 
L 244.579124 141.530653 
L 265.371949 139.288272 
L 288.610988 137.024456 
L 309.403813 135.118294 
L 319.188671 134.451678 
L 324.081101 134.274732 
L 326.527315 134.313316 
L 328.97353 134.390073 
L 330.196637 133.934514 
L 331.419745 133.044165 
L 333.865959 132.55962 
L 336.312174 132.490812 
L 339.981496 132.283674 
L 377.897823 129.122956 
L 418.260365 126.216069 
L 431.714545 125.28109 
L 431.714545 125.28109 
" clip-path="url(#pc640f73cfb)" style="fill: none; stroke: #9467bd; stroke-width: 1.5; stroke-linecap: square"/>
   </g>
   <g id="line2d_18">
    <path d="M 66.005455 272.696814 
L 67.228562 274.060372 
L 68.451669 274.399667 
L 69.674777 275.678145 
L 70.897884 276.346464 
L 73.344099 277.329623 
L 75.790313 277.882781 
L 79.459635 278.578484 
L 81.90585 278.948224 
L 86.798279 279.333392 
L 96.583138 279.826055 
L 110.037318 280.250234 
L 132.05325 280.639297 
L 176.085114 281.153805 
L 242.13291 281.655577 
L 320.411779 282.059715 
L 326.527315 281.952892 
L 328.97353 281.891673 
L 332.642852 282.171512 
L 339.981496 282.119851 
L 368.112964 282.367894 
L 431.714545 282.782303 
L 431.714545 282.782303 
" clip-path="url(#pc640f73cfb)" style="fill: none; stroke: #8c564b; stroke-width: 1.5; stroke-linecap: square"/>
   </g>
   <g id="line2d_19">
    <path d="M 66.005455 220.950776 
L 431.714545 220.950776 
L 431.714545 220.950776 
" clip-path="url(#pc640f73cfb)" style="fill: none; stroke: #e377c2; stroke-width: 1.5; stroke-linecap: square"/>
   </g>
   <g id="line2d_20">
    <path d="M 66.005455 273.045364 
L 67.228562 273.351969 
L 68.451669 275.773401 
L 69.674777 275.439488 
L 70.897884 275.877809 
L 73.344099 276.414889 
L 75.790313 276.661056 
L 79.459635 276.756369 
L 88.021386 276.722941 
L 116.152855 276.882405 
L 163.854041 276.924499 
L 324.081101 277.011523 
L 327.750423 277.007186 
L 330.196637 277.292317 
L 335.089067 277.197147 
L 391.352004 277.226439 
L 431.714545 277.163808 
L 431.714545 277.163808 
" clip-path="url(#pc640f73cfb)" style="fill: none; stroke: #7f7f7f; stroke-width: 1.5; stroke-linecap: square"/>
   </g>
   <g id="line2d_21">
    <path d="M 66.005455 259.824965 
L 67.228562 261.403146 
L 68.451669 263.437443 
L 70.897884 265.457325 
L 73.344099 266.816439 
L 74.567206 267.244901 
L 78.236528 268.083329 
L 81.90585 268.655334 
L 86.798279 269.028704 
L 95.36003 269.511235 
L 110.037318 270.043878 
L 127.160821 270.395709 
L 167.523363 270.917795 
L 231.124944 271.508403 
L 313.073135 272.037284 
L 322.857993 271.963962 
L 327.750423 271.795944 
L 331.419745 272.197738 
L 347.32014 272.264246 
L 363.220535 272.408923 
L 431.714545 272.793363 
L 431.714545 272.793363 
" clip-path="url(#pc640f73cfb)" style="fill: none; stroke: #bcbd22; stroke-width: 1.5; stroke-linecap: square"/>
   </g>
   <g id="patch_3">
    <path d="M 47.72 303.64 
L 47.72 26.88 
" style="fill: none; stroke: #000000; stroke-width: 0.8; stroke-linejoin: miter; stroke-linecap: square"/>
   </g>
   <g id="patch_4">
    <path d="M 450 303.64 
L 450 26.88 
" style="fill: none; stroke: #000000; stroke-width: 0.8; stroke-linejoin: miter; stroke-linecap: square"/>
   </g>
   <g id="patch_5">
    <path d="M 47.72 303.64 
L 450 303.64 
" style="fill: none; stroke: #000000; stroke-width: 0.8; stroke-linejoin: miter; stroke-linecap: square"/>
   </g>
   <g id="patch_6">
    <path d="M 47.72 26.88 
L 450 26.88 
" style="fill: none; stroke: #000000; stroke-width: 0.8; stroke-linejoin: miter; stroke-linecap: square"/>
   </g>
   <g id="text_15">
    <!-- Metrics of training -->
    <g transform="translate(194.240312 20.88)scale(0.12 -0.12)">
     <defs>
      <path id="DejaVuSans-4d" d="M 628 4666 
L 1569 4666 
L 2759 1491 
L 3956 4666 
L 4897 4666 
L 4897 0 
L 4281 0 
L 4281 4097 
L 3078 897 
L 2444 897 
L 1241 4097 
L 1241 0 
L 628 0 
L 628 4666 
z
" transform="scale(0.015625)"/>
      <path id="DejaVuSans-61" d="M 2194 1759 
Q 1497 1759 1228 1600 
Q 959 1441 959 1056 
Q 959 750 1161 570 
Q 1363 391 1709 391 
Q 2188 391 2477 730 
Q 2766 1069 2766 1631 
L 2766 1759 
L 2194 1759 
z
M 3341 1997 
L 3341 0 
L 2766 0 
L 2766 531 
Q 2569 213 2275 61 
Q 1981 -91 1556 -91 
Q 1019 -91 701 211 
Q 384 513 384 1019 
Q 384 1609 779 1909 
Q 1175 2209 1959 2209 
L 2766 2209 
L 2766 2266 
Q 2766 2663 2505 2880 
Q 2244 3097 1772 3097 
Q 1472 3097 1187 3025 
Q 903 2953 641 2809 
L 641 3341 
Q 956 3463 1253 3523 
Q 1550 3584 1831 3584 
Q 2591 3584 2966 3190 
Q 3341 2797 3341 1997 
z
" transform="scale(0.015625)"/>
      <path id="DejaVuSans-67" d="M 2906 1791 
Q 2906 2416 2648 2759 
Q 2391 3103 1925 3103 
Q 1463 3103 1205 2759 
Q 947 2416 947 1791 
Q 947 1169 1205 825 
Q 1463 481 1925 481 
Q 2391 481 2648 825 
Q 2906 1169 2906 1791 
z
M 3481 434 
Q 3481 -459 3084 -895 
Q 2688 -1331 1869 -1331 
Q 1566 -1331 1297 -1286 
Q 1028 -1241 775 -1147 
L 775 -588 
Q 1028 -725 1275 -790 
Q 1522 -856 1778 -856 
Q 2344 -856 2625 -561 
Q 2906 -266 2906 331 
L 2906 616 
Q 2728 306 2450 153 
Q 2172 0 1784 0 
Q 1141 0 747 490 
Q 353 981 353 1791 
Q 353 2603 747 3093 
Q 1141 3584 1784 3584 
Q 2172 3584 2450 3431 
Q 2728 3278 2906 2969 
L 2906 3500 
L 3481 3500 
L 3481 434 
z
" transform="scale(0.015625)"/>
     </defs>
     <use xlink:href="#DejaVuSans-4d"/>
     <use xlink:href="#DejaVuSans-65" x="86.279297"/>
     <use xlink:href="#DejaVuSans-74" x="147.802734"/>
     <use xlink:href="#DejaVuSans-72" x="187.011719"/>
     <use xlink:href="#DejaVuSans-69" x="228.125"/>
     <use xlink:href="#DejaVuSans-63" x="255.908203"/>
     <use xlink:href="#DejaVuSans-73" x="310.888672"/>
     <use xlink:href="#DejaVuSans-20" x="362.988281"/>
     <use xlink:href="#DejaVuSans-6f" x="394.775391"/>
     <use xlink:href="#DejaVuSans-66" x="455.957031"/>
     <use xlink:href="#DejaVuSans-20" x="491.162109"/>
     <use xlink:href="#DejaVuSans-74" x="522.949219"/>
     <use xlink:href="#DejaVuSans-72" x="562.158203"/>
     <use xlink:href="#DejaVuSans-61" x="603.271484"/>
     <use xlink:href="#DejaVuSans-69" x="664.550781"/>
     <use xlink:href="#DejaVuSans-6e" x="692.333984"/>
     <use xlink:href="#DejaVuSans-69" x="755.712891"/>
     <use xlink:href="#DejaVuSans-6e" x="783.496094"/>
     <use xlink:href="#DejaVuSans-67" x="846.875"/>
    </g>
   </g>
   <g id="legend_1">
    <g id="patch_7">
     <path d="M 54.72 168.37375 
L 153.185625 168.37375 
Q 155.185625 168.37375 155.185625 166.37375 
L 155.185625 33.88 
Q 155.185625 31.88 153.185625 31.88 
L 54.72 31.88 
Q 52.72 31.88 52.72 33.88 
L 52.72 166.37375 
Q 52.72 168.37375 54.72 168.37375 
z
" style="fill: #ffffff; opacity: 0.8; stroke: #cccccc; stroke-linejoin: miter"/>
    </g>
    <g id="line2d_22">
     <path d="M 56.72 39.978437 
L 66.72 39.978437 
L 76.72 39.978437 
" style="fill: none; stroke: #1f77b4; stroke-width: 1.5; stroke-linecap: square"/>
    </g>
    <g id="text_16">
     <!-- iou_binarized -->
     <g transform="translate(84.72 43.478437)scale(0.1 -0.1)">
      <defs>
       <path id="DejaVuSans-5f" d="M 3263 -1063 
L 3263 -1509 
L -63 -1509 
L -63 -1063 
L 3263 -1063 
z
" transform="scale(0.015625)"/>
       <path id="DejaVuSans-7a" d="M 353 3500 
L 3084 3500 
L 3084 2975 
L 922 459 
L 3084 459 
L 3084 0 
L 275 0 
L 275 525 
L 2438 3041 
L 353 3041 
L 353 3500 
z
" transform="scale(0.015625)"/>
       <path id="DejaVuSans-64" d="M 2906 2969 
L 2906 4863 
L 3481 4863 
L 3481 0 
L 2906 0 
L 2906 525 
Q 2725 213 2448 61 
Q 2172 -91 1784 -91 
Q 1150 -91 751 415 
Q 353 922 353 1747 
Q 353 2572 751 3078 
Q 1150 3584 1784 3584 
Q 2172 3584 2448 3432 
Q 2725 3281 2906 2969 
z
M 947 1747 
Q 947 1113 1208 752 
Q 1469 391 1925 391 
Q 2381 391 2643 752 
Q 2906 1113 2906 1747 
Q 2906 2381 2643 2742 
Q 2381 3103 1925 3103 
Q 1469 3103 1208 2742 
Q 947 2381 947 1747 
z
" transform="scale(0.015625)"/>
      </defs>
      <use xlink:href="#DejaVuSans-69"/>
      <use xlink:href="#DejaVuSans-6f" x="27.783203"/>
      <use xlink:href="#DejaVuSans-75" x="88.964844"/>
      <use xlink:href="#DejaVuSans-5f" x="152.34375"/>
      <use xlink:href="#DejaVuSans-62" x="202.34375"/>
      <use xlink:href="#DejaVuSans-69" x="265.820312"/>
      <use xlink:href="#DejaVuSans-6e" x="293.603516"/>
      <use xlink:href="#DejaVuSans-61" x="356.982422"/>
      <use xlink:href="#DejaVuSans-72" x="418.261719"/>
      <use xlink:href="#DejaVuSans-69" x="459.375"/>
      <use xlink:href="#DejaVuSans-7a" x="487.158203"/>
      <use xlink:href="#DejaVuSans-65" x="539.648438"/>
      <use xlink:href="#DejaVuSans-64" x="601.171875"/>
     </g>
    </g>
    <g id="line2d_23">
     <path d="M 56.72 54.934687 
L 66.72 54.934687 
L 76.72 54.934687 
" style="fill: none; stroke: #ff7f0e; stroke-width: 1.5; stroke-linecap: square"/>
    </g>
    <g id="text_17">
     <!-- iou -->
     <g transform="translate(84.72 58.434687)scale(0.1 -0.1)">
      <use xlink:href="#DejaVuSans-69"/>
      <use xlink:href="#DejaVuSans-6f" x="27.783203"/>
      <use xlink:href="#DejaVuSans-75" x="88.964844"/>
     </g>
    </g>
    <g id="line2d_24">
     <path d="M 56.72 69.612812 
L 66.72 69.612812 
L 76.72 69.612812 
" style="fill: none; stroke: #2ca02c; stroke-width: 1.5; stroke-linecap: square"/>
    </g>
    <g id="text_18">
     <!-- recall -->
     <g transform="translate(84.72 73.112812)scale(0.1 -0.1)">
      <defs>
       <path id="DejaVuSans-6c" d="M 603 4863 
L 1178 4863 
L 1178 0 
L 603 0 
L 603 4863 
z
" transform="scale(0.015625)"/>
      </defs>
      <use xlink:href="#DejaVuSans-72"/>
      <use xlink:href="#DejaVuSans-65" x="38.863281"/>
      <use xlink:href="#DejaVuSans-63" x="100.386719"/>
      <use xlink:href="#DejaVuSans-61" x="155.367188"/>
      <use xlink:href="#DejaVuSans-6c" x="216.646484"/>
      <use xlink:href="#DejaVuSans-6c" x="244.429688"/>
     </g>
    </g>
    <g id="line2d_25">
     <path d="M 56.72 84.290937 
L 66.72 84.290937 
L 76.72 84.290937 
" style="fill: none; stroke: #d62728; stroke-width: 1.5; stroke-linecap: square"/>
    </g>
    <g id="text_19">
     <!-- precision -->
     <g transform="translate(84.72 87.790937)scale(0.1 -0.1)">
      <use xlink:href="#DejaVuSans-70"/>
      <use xlink:href="#DejaVuSans-72" x="63.476562"/>
      <use xlink:href="#DejaVuSans-65" x="102.339844"/>
      <use xlink:href="#DejaVuSans-63" x="163.863281"/>
      <use xlink:href="#DejaVuSans-69" x="218.84375"/>
      <use xlink:href="#DejaVuSans-73" x="246.626953"/>
      <use xlink:href="#DejaVuSans-69" x="298.726562"/>
      <use xlink:href="#DejaVuSans-6f" x="326.509766"/>
      <use xlink:href="#DejaVuSans-6e" x="387.691406"/>
     </g>
    </g>
    <g id="line2d_26">
     <path d="M 56.72 98.969062 
L 66.72 98.969062 
L 76.72 98.969062 
" style="fill: none; stroke: #9467bd; stroke-width: 1.5; stroke-linecap: square"/>
    </g>
    <g id="text_20">
     <!-- F1_score -->
     <g transform="translate(84.72 102.469062)scale(0.1 -0.1)">
      <defs>
       <path id="DejaVuSans-46" d="M 628 4666 
L 3309 4666 
L 3309 4134 
L 1259 4134 
L 1259 2759 
L 3109 2759 
L 3109 2228 
L 1259 2228 
L 1259 0 
L 628 0 
L 628 4666 
z
" transform="scale(0.015625)"/>
      </defs>
      <use xlink:href="#DejaVuSans-46"/>
      <use xlink:href="#DejaVuSans-31" x="57.519531"/>
      <use xlink:href="#DejaVuSans-5f" x="121.142578"/>
      <use xlink:href="#DejaVuSans-73" x="171.142578"/>
      <use xlink:href="#DejaVuSans-63" x="223.242188"/>
      <use xlink:href="#DejaVuSans-6f" x="278.222656"/>
      <use xlink:href="#DejaVuSans-72" x="339.404297"/>
      <use xlink:href="#DejaVuSans-65" x="378.267578"/>
     </g>
    </g>
    <g id="line2d_27">
     <path d="M 56.72 113.925312 
L 66.72 113.925312 
L 76.72 113.925312 
" style="fill: none; stroke: #8c564b; stroke-width: 1.5; stroke-linecap: square"/>
    </g>
    <g id="text_21">
     <!-- s_loss -->
     <g transform="translate(84.72 117.425312)scale(0.1 -0.1)">
      <use xlink:href="#DejaVuSans-73"/>
      <use xlink:href="#DejaVuSans-5f" x="52.099609"/>
      <use xlink:href="#DejaVuSans-6c" x="102.099609"/>
      <use xlink:href="#DejaVuSans-6f" x="129.882812"/>
      <use xlink:href="#DejaVuSans-73" x="191.064453"/>
      <use xlink:href="#DejaVuSans-73" x="243.164062"/>
     </g>
    </g>
    <g id="line2d_28">
     <path d="M 56.72 128.881562 
L 66.72 128.881562 
L 76.72 128.881562 
" style="fill: none; stroke: #e377c2; stroke-width: 1.5; stroke-linecap: square"/>
    </g>
    <g id="text_22">
     <!-- t_loss -->
     <g transform="translate(84.72 132.381562)scale(0.1 -0.1)">
      <use xlink:href="#DejaVuSans-74"/>
      <use xlink:href="#DejaVuSans-5f" x="39.208984"/>
      <use xlink:href="#DejaVuSans-6c" x="89.208984"/>
      <use xlink:href="#DejaVuSans-6f" x="116.992188"/>
      <use xlink:href="#DejaVuSans-73" x="178.173828"/>
      <use xlink:href="#DejaVuSans-73" x="230.273438"/>
     </g>
    </g>
    <g id="line2d_29">
     <path d="M 56.72 143.837812 
L 66.72 143.837812 
L 76.72 143.837812 
" style="fill: none; stroke: #7f7f7f; stroke-width: 1.5; stroke-linecap: square"/>
    </g>
    <g id="text_23">
     <!-- dist_loss -->
     <g transform="translate(84.72 147.337812)scale(0.1 -0.1)">
      <use xlink:href="#DejaVuSans-64"/>
      <use xlink:href="#DejaVuSans-69" x="63.476562"/>
      <use xlink:href="#DejaVuSans-73" x="91.259766"/>
      <use xlink:href="#DejaVuSans-74" x="143.359375"/>
      <use xlink:href="#DejaVuSans-5f" x="182.568359"/>
      <use xlink:href="#DejaVuSans-6c" x="232.568359"/>
      <use xlink:href="#DejaVuSans-6f" x="260.351562"/>
      <use xlink:href="#DejaVuSans-73" x="321.533203"/>
      <use xlink:href="#DejaVuSans-73" x="373.632812"/>
     </g>
    </g>
    <g id="line2d_30">
     <path d="M 56.72 158.794062 
L 66.72 158.794062 
L 76.72 158.794062 
" style="fill: none; stroke: #bcbd22; stroke-width: 1.5; stroke-linecap: square"/>
    </g>
    <g id="text_24">
     <!-- loss -->
     <g transform="translate(84.72 162.294062)scale(0.1 -0.1)">
      <use xlink:href="#DejaVuSans-6c"/>
      <use xlink:href="#DejaVuSans-6f" x="27.783203"/>
      <use xlink:href="#DejaVuSans-73" x="88.964844"/>
      <use xlink:href="#DejaVuSans-73" x="141.064453"/>
     </g>
    </g>
   </g>
  </g>
 </g>
 <defs>
  <clipPath id="pc640f73cfb">
   <rect x="47.72" y="26.88" width="402.28" height="276.76"/>
  </clipPath>
 </defs>
</svg>
