<?xml version="1.0" encoding="utf-8" standalone="no"?>
<!DOCTYPE svg PUBLIC "-//W3C//DTD SVG 1.1//EN"
  "http://www.w3.org/Graphics/SVG/1.1/DTD/svg11.dtd">
<svg xmlns:xlink="http://www.w3.org/1999/xlink" width="460.8pt" height="345.6pt" viewBox="0 0 460.8 345.6" xmlns="http://www.w3.org/2000/svg" version="1.1">
 <metadata>
  <rdf:RDF xmlns:dc="http://purl.org/dc/elements/1.1/" xmlns:cc="http://creativecommons.org/ns#" xmlns:rdf="http://www.w3.org/1999/02/22-rdf-syntax-ns#">
   <cc:Work>
    <dc:type rdf:resource="http://purl.org/dc/dcmitype/StillImage"/>
    <dc:date>2022-07-14T17:57:36.688826</dc:date>
    <dc:format>image/svg+xml</dc:format>
    <dc:creator>
     <cc:Agent>
      <dc:title>Matplotlib v3.5.1, https://matplotlib.org/</dc:title>
     </cc:Agent>
    </dc:creator>
   </cc:Work>
  </rdf:RDF>
 </metadata>
 <defs>
  <style type="text/css">*{stroke-linejoin: round; stroke-linecap: butt}</style>
 </defs>
 <g id="figure_1">
  <g id="patch_1">
   <path d="M 0 345.6 
L 460.8 345.6 
L 460.8 0 
L 0 0 
z
" style="fill: #ffffff"/>
  </g>
  <g id="axes_1">
   <g id="patch_2">
    <path d="M 47.72 303.64 
L 450 303.64 
L 450 26.88 
L 47.72 26.88 
z
" style="fill: #ffffff"/>
   </g>
   <g id="matplotlib.axis_1">
    <g id="xtick_1">
     <g id="line2d_1">
      <defs>
       <path id="m65f8e8b497" d="M 0 0 
L 0 3.5 
" style="stroke: #000000; stroke-width: 0.8"/>
      </defs>
      <g>
       <use xlink:href="#m65f8e8b497" x="66.005455" y="303.64" style="stroke: #000000; stroke-width: 0.8"/>
      </g>
     </g>
     <g id="text_1">
      <!-- 0 -->
      <g transform="translate(62.824205 318.238437)scale(0.1 -0.1)">
       <defs>
        <path id="DejaVuSans-30" d="M 2034 4250 
Q 1547 4250 1301 3770 
Q 1056 3291 1056 2328 
Q 1056 1369 1301 889 
Q 1547 409 2034 409 
Q 2525 409 2770 889 
Q 3016 1369 3016 2328 
Q 3016 3291 2770 3770 
Q 2525 4250 2034 4250 
z
M 2034 4750 
Q 2819 4750 3233 4129 
Q 3647 3509 3647 2328 
Q 3647 1150 3233 529 
Q 2819 -91 2034 -91 
Q 1250 -91 836 529 
Q 422 1150 422 2328 
Q 422 3509 836 4129 
Q 1250 4750 2034 4750 
z
" transform="scale(0.015625)"/>
       </defs>
       <use xlink:href="#DejaVuSans-30"/>
      </g>
     </g>
    </g>
    <g id="xtick_2">
     <g id="line2d_2">
      <g>
       <use xlink:href="#m65f8e8b497" x="111.833661" y="303.64" style="stroke: #000000; stroke-width: 0.8"/>
      </g>
     </g>
     <g id="text_2">
      <!-- 50 -->
      <g transform="translate(105.471161 318.238437)scale(0.1 -0.1)">
       <defs>
        <path id="DejaVuSans-35" d="M 691 4666 
L 3169 4666 
L 3169 4134 
L 1269 4134 
L 1269 2991 
Q 1406 3038 1543 3061 
Q 1681 3084 1819 3084 
Q 2600 3084 3056 2656 
Q 3513 2228 3513 1497 
Q 3513 744 3044 326 
Q 2575 -91 1722 -91 
Q 1428 -91 1123 -41 
Q 819 9 494 109 
L 494 744 
Q 775 591 1075 516 
Q 1375 441 1709 441 
Q 2250 441 2565 725 
Q 2881 1009 2881 1497 
Q 2881 1984 2565 2268 
Q 2250 2553 1709 2553 
Q 1456 2553 1204 2497 
Q 953 2441 691 2322 
L 691 4666 
z
" transform="scale(0.015625)"/>
       </defs>
       <use xlink:href="#DejaVuSans-35"/>
       <use xlink:href="#DejaVuSans-30" x="63.623047"/>
      </g>
     </g>
    </g>
    <g id="xtick_3">
     <g id="line2d_3">
      <g>
       <use xlink:href="#m65f8e8b497" x="157.661868" y="303.64" style="stroke: #000000; stroke-width: 0.8"/>
      </g>
     </g>
     <g id="text_3">
      <!-- 100 -->
      <g transform="translate(148.118118 318.238437)scale(0.1 -0.1)">
       <defs>
        <path id="DejaVuSans-31" d="M 794 531 
L 1825 531 
L 1825 4091 
L 703 3866 
L 703 4441 
L 1819 4666 
L 2450 4666 
L 2450 531 
L 3481 531 
L 3481 0 
L 794 0 
L 794 531 
z
" transform="scale(0.015625)"/>
       </defs>
       <use xlink:href="#DejaVuSans-31"/>
       <use xlink:href="#DejaVuSans-30" x="63.623047"/>
       <use xlink:href="#DejaVuSans-30" x="127.246094"/>
      </g>
     </g>
    </g>
    <g id="xtick_4">
     <g id="line2d_4">
      <g>
       <use xlink:href="#m65f8e8b497" x="203.490075" y="303.64" style="stroke: #000000; stroke-width: 0.8"/>
      </g>
     </g>
     <g id="text_4">
      <!-- 150 -->
      <g transform="translate(193.946325 318.238437)scale(0.1 -0.1)">
       <use xlink:href="#DejaVuSans-31"/>
       <use xlink:href="#DejaVuSans-35" x="63.623047"/>
       <use xlink:href="#DejaVuSans-30" x="127.246094"/>
      </g>
     </g>
    </g>
    <g id="xtick_5">
     <g id="line2d_5">
      <g>
       <use xlink:href="#m65f8e8b497" x="249.318282" y="303.64" style="stroke: #000000; stroke-width: 0.8"/>
      </g>
     </g>
     <g id="text_5">
      <!-- 200 -->
      <g transform="translate(239.774532 318.238437)scale(0.1 -0.1)">
       <defs>
        <path id="DejaVuSans-32" d="M 1228 531 
L 3431 531 
L 3431 0 
L 469 0 
L 469 531 
Q 828 903 1448 1529 
Q 2069 2156 2228 2338 
Q 2531 2678 2651 2914 
Q 2772 3150 2772 3378 
Q 2772 3750 2511 3984 
Q 2250 4219 1831 4219 
Q 1534 4219 1204 4116 
Q 875 4013 500 3803 
L 500 4441 
Q 881 4594 1212 4672 
Q 1544 4750 1819 4750 
Q 2544 4750 2975 4387 
Q 3406 4025 3406 3419 
Q 3406 3131 3298 2873 
Q 3191 2616 2906 2266 
Q 2828 2175 2409 1742 
Q 1991 1309 1228 531 
z
" transform="scale(0.015625)"/>
       </defs>
       <use xlink:href="#DejaVuSans-32"/>
       <use xlink:href="#DejaVuSans-30" x="63.623047"/>
       <use xlink:href="#DejaVuSans-30" x="127.246094"/>
      </g>
     </g>
    </g>
    <g id="xtick_6">
     <g id="line2d_6">
      <g>
       <use xlink:href="#m65f8e8b497" x="295.146489" y="303.64" style="stroke: #000000; stroke-width: 0.8"/>
      </g>
     </g>
     <g id="text_6">
      <!-- 250 -->
      <g transform="translate(285.602739 318.238437)scale(0.1 -0.1)">
       <use xlink:href="#DejaVuSans-32"/>
       <use xlink:href="#DejaVuSans-35" x="63.623047"/>
       <use xlink:href="#DejaVuSans-30" x="127.246094"/>
      </g>
     </g>
    </g>
    <g id="xtick_7">
     <g id="line2d_7">
      <g>
       <use xlink:href="#m65f8e8b497" x="340.974696" y="303.64" style="stroke: #000000; stroke-width: 0.8"/>
      </g>
     </g>
     <g id="text_7">
      <!-- 300 -->
      <g transform="translate(331.430946 318.238437)scale(0.1 -0.1)">
       <defs>
        <path id="DejaVuSans-33" d="M 2597 2516 
Q 3050 2419 3304 2112 
Q 3559 1806 3559 1356 
Q 3559 666 3084 287 
Q 2609 -91 1734 -91 
Q 1441 -91 1130 -33 
Q 819 25 488 141 
L 488 750 
Q 750 597 1062 519 
Q 1375 441 1716 441 
Q 2309 441 2620 675 
Q 2931 909 2931 1356 
Q 2931 1769 2642 2001 
Q 2353 2234 1838 2234 
L 1294 2234 
L 1294 2753 
L 1863 2753 
Q 2328 2753 2575 2939 
Q 2822 3125 2822 3475 
Q 2822 3834 2567 4026 
Q 2313 4219 1838 4219 
Q 1578 4219 1281 4162 
Q 984 4106 628 3988 
L 628 4550 
Q 988 4650 1302 4700 
Q 1616 4750 1894 4750 
Q 2613 4750 3031 4423 
Q 3450 4097 3450 3541 
Q 3450 3153 3228 2886 
Q 3006 2619 2597 2516 
z
" transform="scale(0.015625)"/>
       </defs>
       <use xlink:href="#DejaVuSans-33"/>
       <use xlink:href="#DejaVuSans-30" x="63.623047"/>
       <use xlink:href="#DejaVuSans-30" x="127.246094"/>
      </g>
     </g>
    </g>
    <g id="xtick_8">
     <g id="line2d_8">
      <g>
       <use xlink:href="#m65f8e8b497" x="386.802903" y="303.64" style="stroke: #000000; stroke-width: 0.8"/>
      </g>
     </g>
     <g id="text_8">
      <!-- 350 -->
      <g transform="translate(377.259153 318.238437)scale(0.1 -0.1)">
       <use xlink:href="#DejaVuSans-33"/>
       <use xlink:href="#DejaVuSans-35" x="63.623047"/>
       <use xlink:href="#DejaVuSans-30" x="127.246094"/>
      </g>
     </g>
    </g>
    <g id="xtick_9">
     <g id="line2d_9">
      <g>
       <use xlink:href="#m65f8e8b497" x="432.63111" y="303.64" style="stroke: #000000; stroke-width: 0.8"/>
      </g>
     </g>
     <g id="text_9">
      <!-- 400 -->
      <g transform="translate(423.08736 318.238437)scale(0.1 -0.1)">
       <defs>
        <path id="DejaVuSans-34" d="M 2419 4116 
L 825 1625 
L 2419 1625 
L 2419 4116 
z
M 2253 4666 
L 3047 4666 
L 3047 1625 
L 3713 1625 
L 3713 1100 
L 3047 1100 
L 3047 0 
L 2419 0 
L 2419 1100 
L 313 1100 
L 313 1709 
L 2253 4666 
z
" transform="scale(0.015625)"/>
       </defs>
       <use xlink:href="#DejaVuSans-34"/>
       <use xlink:href="#DejaVuSans-30" x="63.623047"/>
       <use xlink:href="#DejaVuSans-30" x="127.246094"/>
      </g>
     </g>
    </g>
    <g id="text_10">
     <!-- number of epochs -->
     <g transform="translate(203.515469 331.916562)scale(0.1 -0.1)">
      <defs>
       <path id="DejaVuSans-6e" d="M 3513 2113 
L 3513 0 
L 2938 0 
L 2938 2094 
Q 2938 2591 2744 2837 
Q 2550 3084 2163 3084 
Q 1697 3084 1428 2787 
Q 1159 2491 1159 1978 
L 1159 0 
L 581 0 
L 581 3500 
L 1159 3500 
L 1159 2956 
Q 1366 3272 1645 3428 
Q 1925 3584 2291 3584 
Q 2894 3584 3203 3211 
Q 3513 2838 3513 2113 
z
" transform="scale(0.015625)"/>
       <path id="DejaVuSans-75" d="M 544 1381 
L 544 3500 
L 1119 3500 
L 1119 1403 
Q 1119 906 1312 657 
Q 1506 409 1894 409 
Q 2359 409 2629 706 
Q 2900 1003 2900 1516 
L 2900 3500 
L 3475 3500 
L 3475 0 
L 2900 0 
L 2900 538 
Q 2691 219 2414 64 
Q 2138 -91 1772 -91 
Q 1169 -91 856 284 
Q 544 659 544 1381 
z
M 1991 3584 
L 1991 3584 
z
" transform="scale(0.015625)"/>
       <path id="DejaVuSans-6d" d="M 3328 2828 
Q 3544 3216 3844 3400 
Q 4144 3584 4550 3584 
Q 5097 3584 5394 3201 
Q 5691 2819 5691 2113 
L 5691 0 
L 5113 0 
L 5113 2094 
Q 5113 2597 4934 2840 
Q 4756 3084 4391 3084 
Q 3944 3084 3684 2787 
Q 3425 2491 3425 1978 
L 3425 0 
L 2847 0 
L 2847 2094 
Q 2847 2600 2669 2842 
Q 2491 3084 2119 3084 
Q 1678 3084 1418 2786 
Q 1159 2488 1159 1978 
L 1159 0 
L 581 0 
L 581 3500 
L 1159 3500 
L 1159 2956 
Q 1356 3278 1631 3431 
Q 1906 3584 2284 3584 
Q 2666 3584 2933 3390 
Q 3200 3197 3328 2828 
z
" transform="scale(0.015625)"/>
       <path id="DejaVuSans-62" d="M 3116 1747 
Q 3116 2381 2855 2742 
Q 2594 3103 2138 3103 
Q 1681 3103 1420 2742 
Q 1159 2381 1159 1747 
Q 1159 1113 1420 752 
Q 1681 391 2138 391 
Q 2594 391 2855 752 
Q 3116 1113 3116 1747 
z
M 1159 2969 
Q 1341 3281 1617 3432 
Q 1894 3584 2278 3584 
Q 2916 3584 3314 3078 
Q 3713 2572 3713 1747 
Q 3713 922 3314 415 
Q 2916 -91 2278 -91 
Q 1894 -91 1617 61 
Q 1341 213 1159 525 
L 1159 0 
L 581 0 
L 581 4863 
L 1159 4863 
L 1159 2969 
z
" transform="scale(0.015625)"/>
       <path id="DejaVuSans-65" d="M 3597 1894 
L 3597 1613 
L 953 1613 
Q 991 1019 1311 708 
Q 1631 397 2203 397 
Q 2534 397 2845 478 
Q 3156 559 3463 722 
L 3463 178 
Q 3153 47 2828 -22 
Q 2503 -91 2169 -91 
Q 1331 -91 842 396 
Q 353 884 353 1716 
Q 353 2575 817 3079 
Q 1281 3584 2069 3584 
Q 2775 3584 3186 3129 
Q 3597 2675 3597 1894 
z
M 3022 2063 
Q 3016 2534 2758 2815 
Q 2500 3097 2075 3097 
Q 1594 3097 1305 2825 
Q 1016 2553 972 2059 
L 3022 2063 
z
" transform="scale(0.015625)"/>
       <path id="DejaVuSans-72" d="M 2631 2963 
Q 2534 3019 2420 3045 
Q 2306 3072 2169 3072 
Q 1681 3072 1420 2755 
Q 1159 2438 1159 1844 
L 1159 0 
L 581 0 
L 581 3500 
L 1159 3500 
L 1159 2956 
Q 1341 3275 1631 3429 
Q 1922 3584 2338 3584 
Q 2397 3584 2469 3576 
Q 2541 3569 2628 3553 
L 2631 2963 
z
" transform="scale(0.015625)"/>
       <path id="DejaVuSans-20" transform="scale(0.015625)"/>
       <path id="DejaVuSans-6f" d="M 1959 3097 
Q 1497 3097 1228 2736 
Q 959 2375 959 1747 
Q 959 1119 1226 758 
Q 1494 397 1959 397 
Q 2419 397 2687 759 
Q 2956 1122 2956 1747 
Q 2956 2369 2687 2733 
Q 2419 3097 1959 3097 
z
M 1959 3584 
Q 2709 3584 3137 3096 
Q 3566 2609 3566 1747 
Q 3566 888 3137 398 
Q 2709 -91 1959 -91 
Q 1206 -91 779 398 
Q 353 888 353 1747 
Q 353 2609 779 3096 
Q 1206 3584 1959 3584 
z
" transform="scale(0.015625)"/>
       <path id="DejaVuSans-66" d="M 2375 4863 
L 2375 4384 
L 1825 4384 
Q 1516 4384 1395 4259 
Q 1275 4134 1275 3809 
L 1275 3500 
L 2222 3500 
L 2222 3053 
L 1275 3053 
L 1275 0 
L 697 0 
L 697 3053 
L 147 3053 
L 147 3500 
L 697 3500 
L 697 3744 
Q 697 4328 969 4595 
Q 1241 4863 1831 4863 
L 2375 4863 
z
" transform="scale(0.015625)"/>
       <path id="DejaVuSans-70" d="M 1159 525 
L 1159 -1331 
L 581 -1331 
L 581 3500 
L 1159 3500 
L 1159 2969 
Q 1341 3281 1617 3432 
Q 1894 3584 2278 3584 
Q 2916 3584 3314 3078 
Q 3713 2572 3713 1747 
Q 3713 922 3314 415 
Q 2916 -91 2278 -91 
Q 1894 -91 1617 61 
Q 1341 213 1159 525 
z
M 3116 1747 
Q 3116 2381 2855 2742 
Q 2594 3103 2138 3103 
Q 1681 3103 1420 2742 
Q 1159 2381 1159 1747 
Q 1159 1113 1420 752 
Q 1681 391 2138 391 
Q 2594 391 2855 752 
Q 3116 1113 3116 1747 
z
" transform="scale(0.015625)"/>
       <path id="DejaVuSans-63" d="M 3122 3366 
L 3122 2828 
Q 2878 2963 2633 3030 
Q 2388 3097 2138 3097 
Q 1578 3097 1268 2742 
Q 959 2388 959 1747 
Q 959 1106 1268 751 
Q 1578 397 2138 397 
Q 2388 397 2633 464 
Q 2878 531 3122 666 
L 3122 134 
Q 2881 22 2623 -34 
Q 2366 -91 2075 -91 
Q 1284 -91 818 406 
Q 353 903 353 1747 
Q 353 2603 823 3093 
Q 1294 3584 2113 3584 
Q 2378 3584 2631 3529 
Q 2884 3475 3122 3366 
z
" transform="scale(0.015625)"/>
       <path id="DejaVuSans-68" d="M 3513 2113 
L 3513 0 
L 2938 0 
L 2938 2094 
Q 2938 2591 2744 2837 
Q 2550 3084 2163 3084 
Q 1697 3084 1428 2787 
Q 1159 2491 1159 1978 
L 1159 0 
L 581 0 
L 581 4863 
L 1159 4863 
L 1159 2956 
Q 1366 3272 1645 3428 
Q 1925 3584 2291 3584 
Q 2894 3584 3203 3211 
Q 3513 2838 3513 2113 
z
" transform="scale(0.015625)"/>
       <path id="DejaVuSans-73" d="M 2834 3397 
L 2834 2853 
Q 2591 2978 2328 3040 
Q 2066 3103 1784 3103 
Q 1356 3103 1142 2972 
Q 928 2841 928 2578 
Q 928 2378 1081 2264 
Q 1234 2150 1697 2047 
L 1894 2003 
Q 2506 1872 2764 1633 
Q 3022 1394 3022 966 
Q 3022 478 2636 193 
Q 2250 -91 1575 -91 
Q 1294 -91 989 -36 
Q 684 19 347 128 
L 347 722 
Q 666 556 975 473 
Q 1284 391 1588 391 
Q 1994 391 2212 530 
Q 2431 669 2431 922 
Q 2431 1156 2273 1281 
Q 2116 1406 1581 1522 
L 1381 1569 
Q 847 1681 609 1914 
Q 372 2147 372 2553 
Q 372 3047 722 3315 
Q 1072 3584 1716 3584 
Q 2034 3584 2315 3537 
Q 2597 3491 2834 3397 
z
" transform="scale(0.015625)"/>
      </defs>
      <use xlink:href="#DejaVuSans-6e"/>
      <use xlink:href="#DejaVuSans-75" x="63.378906"/>
      <use xlink:href="#DejaVuSans-6d" x="126.757812"/>
      <use xlink:href="#DejaVuSans-62" x="224.169922"/>
      <use xlink:href="#DejaVuSans-65" x="287.646484"/>
      <use xlink:href="#DejaVuSans-72" x="349.169922"/>
      <use xlink:href="#DejaVuSans-20" x="390.283203"/>
      <use xlink:href="#DejaVuSans-6f" x="422.070312"/>
      <use xlink:href="#DejaVuSans-66" x="483.251953"/>
      <use xlink:href="#DejaVuSans-20" x="518.457031"/>
      <use xlink:href="#DejaVuSans-65" x="550.244141"/>
      <use xlink:href="#DejaVuSans-70" x="611.767578"/>
      <use xlink:href="#DejaVuSans-6f" x="675.244141"/>
      <use xlink:href="#DejaVuSans-63" x="736.425781"/>
      <use xlink:href="#DejaVuSans-68" x="791.40625"/>
      <use xlink:href="#DejaVuSans-73" x="854.785156"/>
     </g>
    </g>
   </g>
   <g id="matplotlib.axis_2">
    <g id="ytick_1">
     <g id="line2d_10">
      <defs>
       <path id="mb3cab3f6a4" d="M 0 0 
L -3.5 0 
" style="stroke: #000000; stroke-width: 0.8"/>
      </defs>
      <g>
       <use xlink:href="#mb3cab3f6a4" x="47.72" y="291.060031" style="stroke: #000000; stroke-width: 0.8"/>
      </g>
     </g>
     <g id="text_11">
      <!-- 0.0 -->
      <g transform="translate(24.816875 294.859249)scale(0.1 -0.1)">
       <defs>
        <path id="DejaVuSans-2e" d="M 684 794 
L 1344 794 
L 1344 0 
L 684 0 
L 684 794 
z
" transform="scale(0.015625)"/>
       </defs>
       <use xlink:href="#DejaVuSans-30"/>
       <use xlink:href="#DejaVuSans-2e" x="63.623047"/>
       <use xlink:href="#DejaVuSans-30" x="95.410156"/>
      </g>
     </g>
    </g>
    <g id="ytick_2">
     <g id="line2d_11">
      <g>
       <use xlink:href="#mb3cab3f6a4" x="47.72" y="239.232775" style="stroke: #000000; stroke-width: 0.8"/>
      </g>
     </g>
     <g id="text_12">
      <!-- 0.2 -->
      <g transform="translate(24.816875 243.031994)scale(0.1 -0.1)">
       <use xlink:href="#DejaVuSans-30"/>
       <use xlink:href="#DejaVuSans-2e" x="63.623047"/>
       <use xlink:href="#DejaVuSans-32" x="95.410156"/>
      </g>
     </g>
    </g>
    <g id="ytick_3">
     <g id="line2d_12">
      <g>
       <use xlink:href="#mb3cab3f6a4" x="47.72" y="187.405519" style="stroke: #000000; stroke-width: 0.8"/>
      </g>
     </g>
     <g id="text_13">
      <!-- 0.4 -->
      <g transform="translate(24.816875 191.204738)scale(0.1 -0.1)">
       <use xlink:href="#DejaVuSans-30"/>
       <use xlink:href="#DejaVuSans-2e" x="63.623047"/>
       <use xlink:href="#DejaVuSans-34" x="95.410156"/>
      </g>
     </g>
    </g>
    <g id="ytick_4">
     <g id="line2d_13">
      <g>
       <use xlink:href="#mb3cab3f6a4" x="47.72" y="135.578264" style="stroke: #000000; stroke-width: 0.8"/>
      </g>
     </g>
     <g id="text_14">
      <!-- 0.6 -->
      <g transform="translate(24.816875 139.377482)scale(0.1 -0.1)">
       <defs>
        <path id="DejaVuSans-36" d="M 2113 2584 
Q 1688 2584 1439 2293 
Q 1191 2003 1191 1497 
Q 1191 994 1439 701 
Q 1688 409 2113 409 
Q 2538 409 2786 701 
Q 3034 994 3034 1497 
Q 3034 2003 2786 2293 
Q 2538 2584 2113 2584 
z
M 3366 4563 
L 3366 3988 
Q 3128 4100 2886 4159 
Q 2644 4219 2406 4219 
Q 1781 4219 1451 3797 
Q 1122 3375 1075 2522 
Q 1259 2794 1537 2939 
Q 1816 3084 2150 3084 
Q 2853 3084 3261 2657 
Q 3669 2231 3669 1497 
Q 3669 778 3244 343 
Q 2819 -91 2113 -91 
Q 1303 -91 875 529 
Q 447 1150 447 2328 
Q 447 3434 972 4092 
Q 1497 4750 2381 4750 
Q 2619 4750 2861 4703 
Q 3103 4656 3366 4563 
z
" transform="scale(0.015625)"/>
       </defs>
       <use xlink:href="#DejaVuSans-30"/>
       <use xlink:href="#DejaVuSans-2e" x="63.623047"/>
       <use xlink:href="#DejaVuSans-36" x="95.410156"/>
      </g>
     </g>
    </g>
    <g id="ytick_5">
     <g id="line2d_14">
      <g>
       <use xlink:href="#mb3cab3f6a4" x="47.72" y="83.751008" style="stroke: #000000; stroke-width: 0.8"/>
      </g>
     </g>
     <g id="text_15">
      <!-- 0.8 -->
      <g transform="translate(24.816875 87.550227)scale(0.1 -0.1)">
       <defs>
        <path id="DejaVuSans-38" d="M 2034 2216 
Q 1584 2216 1326 1975 
Q 1069 1734 1069 1313 
Q 1069 891 1326 650 
Q 1584 409 2034 409 
Q 2484 409 2743 651 
Q 3003 894 3003 1313 
Q 3003 1734 2745 1975 
Q 2488 2216 2034 2216 
z
M 1403 2484 
Q 997 2584 770 2862 
Q 544 3141 544 3541 
Q 544 4100 942 4425 
Q 1341 4750 2034 4750 
Q 2731 4750 3128 4425 
Q 3525 4100 3525 3541 
Q 3525 3141 3298 2862 
Q 3072 2584 2669 2484 
Q 3125 2378 3379 2068 
Q 3634 1759 3634 1313 
Q 3634 634 3220 271 
Q 2806 -91 2034 -91 
Q 1263 -91 848 271 
Q 434 634 434 1313 
Q 434 1759 690 2068 
Q 947 2378 1403 2484 
z
M 1172 3481 
Q 1172 3119 1398 2916 
Q 1625 2713 2034 2713 
Q 2441 2713 2670 2916 
Q 2900 3119 2900 3481 
Q 2900 3844 2670 4047 
Q 2441 4250 2034 4250 
Q 1625 4250 1398 4047 
Q 1172 3844 1172 3481 
z
" transform="scale(0.015625)"/>
       </defs>
       <use xlink:href="#DejaVuSans-30"/>
       <use xlink:href="#DejaVuSans-2e" x="63.623047"/>
       <use xlink:href="#DejaVuSans-38" x="95.410156"/>
      </g>
     </g>
    </g>
    <g id="ytick_6">
     <g id="line2d_15">
      <g>
       <use xlink:href="#mb3cab3f6a4" x="47.72" y="31.923752" style="stroke: #000000; stroke-width: 0.8"/>
      </g>
     </g>
     <g id="text_16">
      <!-- 1.0 -->
      <g transform="translate(24.816875 35.722971)scale(0.1 -0.1)">
       <use xlink:href="#DejaVuSans-31"/>
       <use xlink:href="#DejaVuSans-2e" x="63.623047"/>
       <use xlink:href="#DejaVuSans-30" x="95.410156"/>
      </g>
     </g>
    </g>
    <g id="text_17">
     <!-- metrics -->
     <g transform="translate(18.737188 183.965469)rotate(-90)scale(0.1 -0.1)">
      <defs>
       <path id="DejaVuSans-74" d="M 1172 4494 
L 1172 3500 
L 2356 3500 
L 2356 3053 
L 1172 3053 
L 1172 1153 
Q 1172 725 1289 603 
Q 1406 481 1766 481 
L 2356 481 
L 2356 0 
L 1766 0 
Q 1100 0 847 248 
Q 594 497 594 1153 
L 594 3053 
L 172 3053 
L 172 3500 
L 594 3500 
L 594 4494 
L 1172 4494 
z
" transform="scale(0.015625)"/>
       <path id="DejaVuSans-69" d="M 603 3500 
L 1178 3500 
L 1178 0 
L 603 0 
L 603 3500 
z
M 603 4863 
L 1178 4863 
L 1178 4134 
L 603 4134 
L 603 4863 
z
" transform="scale(0.015625)"/>
      </defs>
      <use xlink:href="#DejaVuSans-6d"/>
      <use xlink:href="#DejaVuSans-65" x="97.412109"/>
      <use xlink:href="#DejaVuSans-74" x="158.935547"/>
      <use xlink:href="#DejaVuSans-72" x="198.144531"/>
      <use xlink:href="#DejaVuSans-69" x="239.257812"/>
      <use xlink:href="#DejaVuSans-63" x="267.041016"/>
      <use xlink:href="#DejaVuSans-73" x="322.021484"/>
     </g>
    </g>
   </g>
   <g id="line2d_16">
    <path d="M 66.005455 211.704772 
L 66.922019 246.943968 
L 67.838583 252.067369 
L 68.755147 259.218292 
L 69.671711 267.876284 
L 70.588275 273.060468 
L 71.504839 275.769593 
L 72.421404 277.235857 
L 73.337968 277.817319 
L 74.254532 279.23363 
L 75.171096 279.985424 
L 77.004224 281.80388 
L 77.920788 282.411399 
L 78.837352 282.630851 
L 79.753917 283.159035 
L 80.670481 283.53424 
L 81.587045 282.140175 
L 82.503609 283.876423 
L 84.336737 284.830807 
L 87.08643 285.578024 
L 91.66925 286.333596 
L 95.335507 286.707071 
L 96.252071 286.556244 
L 97.168635 281.778054 
L 98.085199 285.415608 
L 99.001763 286.650671 
L 100.834892 287.125126 
L 102.66802 287.328437 
L 114.583354 288.080329 
L 115.499918 288.010773 
L 117.333046 288.089721 
L 118.24961 288.010327 
L 120.082739 288.338842 
L 122.832431 288.465174 
L 123.748995 288.543388 
L 124.665559 288.800942 
L 125.582123 289.322075 
L 129.24838 289.423104 
L 132.914637 289.371975 
L 133.831201 289.293677 
L 135.664329 289.376903 
L 139.330586 289.246798 
L 140.24715 288.385411 
L 141.163714 289.228807 
L 144.82997 289.521343 
L 154.912176 289.730351 
L 164.994381 289.805301 
L 174.160023 289.70895 
L 176.909715 289.597822 
L 185.158792 289.823027 
L 194.324434 289.866654 
L 200.740383 289.85294 
L 221.821358 289.9825 
L 259.400488 290.072822 
L 326.30967 290.127165 
L 431.714545 290.166662 
L 431.714545 290.166662 
" clip-path="url(#p9c376f6cb3)" style="fill: none; stroke: #1f77b4; stroke-width: 1.5; stroke-linecap: square"/>
   </g>
   <g id="line2d_17">
    <path d="M 66.005455 290.172026 
L 66.922019 291.06 
L 68.755147 291.0578 
L 70.588275 214.939393 
L 71.504839 208.291815 
L 72.421404 204.226624 
L 73.337968 202.518535 
L 74.254532 192.265353 
L 75.171096 117.215637 
L 76.08766 111.209999 
L 77.004224 103.512931 
L 77.920788 99.059557 
L 78.837352 97.505455 
L 79.753917 93.354972 
L 80.670481 90.264653 
L 81.587045 103.664206 
L 82.503609 87.943392 
L 83.420173 83.518871 
L 84.336737 79.716751 
L 86.169866 74.69411 
L 87.08643 73.070888 
L 88.919558 70.516319 
L 91.66925 67.791199 
L 93.502379 66.796741 
L 94.418943 66.9944 
L 95.335507 66.526179 
L 96.252071 68.830557 
L 97.168635 107.636739 
L 98.085199 80.25624 
L 99.001763 68.903508 
L 99.918328 66.403848 
L 100.834892 64.962067 
L 101.751456 64.10313 
L 103.584584 63.304324 
L 104.501148 62.468061 
L 107.250841 60.729954 
L 110.000533 59.466478 
L 110.917097 59.211562 
L 111.833661 59.143446 
L 112.750226 58.770061 
L 113.66679 58.990842 
L 114.583354 59.542981 
L 115.499918 61.102922 
L 116.416482 60.041646 
L 117.333046 60.603716 
L 118.24961 61.862342 
L 120.082739 58.001652 
L 120.999303 58.407318 
L 121.915867 58.467912 
L 122.832431 57.368145 
L 123.748995 56.571331 
L 125.582123 55.432425 
L 126.498688 55.104451 
L 127.415252 54.902204 
L 128.331816 54.866339 
L 130.164944 54.622868 
L 131.998072 54.715558 
L 133.831201 56.208974 
L 134.747765 55.401425 
L 135.664329 55.279713 
L 136.580893 55.866852 
L 137.497457 56.848242 
L 138.414021 56.559222 
L 139.330586 56.613513 
L 140.24715 63.278421 
L 141.163714 56.729186 
L 142.080278 55.997337 
L 142.996842 54.662456 
L 143.913406 53.998614 
L 145.746535 53.189103 
L 148.496227 52.290826 
L 153.995612 50.957258 
L 156.745304 50.369316 
L 157.661868 50.527249 
L 159.494997 50.382043 
L 163.161253 49.933222 
L 165.910946 49.780896 
L 168.660638 49.730852 
L 169.577202 49.685101 
L 171.41033 50.045883 
L 174.160023 51.155704 
L 175.076587 51.894798 
L 175.993151 53.272665 
L 177.826279 52.36339 
L 178.742843 52.051417 
L 182.4091 50.308167 
L 185.158792 49.565907 
L 187.908485 49.078857 
L 192.491306 48.521451 
L 193.40787 48.447173 
L 194.324434 49.008131 
L 195.240998 49.277983 
L 197.99069 49.406831 
L 199.823819 49.379322 
L 210.822588 48.334944 
L 211.739152 48.24003 
L 212.655717 48.757709 
L 213.572281 48.641928 
L 215.405409 48.138305 
L 219.071666 47.682393 
L 223.654486 47.293408 
L 230.070435 46.870241 
L 230.986999 47.154798 
L 233.736692 47.233803 
L 238.319512 47.079191 
L 248.401718 46.452821 
L 249.318282 46.637938 
L 251.15141 46.612267 
L 256.650795 46.32371 
L 266.733001 45.952843 
L 267.649565 46.150409 
L 270.399257 46.191031 
L 279.564899 45.976196 
L 285.064283 45.813244 
L 285.980848 45.954279 
L 289.647104 45.868849 
L 302.479002 45.549755 
L 303.395566 45.531468 
L 304.31213 45.65162 
L 371.221312 45.008954 
L 427.131725 44.836225 
L 431.714545 44.82566 
L 431.714545 44.82566 
" clip-path="url(#p9c376f6cb3)" style="fill: none; stroke: #ff7f0e; stroke-width: 1.5; stroke-linecap: square"/>
   </g>
   <g id="line2d_18">
    <path d="M 66.005455 285.177189 
L 66.922019 284.479896 
L 67.838583 278.422391 
L 68.755147 264.670525 
L 69.671711 241.027548 
L 70.588275 214.383532 
L 71.504839 201.16084 
L 72.421404 192.439759 
L 73.337968 189.523876 
L 74.254532 180.306145 
L 75.171096 175.254944 
L 76.08766 168.929024 
L 77.004224 161.226441 
L 77.920788 156.092282 
L 78.837352 154.137332 
L 79.753917 149.205821 
L 80.670481 145.942015 
L 81.587045 157.975147 
L 82.503609 141.949727 
L 84.336737 132.208386 
L 86.169866 125.72132 
L 87.08643 123.336315 
L 89.836122 117.289885 
L 90.752686 115.427022 
L 92.585815 112.412758 
L 93.502379 110.98426 
L 94.418943 110.292029 
L 95.335507 108.880506 
L 96.252071 110.375745 
L 97.168635 152.633629 
L 98.085199 123.431924 
L 99.001763 109.269244 
L 99.918328 105.396259 
L 100.834892 102.825349 
L 101.751456 100.934421 
L 102.66802 99.814081 
L 103.584584 98.884897 
L 105.417712 96.183702 
L 107.250841 93.786386 
L 110.000533 90.661901 
L 110.917097 89.763702 
L 111.833661 89.069447 
L 112.750226 88.126717 
L 113.66679 87.806357 
L 114.583354 87.947686 
L 115.499918 88.885736 
L 116.416482 87.703365 
L 117.333046 87.577313 
L 118.24961 88.53606 
L 119.166175 86.367912 
L 120.082739 83.618156 
L 120.999303 83.305087 
L 121.915867 83.1704 
L 122.832431 81.6519 
L 123.748995 80.399684 
L 124.665559 74.974172 
L 125.582123 64.844062 
L 126.498688 64.247378 
L 127.415252 63.887137 
L 130.164944 63.276969 
L 131.081508 63.352762 
L 131.998072 63.308695 
L 132.914637 64.122484 
L 133.831201 65.324547 
L 134.747765 64.335728 
L 135.664329 64.129944 
L 136.580893 64.778757 
L 137.497457 66.0922 
L 138.414021 65.659735 
L 139.330586 65.690132 
L 140.24715 76.2625 
L 141.163714 66.264451 
L 142.080278 65.319172 
L 142.996842 63.388472 
L 143.913406 62.476788 
L 145.746535 61.311702 
L 148.496227 60.11509 
L 152.162483 58.867941 
L 156.745304 57.542033 
L 158.578432 57.621764 
L 164.994381 56.690665 
L 167.744074 56.635524 
L 169.577202 56.527728 
L 170.493766 56.678555 
L 171.41033 56.95142 
L 174.160023 58.256522 
L 175.076587 59.207608 
L 175.993151 60.939398 
L 178.742843 59.612672 
L 179.659408 59.168406 
L 182.4091 57.527854 
L 185.158792 56.487353 
L 186.991921 55.977397 
L 191.574741 55.142462 
L 193.40787 54.888133 
L 195.240998 55.786565 
L 197.074126 55.994619 
L 199.823819 55.974941 
L 211.739152 54.606156 
L 212.655717 55.024473 
L 213.572281 55.022696 
L 215.405409 54.449336 
L 218.155101 53.963784 
L 222.737922 53.418565 
L 230.070435 52.762848 
L 231.903563 53.10738 
L 234.653256 53.130039 
L 240.152641 52.817495 
L 248.401718 52.189039 
L 250.234846 52.360456 
L 266.733001 51.487633 
L 268.566129 51.696969 
L 272.232386 51.700877 
L 282.314591 51.400596 
L 285.064283 51.299489 
L 286.897412 51.422684 
L 296.979617 51.116117 
L 303.395566 50.93809 
L 305.228694 51.026702 
L 314.394336 50.88786 
L 333.642183 50.638999 
L 356.556286 50.367463 
L 384.969774 50.172275 
L 431.714545 50.009987 
L 431.714545 50.009987 
" clip-path="url(#p9c376f6cb3)" style="fill: none; stroke: #2ca02c; stroke-width: 1.5; stroke-linecap: square"/>
   </g>
   <g id="line2d_19">
    <path d="M 66.005455 242.552976 
L 66.922019 273.267168 
L 67.838583 258.870269 
L 68.755147 231.033936 
L 70.588275 162.806879 
L 71.504839 152.905149 
L 72.421404 146.656658 
L 73.337968 144.726189 
L 74.254532 137.839682 
L 77.920788 121.247713 
L 78.837352 119.549363 
L 79.753917 115.950879 
L 80.670481 113.440084 
L 81.587045 120.18999 
L 82.503609 110.898088 
L 83.420173 107.555927 
L 84.336737 104.738765 
L 85.253301 102.787151 
L 86.169866 100.566597 
L 89.836122 94.407706 
L 91.66925 91.663958 
L 92.585815 90.402645 
L 95.335507 87.162919 
L 96.252071 87.004168 
L 97.168635 109.700689 
L 98.085199 92.060527 
L 99.001763 85.097455 
L 99.918328 82.829853 
L 100.834892 81.065874 
L 101.751456 79.648481 
L 104.501148 77.054711 
L 106.334277 75.11082 
L 110.000533 71.612502 
L 111.833661 70.062956 
L 112.750226 69.352082 
L 114.583354 68.536625 
L 115.499918 69.099467 
L 116.416482 67.947294 
L 117.333046 67.863562 
L 118.24961 67.528544 
L 120.082739 64.99438 
L 121.915867 64.130068 
L 123.748995 62.47288 
L 124.665559 56.976751 
L 125.582123 46.513291 
L 126.498688 46.118791 
L 128.331816 45.777657 
L 131.998072 45.369689 
L 133.831201 46.519917 
L 134.747765 45.861759 
L 136.580893 46.509537 
L 137.497457 47.008573 
L 138.414021 46.613966 
L 139.330586 47.124231 
L 140.24715 51.301666 
L 141.163714 47.091208 
L 143.913406 45.175104 
L 145.746535 44.648899 
L 149.412791 43.949455 
L 154.912176 43.163839 
L 157.661868 42.853488 
L 159.494997 42.785511 
L 163.161253 42.510083 
L 165.910946 42.341462 
L 171.41033 42.50029 
L 174.160023 42.91646 
L 175.076587 43.311484 
L 175.993151 44.45436 
L 177.826279 43.924417 
L 179.659408 43.605864 
L 183.325664 42.690242 
L 186.991921 42.134536 
L 192.491306 41.689158 
L 193.40787 41.619637 
L 195.240998 42.086268 
L 197.99069 42.113205 
L 211.739152 41.548818 
L 212.655717 41.727046 
L 218.155101 41.148774 
L 224.57105 40.836508 
L 230.986999 40.682174 
L 233.736692 40.759109 
L 243.818897 40.520797 
L 248.401718 40.388211 
L 249.318282 40.543456 
L 262.15018 40.252906 
L 266.733001 40.16156 
L 268.566129 40.275689 
L 274.982078 40.222926 
L 303.395566 39.899971 
L 310.728079 39.902273 
L 370.304748 39.569603 
L 431.714545 39.46 
L 431.714545 39.46 
" clip-path="url(#p9c376f6cb3)" style="fill: none; stroke: #d62728; stroke-width: 1.5; stroke-linecap: square"/>
   </g>
   <g id="line2d_20">
    <path d="M 66.005455 283.778882 
L 66.922019 279.802336 
L 67.838583 268.219111 
L 68.755147 246.580727 
L 70.588275 176.868258 
L 71.504839 158.837126 
L 72.421404 147.475637 
L 73.337968 143.693241 
L 74.254532 132.528406 
L 75.171096 127.540719 
L 76.08766 120.422232 
L 77.004224 111.180529 
L 77.920788 105.533973 
L 78.837352 103.541752 
L 79.753917 98.852059 
L 80.670481 95.952758 
L 81.587045 109.428335 
L 82.503609 91.992674 
L 84.336737 82.662838 
L 86.169866 76.874846 
L 87.08643 74.935928 
L 88.919558 71.877242 
L 90.752686 69.588186 
L 91.66925 68.716213 
L 92.585815 68.033141 
L 93.502379 67.152642 
L 94.418943 67.490193 
L 95.335507 66.535601 
L 96.252071 68.67071 
L 97.168635 110.647991 
L 98.085199 82.949758 
L 99.001763 69.451151 
L 99.918328 66.375351 
L 100.834892 64.664119 
L 101.751456 63.579536 
L 102.66802 62.948933 
L 103.584584 62.662523 
L 104.501148 61.717646 
L 107.250841 59.860344 
L 110.000533 58.501568 
L 110.917097 58.173702 
L 111.833661 58.026658 
L 112.750226 57.61679 
L 113.66679 57.662108 
L 114.583354 58.269218 
L 115.499918 59.029024 
L 116.416482 58.629659 
L 117.333046 58.586628 
L 118.24961 60.260635 
L 119.166175 58.715074 
L 120.082739 56.575532 
L 120.999303 56.549136 
L 121.915867 56.837167 
L 122.832431 55.885217 
L 123.748995 55.155854 
L 124.665559 54.202003 
L 125.582123 52.923051 
L 127.415252 52.455447 
L 130.164944 52.106868 
L 131.998072 52.280555 
L 132.914637 52.710904 
L 133.831201 53.450028 
L 135.664329 52.408291 
L 136.580893 52.80486 
L 137.497457 53.750633 
L 138.414021 53.624457 
L 139.330586 53.176669 
L 140.24715 61.289661 
L 141.163714 53.865549 
L 142.080278 53.483236 
L 142.996842 52.111903 
L 143.913406 51.503419 
L 145.746535 50.715934 
L 148.496227 49.921035 
L 152.162483 49.08573 
L 156.745304 48.218159 
L 157.661868 48.356475 
L 159.494997 48.245884 
L 164.994381 47.772998 
L 166.82751 47.781848 
L 170.493766 47.749242 
L 171.41033 47.925401 
L 174.160023 48.895269 
L 175.076587 49.534506 
L 175.993151 50.320276 
L 176.909715 50.206426 
L 181.492536 48.494344 
L 183.325664 47.945913 
L 186.075357 47.357987 
L 188.825049 46.979844 
L 193.40787 46.519315 
L 195.240998 47.046137 
L 197.074126 47.224319 
L 199.823819 47.320145 
L 208.98946 46.523701 
L 211.739152 46.252242 
L 212.655717 46.531578 
L 213.572281 46.644687 
L 215.405409 46.26168 
L 219.071666 45.86732 
L 224.57105 45.471461 
L 230.070435 45.150761 
L 231.903563 45.41252 
L 235.56982 45.405245 
L 241.069205 45.15538 
L 250.234846 44.812068 
L 267.649565 44.287793 
L 270.399257 44.370088 
L 278.648334 44.268007 
L 303.395566 43.886405 
L 305.228694 43.955695 
L 401.467929 43.374132 
L 431.714545 43.312658 
L 431.714545 43.312658 
" clip-path="url(#p9c376f6cb3)" style="fill: none; stroke: #9467bd; stroke-width: 1.5; stroke-linecap: square"/>
   </g>
   <g id="line2d_21">
    <path d="M 66.005455 279.656136 
L 66.922019 278.258492 
L 67.838583 267.185337 
L 68.755147 243.726751 
L 70.588275 173.869563 
L 71.504839 158.787607 
L 72.421404 149.413596 
L 73.337968 146.405804 
L 74.254532 137.030387 
L 75.171096 132.045248 
L 76.08766 126.104359 
L 77.004224 118.969793 
L 77.920788 114.373701 
L 78.837352 112.65816 
L 79.753917 108.418169 
L 80.670481 105.716572 
L 81.587045 116.185793 
L 82.503609 102.390366 
L 83.420173 98.238972 
L 84.336737 94.646157 
L 86.169866 89.680542 
L 87.08643 87.881856 
L 89.836122 83.45715 
L 91.66925 80.978559 
L 93.502379 78.981782 
L 94.418943 78.507274 
L 95.335507 77.528308 
L 96.252071 78.64698 
L 97.168635 112.212828 
L 98.085199 88.157284 
L 99.001763 77.814934 
L 99.918328 75.14094 
L 100.834892 73.393209 
L 101.751456 72.110735 
L 104.501148 69.795776 
L 107.250841 67.383509 
L 110.000533 65.366143 
L 110.917097 64.797524 
L 111.833661 64.372597 
L 112.750226 63.754304 
L 113.66679 63.544273 
L 114.583354 63.637488 
L 115.499918 64.311215 
L 116.416482 63.47089 
L 117.333046 63.428338 
L 118.24961 64.066354 
L 119.166175 62.654151 
L 120.082739 60.910684 
L 120.999303 60.721845 
L 121.915867 60.649173 
L 122.832431 59.69682 
L 123.748995 58.926248 
L 124.665559 55.673795 
L 125.582123 49.808142 
L 126.498688 49.466297 
L 128.331816 49.14257 
L 130.164944 48.906606 
L 131.998072 48.930809 
L 132.914637 49.41128 
L 133.831201 50.083647 
L 134.747765 49.529686 
L 135.664329 49.392667 
L 136.580893 49.769543 
L 137.497457 50.548008 
L 138.414021 50.290775 
L 139.330586 50.299764 
L 140.24715 56.623476 
L 141.163714 50.645625 
L 142.080278 50.087555 
L 142.996842 48.961917 
L 143.913406 48.434492 
L 145.746535 47.764611 
L 148.496227 47.077863 
L 153.079048 46.219297 
L 156.745304 45.607584 
L 158.578432 45.654586 
L 164.994381 45.123206 
L 168.660638 45.064821 
L 169.577202 45.034579 
L 171.41033 45.270265 
L 174.160023 45.998685 
L 175.076587 46.546684 
L 175.993151 47.550039 
L 178.742843 46.784935 
L 180.575972 46.191942 
L 182.4091 45.589853 
L 186.075357 44.847655 
L 189.741613 44.426913 
L 193.40787 44.108824 
L 195.240998 44.610254 
L 197.074126 44.728166 
L 199.823819 44.717663 
L 211.739152 43.948234 
L 212.655717 44.180461 
L 213.572281 44.174715 
L 216.321973 43.747641 
L 221.821358 43.335271 
L 230.070435 42.920708 
L 231.903563 43.11259 
L 235.56982 43.106628 
L 242.902333 42.835138 
L 248.401718 42.60407 
L 250.234846 42.698274 
L 267.649565 42.297179 
L 271.315821 42.343238 
L 300.645874 41.953805 
L 308.894951 41.940738 
L 362.972235 41.57486 
L 422.548904 41.417591 
L 431.714545 41.406316 
L 431.714545 41.406316 
" clip-path="url(#p9c376f6cb3)" style="fill: none; stroke: #8c564b; stroke-width: 1.5; stroke-linecap: square"/>
   </g>
   <g id="patch_3">
    <path d="M 47.72 303.64 
L 47.72 26.88 
" style="fill: none; stroke: #000000; stroke-width: 0.8; stroke-linejoin: miter; stroke-linecap: square"/>
   </g>
   <g id="patch_4">
    <path d="M 450 303.64 
L 450 26.88 
" style="fill: none; stroke: #000000; stroke-width: 0.8; stroke-linejoin: miter; stroke-linecap: square"/>
   </g>
   <g id="patch_5">
    <path d="M 47.72 303.64 
L 450 303.64 
" style="fill: none; stroke: #000000; stroke-width: 0.8; stroke-linejoin: miter; stroke-linecap: square"/>
   </g>
   <g id="patch_6">
    <path d="M 47.72 26.88 
L 450 26.88 
" style="fill: none; stroke: #000000; stroke-width: 0.8; stroke-linejoin: miter; stroke-linecap: square"/>
   </g>
   <g id="text_18">
    <!-- Metrics of training -->
    <g transform="translate(194.240312 20.88)scale(0.12 -0.12)">
     <defs>
      <path id="DejaVuSans-4d" d="M 628 4666 
L 1569 4666 
L 2759 1491 
L 3956 4666 
L 4897 4666 
L 4897 0 
L 4281 0 
L 4281 4097 
L 3078 897 
L 2444 897 
L 1241 4097 
L 1241 0 
L 628 0 
L 628 4666 
z
" transform="scale(0.015625)"/>
      <path id="DejaVuSans-61" d="M 2194 1759 
Q 1497 1759 1228 1600 
Q 959 1441 959 1056 
Q 959 750 1161 570 
Q 1363 391 1709 391 
Q 2188 391 2477 730 
Q 2766 1069 2766 1631 
L 2766 1759 
L 2194 1759 
z
M 3341 1997 
L 3341 0 
L 2766 0 
L 2766 531 
Q 2569 213 2275 61 
Q 1981 -91 1556 -91 
Q 1019 -91 701 211 
Q 384 513 384 1019 
Q 384 1609 779 1909 
Q 1175 2209 1959 2209 
L 2766 2209 
L 2766 2266 
Q 2766 2663 2505 2880 
Q 2244 3097 1772 3097 
Q 1472 3097 1187 3025 
Q 903 2953 641 2809 
L 641 3341 
Q 956 3463 1253 3523 
Q 1550 3584 1831 3584 
Q 2591 3584 2966 3190 
Q 3341 2797 3341 1997 
z
" transform="scale(0.015625)"/>
      <path id="DejaVuSans-67" d="M 2906 1791 
Q 2906 2416 2648 2759 
Q 2391 3103 1925 3103 
Q 1463 3103 1205 2759 
Q 947 2416 947 1791 
Q 947 1169 1205 825 
Q 1463 481 1925 481 
Q 2391 481 2648 825 
Q 2906 1169 2906 1791 
z
M 3481 434 
Q 3481 -459 3084 -895 
Q 2688 -1331 1869 -1331 
Q 1566 -1331 1297 -1286 
Q 1028 -1241 775 -1147 
L 775 -588 
Q 1028 -725 1275 -790 
Q 1522 -856 1778 -856 
Q 2344 -856 2625 -561 
Q 2906 -266 2906 331 
L 2906 616 
Q 2728 306 2450 153 
Q 2172 0 1784 0 
Q 1141 0 747 490 
Q 353 981 353 1791 
Q 353 2603 747 3093 
Q 1141 3584 1784 3584 
Q 2172 3584 2450 3431 
Q 2728 3278 2906 2969 
L 2906 3500 
L 3481 3500 
L 3481 434 
z
" transform="scale(0.015625)"/>
     </defs>
     <use xlink:href="#DejaVuSans-4d"/>
     <use xlink:href="#DejaVuSans-65" x="86.279297"/>
     <use xlink:href="#DejaVuSans-74" x="147.802734"/>
     <use xlink:href="#DejaVuSans-72" x="187.011719"/>
     <use xlink:href="#DejaVuSans-69" x="228.125"/>
     <use xlink:href="#DejaVuSans-63" x="255.908203"/>
     <use xlink:href="#DejaVuSans-73" x="310.888672"/>
     <use xlink:href="#DejaVuSans-20" x="362.988281"/>
     <use xlink:href="#DejaVuSans-6f" x="394.775391"/>
     <use xlink:href="#DejaVuSans-66" x="455.957031"/>
     <use xlink:href="#DejaVuSans-20" x="491.162109"/>
     <use xlink:href="#DejaVuSans-74" x="522.949219"/>
     <use xlink:href="#DejaVuSans-72" x="562.158203"/>
     <use xlink:href="#DejaVuSans-61" x="603.271484"/>
     <use xlink:href="#DejaVuSans-69" x="664.550781"/>
     <use xlink:href="#DejaVuSans-6e" x="692.333984"/>
     <use xlink:href="#DejaVuSans-69" x="755.712891"/>
     <use xlink:href="#DejaVuSans-6e" x="783.496094"/>
     <use xlink:href="#DejaVuSans-67" x="846.875"/>
    </g>
   </g>
   <g id="legend_1">
    <g id="patch_7">
     <path d="M 344.534375 211.0725 
L 443 211.0725 
Q 445 211.0725 445 209.0725 
L 445 121.4475 
Q 445 119.4475 443 119.4475 
L 344.534375 119.4475 
Q 342.534375 119.4475 342.534375 121.4475 
L 342.534375 209.0725 
Q 342.534375 211.0725 344.534375 211.0725 
z
" style="fill: #ffffff; opacity: 0.8; stroke: #cccccc; stroke-linejoin: miter"/>
    </g>
    <g id="line2d_22">
     <path d="M 346.534375 127.545937 
L 356.534375 127.545937 
L 366.534375 127.545937 
" style="fill: none; stroke: #1f77b4; stroke-width: 1.5; stroke-linecap: square"/>
    </g>
    <g id="text_19">
     <!-- loss -->
     <g transform="translate(374.534375 131.045937)scale(0.1 -0.1)">
      <defs>
       <path id="DejaVuSans-6c" d="M 603 4863 
L 1178 4863 
L 1178 0 
L 603 0 
L 603 4863 
z
" transform="scale(0.015625)"/>
      </defs>
      <use xlink:href="#DejaVuSans-6c"/>
      <use xlink:href="#DejaVuSans-6f" x="27.783203"/>
      <use xlink:href="#DejaVuSans-73" x="88.964844"/>
      <use xlink:href="#DejaVuSans-73" x="141.064453"/>
     </g>
    </g>
    <g id="line2d_23">
     <path d="M 346.534375 142.224062 
L 356.534375 142.224062 
L 366.534375 142.224062 
" style="fill: none; stroke: #ff7f0e; stroke-width: 1.5; stroke-linecap: square"/>
    </g>
    <g id="text_20">
     <!-- iou_binarized -->
     <g transform="translate(374.534375 145.724062)scale(0.1 -0.1)">
      <defs>
       <path id="DejaVuSans-5f" d="M 3263 -1063 
L 3263 -1509 
L -63 -1509 
L -63 -1063 
L 3263 -1063 
z
" transform="scale(0.015625)"/>
       <path id="DejaVuSans-7a" d="M 353 3500 
L 3084 3500 
L 3084 2975 
L 922 459 
L 3084 459 
L 3084 0 
L 275 0 
L 275 525 
L 2438 3041 
L 353 3041 
L 353 3500 
z
" transform="scale(0.015625)"/>
       <path id="DejaVuSans-64" d="M 2906 2969 
L 2906 4863 
L 3481 4863 
L 3481 0 
L 2906 0 
L 2906 525 
Q 2725 213 2448 61 
Q 2172 -91 1784 -91 
Q 1150 -91 751 415 
Q 353 922 353 1747 
Q 353 2572 751 3078 
Q 1150 3584 1784 3584 
Q 2172 3584 2448 3432 
Q 2725 3281 2906 2969 
z
M 947 1747 
Q 947 1113 1208 752 
Q 1469 391 1925 391 
Q 2381 391 2643 752 
Q 2906 1113 2906 1747 
Q 2906 2381 2643 2742 
Q 2381 3103 1925 3103 
Q 1469 3103 1208 2742 
Q 947 2381 947 1747 
z
" transform="scale(0.015625)"/>
      </defs>
      <use xlink:href="#DejaVuSans-69"/>
      <use xlink:href="#DejaVuSans-6f" x="27.783203"/>
      <use xlink:href="#DejaVuSans-75" x="88.964844"/>
      <use xlink:href="#DejaVuSans-5f" x="152.34375"/>
      <use xlink:href="#DejaVuSans-62" x="202.34375"/>
      <use xlink:href="#DejaVuSans-69" x="265.820312"/>
      <use xlink:href="#DejaVuSans-6e" x="293.603516"/>
      <use xlink:href="#DejaVuSans-61" x="356.982422"/>
      <use xlink:href="#DejaVuSans-72" x="418.261719"/>
      <use xlink:href="#DejaVuSans-69" x="459.375"/>
      <use xlink:href="#DejaVuSans-7a" x="487.158203"/>
      <use xlink:href="#DejaVuSans-65" x="539.648438"/>
      <use xlink:href="#DejaVuSans-64" x="601.171875"/>
     </g>
    </g>
    <g id="line2d_24">
     <path d="M 346.534375 157.180312 
L 356.534375 157.180312 
L 366.534375 157.180312 
" style="fill: none; stroke: #2ca02c; stroke-width: 1.5; stroke-linecap: square"/>
    </g>
    <g id="text_21">
     <!-- iou -->
     <g transform="translate(374.534375 160.680312)scale(0.1 -0.1)">
      <use xlink:href="#DejaVuSans-69"/>
      <use xlink:href="#DejaVuSans-6f" x="27.783203"/>
      <use xlink:href="#DejaVuSans-75" x="88.964844"/>
     </g>
    </g>
    <g id="line2d_25">
     <path d="M 346.534375 171.858437 
L 356.534375 171.858437 
L 366.534375 171.858437 
" style="fill: none; stroke: #d62728; stroke-width: 1.5; stroke-linecap: square"/>
    </g>
    <g id="text_22">
     <!-- recall -->
     <g transform="translate(374.534375 175.358437)scale(0.1 -0.1)">
      <use xlink:href="#DejaVuSans-72"/>
      <use xlink:href="#DejaVuSans-65" x="38.863281"/>
      <use xlink:href="#DejaVuSans-63" x="100.386719"/>
      <use xlink:href="#DejaVuSans-61" x="155.367188"/>
      <use xlink:href="#DejaVuSans-6c" x="216.646484"/>
      <use xlink:href="#DejaVuSans-6c" x="244.429688"/>
     </g>
    </g>
    <g id="line2d_26">
     <path d="M 346.534375 186.536562 
L 356.534375 186.536562 
L 366.534375 186.536562 
" style="fill: none; stroke: #9467bd; stroke-width: 1.5; stroke-linecap: square"/>
    </g>
    <g id="text_23">
     <!-- precision -->
     <g transform="translate(374.534375 190.036562)scale(0.1 -0.1)">
      <use xlink:href="#DejaVuSans-70"/>
      <use xlink:href="#DejaVuSans-72" x="63.476562"/>
      <use xlink:href="#DejaVuSans-65" x="102.339844"/>
      <use xlink:href="#DejaVuSans-63" x="163.863281"/>
      <use xlink:href="#DejaVuSans-69" x="218.84375"/>
      <use xlink:href="#DejaVuSans-73" x="246.626953"/>
      <use xlink:href="#DejaVuSans-69" x="298.726562"/>
      <use xlink:href="#DejaVuSans-6f" x="326.509766"/>
      <use xlink:href="#DejaVuSans-6e" x="387.691406"/>
     </g>
    </g>
    <g id="line2d_27">
     <path d="M 346.534375 201.214687 
L 356.534375 201.214687 
L 366.534375 201.214687 
" style="fill: none; stroke: #8c564b; stroke-width: 1.5; stroke-linecap: square"/>
    </g>
    <g id="text_24">
     <!-- F1_score -->
     <g transform="translate(374.534375 204.714687)scale(0.1 -0.1)">
      <defs>
       <path id="DejaVuSans-46" d="M 628 4666 
L 3309 4666 
L 3309 4134 
L 1259 4134 
L 1259 2759 
L 3109 2759 
L 3109 2228 
L 1259 2228 
L 1259 0 
L 628 0 
L 628 4666 
z
" transform="scale(0.015625)"/>
      </defs>
      <use xlink:href="#DejaVuSans-46"/>
      <use xlink:href="#DejaVuSans-31" x="57.519531"/>
      <use xlink:href="#DejaVuSans-5f" x="121.142578"/>
      <use xlink:href="#DejaVuSans-73" x="171.142578"/>
      <use xlink:href="#DejaVuSans-63" x="223.242188"/>
      <use xlink:href="#DejaVuSans-6f" x="278.222656"/>
      <use xlink:href="#DejaVuSans-72" x="339.404297"/>
      <use xlink:href="#DejaVuSans-65" x="378.267578"/>
     </g>
    </g>
   </g>
  </g>
 </g>
 <defs>
  <clipPath id="p9c376f6cb3">
   <rect x="47.72" y="26.88" width="402.28" height="276.76"/>
  </clipPath>
 </defs>
</svg>
