<?xml version="1.0" encoding="utf-8" standalone="no"?>
<!DOCTYPE svg PUBLIC "-//W3C//DTD SVG 1.1//EN"
  "http://www.w3.org/Graphics/SVG/1.1/DTD/svg11.dtd">
<svg xmlns:xlink="http://www.w3.org/1999/xlink" width="460.8pt" height="345.6pt" viewBox="0 0 460.8 345.6" xmlns="http://www.w3.org/2000/svg" version="1.1">
 <metadata>
  <rdf:RDF xmlns:dc="http://purl.org/dc/elements/1.1/" xmlns:cc="http://creativecommons.org/ns#" xmlns:rdf="http://www.w3.org/1999/02/22-rdf-syntax-ns#">
   <cc:Work>
    <dc:type rdf:resource="http://purl.org/dc/dcmitype/StillImage"/>
    <dc:date>2022-07-14T17:56:22.163342</dc:date>
    <dc:format>image/svg+xml</dc:format>
    <dc:creator>
     <cc:Agent>
      <dc:title>Matplotlib v3.5.1, https://matplotlib.org/</dc:title>
     </cc:Agent>
    </dc:creator>
   </cc:Work>
  </rdf:RDF>
 </metadata>
 <defs>
  <style type="text/css">*{stroke-linejoin: round; stroke-linecap: butt}</style>
 </defs>
 <g id="figure_1">
  <g id="patch_1">
   <path d="M 0 345.6 
L 460.8 345.6 
L 460.8 0 
L 0 0 
z
" style="fill: #ffffff"/>
  </g>
  <g id="axes_1">
   <g id="patch_2">
    <path d="M 47.72 303.64 
L 450 303.64 
L 450 26.88 
L 47.72 26.88 
z
" style="fill: #ffffff"/>
   </g>
   <g id="matplotlib.axis_1">
    <g id="xtick_1">
     <g id="line2d_1">
      <defs>
       <path id="mca2841f7b0" d="M 0 0 
L 0 3.5 
" style="stroke: #000000; stroke-width: 0.8"/>
      </defs>
      <g>
       <use xlink:href="#mca2841f7b0" x="66.005455" y="303.64" style="stroke: #000000; stroke-width: 0.8"/>
      </g>
     </g>
     <g id="text_1">
      <!-- 0 -->
      <g transform="translate(62.824205 318.238437)scale(0.1 -0.1)">
       <defs>
        <path id="DejaVuSans-30" d="M 2034 4250 
Q 1547 4250 1301 3770 
Q 1056 3291 1056 2328 
Q 1056 1369 1301 889 
Q 1547 409 2034 409 
Q 2525 409 2770 889 
Q 3016 1369 3016 2328 
Q 3016 3291 2770 3770 
Q 2525 4250 2034 4250 
z
M 2034 4750 
Q 2819 4750 3233 4129 
Q 3647 3509 3647 2328 
Q 3647 1150 3233 529 
Q 2819 -91 2034 -91 
Q 1250 -91 836 529 
Q 422 1150 422 2328 
Q 422 3509 836 4129 
Q 1250 4750 2034 4750 
z
" transform="scale(0.015625)"/>
       </defs>
       <use xlink:href="#DejaVuSans-30"/>
      </g>
     </g>
    </g>
    <g id="xtick_2">
     <g id="line2d_2">
      <g>
       <use xlink:href="#mca2841f7b0" x="111.948808" y="303.64" style="stroke: #000000; stroke-width: 0.8"/>
      </g>
     </g>
     <g id="text_2">
      <!-- 25 -->
      <g transform="translate(105.586308 318.238437)scale(0.1 -0.1)">
       <defs>
        <path id="DejaVuSans-32" d="M 1228 531 
L 3431 531 
L 3431 0 
L 469 0 
L 469 531 
Q 828 903 1448 1529 
Q 2069 2156 2228 2338 
Q 2531 2678 2651 2914 
Q 2772 3150 2772 3378 
Q 2772 3750 2511 3984 
Q 2250 4219 1831 4219 
Q 1534 4219 1204 4116 
Q 875 4013 500 3803 
L 500 4441 
Q 881 4594 1212 4672 
Q 1544 4750 1819 4750 
Q 2544 4750 2975 4387 
Q 3406 4025 3406 3419 
Q 3406 3131 3298 2873 
Q 3191 2616 2906 2266 
Q 2828 2175 2409 1742 
Q 1991 1309 1228 531 
z
" transform="scale(0.015625)"/>
        <path id="DejaVuSans-35" d="M 691 4666 
L 3169 4666 
L 3169 4134 
L 1269 4134 
L 1269 2991 
Q 1406 3038 1543 3061 
Q 1681 3084 1819 3084 
Q 2600 3084 3056 2656 
Q 3513 2228 3513 1497 
Q 3513 744 3044 326 
Q 2575 -91 1722 -91 
Q 1428 -91 1123 -41 
Q 819 9 494 109 
L 494 744 
Q 775 591 1075 516 
Q 1375 441 1709 441 
Q 2250 441 2565 725 
Q 2881 1009 2881 1497 
Q 2881 1984 2565 2268 
Q 2250 2553 1709 2553 
Q 1456 2553 1204 2497 
Q 953 2441 691 2322 
L 691 4666 
z
" transform="scale(0.015625)"/>
       </defs>
       <use xlink:href="#DejaVuSans-32"/>
       <use xlink:href="#DejaVuSans-35" x="63.623047"/>
      </g>
     </g>
    </g>
    <g id="xtick_3">
     <g id="line2d_3">
      <g>
       <use xlink:href="#mca2841f7b0" x="157.892161" y="303.64" style="stroke: #000000; stroke-width: 0.8"/>
      </g>
     </g>
     <g id="text_3">
      <!-- 50 -->
      <g transform="translate(151.529661 318.238437)scale(0.1 -0.1)">
       <use xlink:href="#DejaVuSans-35"/>
       <use xlink:href="#DejaVuSans-30" x="63.623047"/>
      </g>
     </g>
    </g>
    <g id="xtick_4">
     <g id="line2d_4">
      <g>
       <use xlink:href="#mca2841f7b0" x="203.835514" y="303.64" style="stroke: #000000; stroke-width: 0.8"/>
      </g>
     </g>
     <g id="text_4">
      <!-- 75 -->
      <g transform="translate(197.473014 318.238437)scale(0.1 -0.1)">
       <defs>
        <path id="DejaVuSans-37" d="M 525 4666 
L 3525 4666 
L 3525 4397 
L 1831 0 
L 1172 0 
L 2766 4134 
L 525 4134 
L 525 4666 
z
" transform="scale(0.015625)"/>
       </defs>
       <use xlink:href="#DejaVuSans-37"/>
       <use xlink:href="#DejaVuSans-35" x="63.623047"/>
      </g>
     </g>
    </g>
    <g id="xtick_5">
     <g id="line2d_5">
      <g>
       <use xlink:href="#mca2841f7b0" x="249.778867" y="303.64" style="stroke: #000000; stroke-width: 0.8"/>
      </g>
     </g>
     <g id="text_5">
      <!-- 100 -->
      <g transform="translate(240.235117 318.238437)scale(0.1 -0.1)">
       <defs>
        <path id="DejaVuSans-31" d="M 794 531 
L 1825 531 
L 1825 4091 
L 703 3866 
L 703 4441 
L 1819 4666 
L 2450 4666 
L 2450 531 
L 3481 531 
L 3481 0 
L 794 0 
L 794 531 
z
" transform="scale(0.015625)"/>
       </defs>
       <use xlink:href="#DejaVuSans-31"/>
       <use xlink:href="#DejaVuSans-30" x="63.623047"/>
       <use xlink:href="#DejaVuSans-30" x="127.246094"/>
      </g>
     </g>
    </g>
    <g id="xtick_6">
     <g id="line2d_6">
      <g>
       <use xlink:href="#mca2841f7b0" x="295.72222" y="303.64" style="stroke: #000000; stroke-width: 0.8"/>
      </g>
     </g>
     <g id="text_6">
      <!-- 125 -->
      <g transform="translate(286.17847 318.238437)scale(0.1 -0.1)">
       <use xlink:href="#DejaVuSans-31"/>
       <use xlink:href="#DejaVuSans-32" x="63.623047"/>
       <use xlink:href="#DejaVuSans-35" x="127.246094"/>
      </g>
     </g>
    </g>
    <g id="xtick_7">
     <g id="line2d_7">
      <g>
       <use xlink:href="#mca2841f7b0" x="341.665573" y="303.64" style="stroke: #000000; stroke-width: 0.8"/>
      </g>
     </g>
     <g id="text_7">
      <!-- 150 -->
      <g transform="translate(332.121823 318.238437)scale(0.1 -0.1)">
       <use xlink:href="#DejaVuSans-31"/>
       <use xlink:href="#DejaVuSans-35" x="63.623047"/>
       <use xlink:href="#DejaVuSans-30" x="127.246094"/>
      </g>
     </g>
    </g>
    <g id="xtick_8">
     <g id="line2d_8">
      <g>
       <use xlink:href="#mca2841f7b0" x="387.608926" y="303.64" style="stroke: #000000; stroke-width: 0.8"/>
      </g>
     </g>
     <g id="text_8">
      <!-- 175 -->
      <g transform="translate(378.065176 318.238437)scale(0.1 -0.1)">
       <use xlink:href="#DejaVuSans-31"/>
       <use xlink:href="#DejaVuSans-37" x="63.623047"/>
       <use xlink:href="#DejaVuSans-35" x="127.246094"/>
      </g>
     </g>
    </g>
    <g id="xtick_9">
     <g id="line2d_9">
      <g>
       <use xlink:href="#mca2841f7b0" x="433.55228" y="303.64" style="stroke: #000000; stroke-width: 0.8"/>
      </g>
     </g>
     <g id="text_9">
      <!-- 200 -->
      <g transform="translate(424.00853 318.238437)scale(0.1 -0.1)">
       <use xlink:href="#DejaVuSans-32"/>
       <use xlink:href="#DejaVuSans-30" x="63.623047"/>
       <use xlink:href="#DejaVuSans-30" x="127.246094"/>
      </g>
     </g>
    </g>
    <g id="text_10">
     <!-- number of epochs -->
     <g transform="translate(203.515469 331.916562)scale(0.1 -0.1)">
      <defs>
       <path id="DejaVuSans-6e" d="M 3513 2113 
L 3513 0 
L 2938 0 
L 2938 2094 
Q 2938 2591 2744 2837 
Q 2550 3084 2163 3084 
Q 1697 3084 1428 2787 
Q 1159 2491 1159 1978 
L 1159 0 
L 581 0 
L 581 3500 
L 1159 3500 
L 1159 2956 
Q 1366 3272 1645 3428 
Q 1925 3584 2291 3584 
Q 2894 3584 3203 3211 
Q 3513 2838 3513 2113 
z
" transform="scale(0.015625)"/>
       <path id="DejaVuSans-75" d="M 544 1381 
L 544 3500 
L 1119 3500 
L 1119 1403 
Q 1119 906 1312 657 
Q 1506 409 1894 409 
Q 2359 409 2629 706 
Q 2900 1003 2900 1516 
L 2900 3500 
L 3475 3500 
L 3475 0 
L 2900 0 
L 2900 538 
Q 2691 219 2414 64 
Q 2138 -91 1772 -91 
Q 1169 -91 856 284 
Q 544 659 544 1381 
z
M 1991 3584 
L 1991 3584 
z
" transform="scale(0.015625)"/>
       <path id="DejaVuSans-6d" d="M 3328 2828 
Q 3544 3216 3844 3400 
Q 4144 3584 4550 3584 
Q 5097 3584 5394 3201 
Q 5691 2819 5691 2113 
L 5691 0 
L 5113 0 
L 5113 2094 
Q 5113 2597 4934 2840 
Q 4756 3084 4391 3084 
Q 3944 3084 3684 2787 
Q 3425 2491 3425 1978 
L 3425 0 
L 2847 0 
L 2847 2094 
Q 2847 2600 2669 2842 
Q 2491 3084 2119 3084 
Q 1678 3084 1418 2786 
Q 1159 2488 1159 1978 
L 1159 0 
L 581 0 
L 581 3500 
L 1159 3500 
L 1159 2956 
Q 1356 3278 1631 3431 
Q 1906 3584 2284 3584 
Q 2666 3584 2933 3390 
Q 3200 3197 3328 2828 
z
" transform="scale(0.015625)"/>
       <path id="DejaVuSans-62" d="M 3116 1747 
Q 3116 2381 2855 2742 
Q 2594 3103 2138 3103 
Q 1681 3103 1420 2742 
Q 1159 2381 1159 1747 
Q 1159 1113 1420 752 
Q 1681 391 2138 391 
Q 2594 391 2855 752 
Q 3116 1113 3116 1747 
z
M 1159 2969 
Q 1341 3281 1617 3432 
Q 1894 3584 2278 3584 
Q 2916 3584 3314 3078 
Q 3713 2572 3713 1747 
Q 3713 922 3314 415 
Q 2916 -91 2278 -91 
Q 1894 -91 1617 61 
Q 1341 213 1159 525 
L 1159 0 
L 581 0 
L 581 4863 
L 1159 4863 
L 1159 2969 
z
" transform="scale(0.015625)"/>
       <path id="DejaVuSans-65" d="M 3597 1894 
L 3597 1613 
L 953 1613 
Q 991 1019 1311 708 
Q 1631 397 2203 397 
Q 2534 397 2845 478 
Q 3156 559 3463 722 
L 3463 178 
Q 3153 47 2828 -22 
Q 2503 -91 2169 -91 
Q 1331 -91 842 396 
Q 353 884 353 1716 
Q 353 2575 817 3079 
Q 1281 3584 2069 3584 
Q 2775 3584 3186 3129 
Q 3597 2675 3597 1894 
z
M 3022 2063 
Q 3016 2534 2758 2815 
Q 2500 3097 2075 3097 
Q 1594 3097 1305 2825 
Q 1016 2553 972 2059 
L 3022 2063 
z
" transform="scale(0.015625)"/>
       <path id="DejaVuSans-72" d="M 2631 2963 
Q 2534 3019 2420 3045 
Q 2306 3072 2169 3072 
Q 1681 3072 1420 2755 
Q 1159 2438 1159 1844 
L 1159 0 
L 581 0 
L 581 3500 
L 1159 3500 
L 1159 2956 
Q 1341 3275 1631 3429 
Q 1922 3584 2338 3584 
Q 2397 3584 2469 3576 
Q 2541 3569 2628 3553 
L 2631 2963 
z
" transform="scale(0.015625)"/>
       <path id="DejaVuSans-20" transform="scale(0.015625)"/>
       <path id="DejaVuSans-6f" d="M 1959 3097 
Q 1497 3097 1228 2736 
Q 959 2375 959 1747 
Q 959 1119 1226 758 
Q 1494 397 1959 397 
Q 2419 397 2687 759 
Q 2956 1122 2956 1747 
Q 2956 2369 2687 2733 
Q 2419 3097 1959 3097 
z
M 1959 3584 
Q 2709 3584 3137 3096 
Q 3566 2609 3566 1747 
Q 3566 888 3137 398 
Q 2709 -91 1959 -91 
Q 1206 -91 779 398 
Q 353 888 353 1747 
Q 353 2609 779 3096 
Q 1206 3584 1959 3584 
z
" transform="scale(0.015625)"/>
       <path id="DejaVuSans-66" d="M 2375 4863 
L 2375 4384 
L 1825 4384 
Q 1516 4384 1395 4259 
Q 1275 4134 1275 3809 
L 1275 3500 
L 2222 3500 
L 2222 3053 
L 1275 3053 
L 1275 0 
L 697 0 
L 697 3053 
L 147 3053 
L 147 3500 
L 697 3500 
L 697 3744 
Q 697 4328 969 4595 
Q 1241 4863 1831 4863 
L 2375 4863 
z
" transform="scale(0.015625)"/>
       <path id="DejaVuSans-70" d="M 1159 525 
L 1159 -1331 
L 581 -1331 
L 581 3500 
L 1159 3500 
L 1159 2969 
Q 1341 3281 1617 3432 
Q 1894 3584 2278 3584 
Q 2916 3584 3314 3078 
Q 3713 2572 3713 1747 
Q 3713 922 3314 415 
Q 2916 -91 2278 -91 
Q 1894 -91 1617 61 
Q 1341 213 1159 525 
z
M 3116 1747 
Q 3116 2381 2855 2742 
Q 2594 3103 2138 3103 
Q 1681 3103 1420 2742 
Q 1159 2381 1159 1747 
Q 1159 1113 1420 752 
Q 1681 391 2138 391 
Q 2594 391 2855 752 
Q 3116 1113 3116 1747 
z
" transform="scale(0.015625)"/>
       <path id="DejaVuSans-63" d="M 3122 3366 
L 3122 2828 
Q 2878 2963 2633 3030 
Q 2388 3097 2138 3097 
Q 1578 3097 1268 2742 
Q 959 2388 959 1747 
Q 959 1106 1268 751 
Q 1578 397 2138 397 
Q 2388 397 2633 464 
Q 2878 531 3122 666 
L 3122 134 
Q 2881 22 2623 -34 
Q 2366 -91 2075 -91 
Q 1284 -91 818 406 
Q 353 903 353 1747 
Q 353 2603 823 3093 
Q 1294 3584 2113 3584 
Q 2378 3584 2631 3529 
Q 2884 3475 3122 3366 
z
" transform="scale(0.015625)"/>
       <path id="DejaVuSans-68" d="M 3513 2113 
L 3513 0 
L 2938 0 
L 2938 2094 
Q 2938 2591 2744 2837 
Q 2550 3084 2163 3084 
Q 1697 3084 1428 2787 
Q 1159 2491 1159 1978 
L 1159 0 
L 581 0 
L 581 4863 
L 1159 4863 
L 1159 2956 
Q 1366 3272 1645 3428 
Q 1925 3584 2291 3584 
Q 2894 3584 3203 3211 
Q 3513 2838 3513 2113 
z
" transform="scale(0.015625)"/>
       <path id="DejaVuSans-73" d="M 2834 3397 
L 2834 2853 
Q 2591 2978 2328 3040 
Q 2066 3103 1784 3103 
Q 1356 3103 1142 2972 
Q 928 2841 928 2578 
Q 928 2378 1081 2264 
Q 1234 2150 1697 2047 
L 1894 2003 
Q 2506 1872 2764 1633 
Q 3022 1394 3022 966 
Q 3022 478 2636 193 
Q 2250 -91 1575 -91 
Q 1294 -91 989 -36 
Q 684 19 347 128 
L 347 722 
Q 666 556 975 473 
Q 1284 391 1588 391 
Q 1994 391 2212 530 
Q 2431 669 2431 922 
Q 2431 1156 2273 1281 
Q 2116 1406 1581 1522 
L 1381 1569 
Q 847 1681 609 1914 
Q 372 2147 372 2553 
Q 372 3047 722 3315 
Q 1072 3584 1716 3584 
Q 2034 3584 2315 3537 
Q 2597 3491 2834 3397 
z
" transform="scale(0.015625)"/>
      </defs>
      <use xlink:href="#DejaVuSans-6e"/>
      <use xlink:href="#DejaVuSans-75" x="63.378906"/>
      <use xlink:href="#DejaVuSans-6d" x="126.757812"/>
      <use xlink:href="#DejaVuSans-62" x="224.169922"/>
      <use xlink:href="#DejaVuSans-65" x="287.646484"/>
      <use xlink:href="#DejaVuSans-72" x="349.169922"/>
      <use xlink:href="#DejaVuSans-20" x="390.283203"/>
      <use xlink:href="#DejaVuSans-6f" x="422.070312"/>
      <use xlink:href="#DejaVuSans-66" x="483.251953"/>
      <use xlink:href="#DejaVuSans-20" x="518.457031"/>
      <use xlink:href="#DejaVuSans-65" x="550.244141"/>
      <use xlink:href="#DejaVuSans-70" x="611.767578"/>
      <use xlink:href="#DejaVuSans-6f" x="675.244141"/>
      <use xlink:href="#DejaVuSans-63" x="736.425781"/>
      <use xlink:href="#DejaVuSans-68" x="791.40625"/>
      <use xlink:href="#DejaVuSans-73" x="854.785156"/>
     </g>
    </g>
   </g>
   <g id="matplotlib.axis_2">
    <g id="ytick_1">
     <g id="line2d_10">
      <defs>
       <path id="m3bfc2f0f79" d="M 0 0 
L -3.5 0 
" style="stroke: #000000; stroke-width: 0.8"/>
      </defs>
      <g>
       <use xlink:href="#m3bfc2f0f79" x="47.72" y="292.916455" style="stroke: #000000; stroke-width: 0.8"/>
      </g>
     </g>
     <g id="text_11">
      <!-- 0.0 -->
      <g transform="translate(24.816875 296.715673)scale(0.1 -0.1)">
       <defs>
        <path id="DejaVuSans-2e" d="M 684 794 
L 1344 794 
L 1344 0 
L 684 0 
L 684 794 
z
" transform="scale(0.015625)"/>
       </defs>
       <use xlink:href="#DejaVuSans-30"/>
       <use xlink:href="#DejaVuSans-2e" x="63.623047"/>
       <use xlink:href="#DejaVuSans-30" x="95.410156"/>
      </g>
     </g>
    </g>
    <g id="ytick_2">
     <g id="line2d_11">
      <g>
       <use xlink:href="#m3bfc2f0f79" x="47.72" y="261.880612" style="stroke: #000000; stroke-width: 0.8"/>
      </g>
     </g>
     <g id="text_12">
      <!-- 0.1 -->
      <g transform="translate(24.816875 265.679831)scale(0.1 -0.1)">
       <use xlink:href="#DejaVuSans-30"/>
       <use xlink:href="#DejaVuSans-2e" x="63.623047"/>
       <use xlink:href="#DejaVuSans-31" x="95.410156"/>
      </g>
     </g>
    </g>
    <g id="ytick_3">
     <g id="line2d_12">
      <g>
       <use xlink:href="#m3bfc2f0f79" x="47.72" y="230.84477" style="stroke: #000000; stroke-width: 0.8"/>
      </g>
     </g>
     <g id="text_13">
      <!-- 0.2 -->
      <g transform="translate(24.816875 234.643989)scale(0.1 -0.1)">
       <use xlink:href="#DejaVuSans-30"/>
       <use xlink:href="#DejaVuSans-2e" x="63.623047"/>
       <use xlink:href="#DejaVuSans-32" x="95.410156"/>
      </g>
     </g>
    </g>
    <g id="ytick_4">
     <g id="line2d_13">
      <g>
       <use xlink:href="#m3bfc2f0f79" x="47.72" y="199.808928" style="stroke: #000000; stroke-width: 0.8"/>
      </g>
     </g>
     <g id="text_14">
      <!-- 0.3 -->
      <g transform="translate(24.816875 203.608146)scale(0.1 -0.1)">
       <defs>
        <path id="DejaVuSans-33" d="M 2597 2516 
Q 3050 2419 3304 2112 
Q 3559 1806 3559 1356 
Q 3559 666 3084 287 
Q 2609 -91 1734 -91 
Q 1441 -91 1130 -33 
Q 819 25 488 141 
L 488 750 
Q 750 597 1062 519 
Q 1375 441 1716 441 
Q 2309 441 2620 675 
Q 2931 909 2931 1356 
Q 2931 1769 2642 2001 
Q 2353 2234 1838 2234 
L 1294 2234 
L 1294 2753 
L 1863 2753 
Q 2328 2753 2575 2939 
Q 2822 3125 2822 3475 
Q 2822 3834 2567 4026 
Q 2313 4219 1838 4219 
Q 1578 4219 1281 4162 
Q 984 4106 628 3988 
L 628 4550 
Q 988 4650 1302 4700 
Q 1616 4750 1894 4750 
Q 2613 4750 3031 4423 
Q 3450 4097 3450 3541 
Q 3450 3153 3228 2886 
Q 3006 2619 2597 2516 
z
" transform="scale(0.015625)"/>
       </defs>
       <use xlink:href="#DejaVuSans-30"/>
       <use xlink:href="#DejaVuSans-2e" x="63.623047"/>
       <use xlink:href="#DejaVuSans-33" x="95.410156"/>
      </g>
     </g>
    </g>
    <g id="ytick_5">
     <g id="line2d_14">
      <g>
       <use xlink:href="#m3bfc2f0f79" x="47.72" y="168.773085" style="stroke: #000000; stroke-width: 0.8"/>
      </g>
     </g>
     <g id="text_15">
      <!-- 0.4 -->
      <g transform="translate(24.816875 172.572304)scale(0.1 -0.1)">
       <defs>
        <path id="DejaVuSans-34" d="M 2419 4116 
L 825 1625 
L 2419 1625 
L 2419 4116 
z
M 2253 4666 
L 3047 4666 
L 3047 1625 
L 3713 1625 
L 3713 1100 
L 3047 1100 
L 3047 0 
L 2419 0 
L 2419 1100 
L 313 1100 
L 313 1709 
L 2253 4666 
z
" transform="scale(0.015625)"/>
       </defs>
       <use xlink:href="#DejaVuSans-30"/>
       <use xlink:href="#DejaVuSans-2e" x="63.623047"/>
       <use xlink:href="#DejaVuSans-34" x="95.410156"/>
      </g>
     </g>
    </g>
    <g id="ytick_6">
     <g id="line2d_15">
      <g>
       <use xlink:href="#m3bfc2f0f79" x="47.72" y="137.737243" style="stroke: #000000; stroke-width: 0.8"/>
      </g>
     </g>
     <g id="text_16">
      <!-- 0.5 -->
      <g transform="translate(24.816875 141.536462)scale(0.1 -0.1)">
       <use xlink:href="#DejaVuSans-30"/>
       <use xlink:href="#DejaVuSans-2e" x="63.623047"/>
       <use xlink:href="#DejaVuSans-35" x="95.410156"/>
      </g>
     </g>
    </g>
    <g id="ytick_7">
     <g id="line2d_16">
      <g>
       <use xlink:href="#m3bfc2f0f79" x="47.72" y="106.701401" style="stroke: #000000; stroke-width: 0.8"/>
      </g>
     </g>
     <g id="text_17">
      <!-- 0.6 -->
      <g transform="translate(24.816875 110.50062)scale(0.1 -0.1)">
       <defs>
        <path id="DejaVuSans-36" d="M 2113 2584 
Q 1688 2584 1439 2293 
Q 1191 2003 1191 1497 
Q 1191 994 1439 701 
Q 1688 409 2113 409 
Q 2538 409 2786 701 
Q 3034 994 3034 1497 
Q 3034 2003 2786 2293 
Q 2538 2584 2113 2584 
z
M 3366 4563 
L 3366 3988 
Q 3128 4100 2886 4159 
Q 2644 4219 2406 4219 
Q 1781 4219 1451 3797 
Q 1122 3375 1075 2522 
Q 1259 2794 1537 2939 
Q 1816 3084 2150 3084 
Q 2853 3084 3261 2657 
Q 3669 2231 3669 1497 
Q 3669 778 3244 343 
Q 2819 -91 2113 -91 
Q 1303 -91 875 529 
Q 447 1150 447 2328 
Q 447 3434 972 4092 
Q 1497 4750 2381 4750 
Q 2619 4750 2861 4703 
Q 3103 4656 3366 4563 
z
" transform="scale(0.015625)"/>
       </defs>
       <use xlink:href="#DejaVuSans-30"/>
       <use xlink:href="#DejaVuSans-2e" x="63.623047"/>
       <use xlink:href="#DejaVuSans-36" x="95.410156"/>
      </g>
     </g>
    </g>
    <g id="ytick_8">
     <g id="line2d_17">
      <g>
       <use xlink:href="#m3bfc2f0f79" x="47.72" y="75.665559" style="stroke: #000000; stroke-width: 0.8"/>
      </g>
     </g>
     <g id="text_18">
      <!-- 0.7 -->
      <g transform="translate(24.816875 79.464777)scale(0.1 -0.1)">
       <use xlink:href="#DejaVuSans-30"/>
       <use xlink:href="#DejaVuSans-2e" x="63.623047"/>
       <use xlink:href="#DejaVuSans-37" x="95.410156"/>
      </g>
     </g>
    </g>
    <g id="ytick_9">
     <g id="line2d_18">
      <g>
       <use xlink:href="#m3bfc2f0f79" x="47.72" y="44.629716" style="stroke: #000000; stroke-width: 0.8"/>
      </g>
     </g>
     <g id="text_19">
      <!-- 0.8 -->
      <g transform="translate(24.816875 48.428935)scale(0.1 -0.1)">
       <defs>
        <path id="DejaVuSans-38" d="M 2034 2216 
Q 1584 2216 1326 1975 
Q 1069 1734 1069 1313 
Q 1069 891 1326 650 
Q 1584 409 2034 409 
Q 2484 409 2743 651 
Q 3003 894 3003 1313 
Q 3003 1734 2745 1975 
Q 2488 2216 2034 2216 
z
M 1403 2484 
Q 997 2584 770 2862 
Q 544 3141 544 3541 
Q 544 4100 942 4425 
Q 1341 4750 2034 4750 
Q 2731 4750 3128 4425 
Q 3525 4100 3525 3541 
Q 3525 3141 3298 2862 
Q 3072 2584 2669 2484 
Q 3125 2378 3379 2068 
Q 3634 1759 3634 1313 
Q 3634 634 3220 271 
Q 2806 -91 2034 -91 
Q 1263 -91 848 271 
Q 434 634 434 1313 
Q 434 1759 690 2068 
Q 947 2378 1403 2484 
z
M 1172 3481 
Q 1172 3119 1398 2916 
Q 1625 2713 2034 2713 
Q 2441 2713 2670 2916 
Q 2900 3119 2900 3481 
Q 2900 3844 2670 4047 
Q 2441 4250 2034 4250 
Q 1625 4250 1398 4047 
Q 1172 3844 1172 3481 
z
" transform="scale(0.015625)"/>
       </defs>
       <use xlink:href="#DejaVuSans-30"/>
       <use xlink:href="#DejaVuSans-2e" x="63.623047"/>
       <use xlink:href="#DejaVuSans-38" x="95.410156"/>
      </g>
     </g>
    </g>
    <g id="text_20">
     <!-- metrics -->
     <g transform="translate(18.737188 183.965469)rotate(-90)scale(0.1 -0.1)">
      <defs>
       <path id="DejaVuSans-74" d="M 1172 4494 
L 1172 3500 
L 2356 3500 
L 2356 3053 
L 1172 3053 
L 1172 1153 
Q 1172 725 1289 603 
Q 1406 481 1766 481 
L 2356 481 
L 2356 0 
L 1766 0 
Q 1100 0 847 248 
Q 594 497 594 1153 
L 594 3053 
L 172 3053 
L 172 3500 
L 594 3500 
L 594 4494 
L 1172 4494 
z
" transform="scale(0.015625)"/>
       <path id="DejaVuSans-69" d="M 603 3500 
L 1178 3500 
L 1178 0 
L 603 0 
L 603 3500 
z
M 603 4863 
L 1178 4863 
L 1178 4134 
L 603 4134 
L 603 4863 
z
" transform="scale(0.015625)"/>
      </defs>
      <use xlink:href="#DejaVuSans-6d"/>
      <use xlink:href="#DejaVuSans-65" x="97.412109"/>
      <use xlink:href="#DejaVuSans-74" x="158.935547"/>
      <use xlink:href="#DejaVuSans-72" x="198.144531"/>
      <use xlink:href="#DejaVuSans-69" x="239.257812"/>
      <use xlink:href="#DejaVuSans-63" x="267.041016"/>
      <use xlink:href="#DejaVuSans-73" x="322.021484"/>
     </g>
    </g>
   </g>
   <g id="line2d_19">
    <path d="M 66.005455 271.856612 
L 67.843189 281.84091 
L 69.680923 283.293987 
L 71.518657 284.528821 
L 73.356391 285.306412 
L 75.194125 285.718375 
L 78.869593 286.225699 
L 82.545062 286.42496 
L 84.382796 287.058577 
L 86.22053 287.414433 
L 89.895998 287.64865 
L 93.571466 287.945005 
L 99.084669 288.176863 
L 102.760137 288.185728 
L 106.435605 287.967731 
L 110.111074 287.678684 
L 111.948808 287.838628 
L 113.786542 288.44371 
L 115.624276 288.495011 
L 117.46201 288.782964 
L 121.137478 288.998785 
L 134.001617 289.284964 
L 159.729895 289.703493 
L 214.861919 290.264465 
L 273.669411 290.600714 
L 277.344879 290.485649 
L 279.182613 289.084 
L 281.020347 285.460868 
L 282.858081 287.102155 
L 284.695815 289.374963 
L 286.53355 289.818464 
L 288.371284 290.130181 
L 292.046752 290.406719 
L 299.397688 290.562657 
L 328.801434 290.740289 
L 418.850407 291.049762 
L 424.363609 290.856454 
L 428.039077 290.617728 
L 429.876811 290.606125 
L 431.714545 290.723194 
L 431.714545 290.723194 
" clip-path="url(#pe7d97b5046)" style="fill: none; stroke: #1f77b4; stroke-width: 1.5; stroke-linecap: square"/>
   </g>
   <g id="line2d_20">
    <path d="M 66.005455 243.248365 
L 67.843189 218.589649 
L 69.680923 205.745153 
L 71.518657 196.33212 
L 73.356391 185.642226 
L 75.194125 179.299522 
L 77.031859 173.408421 
L 78.869593 169.175803 
L 80.707328 165.312568 
L 82.545062 163.082815 
L 84.382796 151.174339 
L 86.22053 143.924076 
L 88.058264 140.41981 
L 89.895998 137.849827 
L 91.733732 134.212925 
L 93.571466 130.99393 
L 95.409201 128.361051 
L 97.246935 126.241162 
L 99.084669 124.746606 
L 100.922403 123.789423 
L 102.760137 123.604768 
L 104.597871 124.38834 
L 106.435605 126.345254 
L 108.273339 128.878925 
L 110.111074 130.653718 
L 111.948808 130.400248 
L 113.786542 124.428908 
L 115.624276 121.760992 
L 117.46201 116.306934 
L 119.299744 112.174339 
L 121.137478 110.672587 
L 122.975212 109.008083 
L 126.650681 106.425114 
L 130.326149 104.513558 
L 135.839351 102.023231 
L 141.352554 99.451694 
L 154.216693 94.222212 
L 161.567629 91.67648 
L 168.918566 89.45716 
L 174.431768 87.801369 
L 190.971375 82.87795 
L 207.510982 78.267863 
L 214.861919 76.573669 
L 231.401526 73.459062 
L 246.103399 71.192089 
L 253.454335 70.124042 
L 262.643006 68.989011 
L 268.156208 68.758609 
L 269.993942 68.162966 
L 271.831677 67.398706 
L 273.669411 67.039737 
L 275.507145 69.415187 
L 277.344879 71.560641 
L 279.182613 99.792664 
L 281.020347 144.826521 
L 282.858081 138.027008 
L 284.695815 99.455005 
L 286.53355 88.957082 
L 288.371284 81.152326 
L 290.209018 75.364735 
L 292.046752 72.34708 
L 293.884486 70.491817 
L 295.72222 69.344873 
L 297.559954 68.555085 
L 299.397688 67.944106 
L 304.910891 66.49626 
L 314.099561 64.911801 
L 317.77503 64.356004 
L 334.314637 62.127139 
L 352.691978 59.93109 
L 363.718383 58.669398 
L 372.907053 57.615003 
L 376.582522 57.221515 
L 415.174938 52.58664 
L 417.012672 52.652736 
L 418.850407 52.934861 
L 420.688141 53.734398 
L 422.525875 55.658514 
L 424.363609 58.590353 
L 426.201343 63.072039 
L 428.039077 65.383761 
L 429.876811 65.166529 
L 431.714545 60.644182 
L 431.714545 60.644182 
" clip-path="url(#pe7d97b5046)" style="fill: none; stroke: #ff7f0e; stroke-width: 1.5; stroke-linecap: square"/>
   </g>
   <g id="line2d_21">
    <path d="M 66.005455 253.882957 
L 67.843189 239.44632 
L 69.680923 227.309083 
L 73.356391 208.987605 
L 75.194125 203.196295 
L 77.031859 199.498903 
L 78.869593 195.402426 
L 82.545062 190.037292 
L 84.382796 183.386195 
L 86.22053 177.213098 
L 88.058264 173.147468 
L 89.895998 170.742364 
L 91.733732 167.323129 
L 93.571466 164.634097 
L 95.409201 162.341355 
L 97.246935 160.317956 
L 99.084669 158.709614 
L 100.922403 157.720992 
L 102.760137 157.459419 
L 104.597871 158.155214 
L 106.435605 160.084926 
L 108.273339 162.678625 
L 110.111074 165.003499 
L 111.948808 164.407958 
L 113.786542 154.788108 
L 115.624276 154.531086 
L 117.46201 149.908337 
L 119.299744 146.378025 
L 121.137478 144.14571 
L 122.975212 142.291787 
L 124.812947 140.756868 
L 126.650681 139.508531 
L 130.326149 137.498498 
L 143.190288 131.084592 
L 152.378958 127.000371 
L 157.892161 124.812462 
L 165.243097 122.21843 
L 179.94497 117.391982 
L 203.835514 109.761503 
L 211.18645 107.730704 
L 220.375121 105.440293 
L 229.563792 103.356125 
L 240.590196 101.070136 
L 251.616601 99.007464 
L 262.643006 97.191048 
L 266.318474 96.800445 
L 268.156208 96.612516 
L 271.831677 95.684376 
L 273.669411 95.178063 
L 275.507145 96.191927 
L 277.344879 98.114508 
L 279.182613 118.250714 
L 281.020347 168.958201 
L 282.858081 169.011912 
L 284.695815 138.269361 
L 286.53355 126.626159 
L 288.371284 117.745087 
L 290.209018 110.596169 
L 292.046752 106.706481 
L 293.884486 103.608227 
L 295.72222 101.40846 
L 297.559954 99.824685 
L 299.397688 98.582602 
L 301.235423 97.584795 
L 304.910891 95.998448 
L 308.586359 94.769332 
L 314.099561 93.298122 
L 319.612764 92.0543 
L 326.9637 90.619292 
L 336.152371 89.03302 
L 349.01651 87.047432 
L 367.393851 84.473472 
L 389.446661 81.352483 
L 413.337204 77.795811 
L 415.174938 77.592268 
L 417.012672 77.523138 
L 418.850407 77.705814 
L 420.688141 78.353938 
L 422.525875 79.949145 
L 424.363609 82.571036 
L 426.201343 86.778534 
L 428.039077 89.326688 
L 429.876811 89.962011 
L 431.714545 89.347055 
L 431.714545 89.347055 
" clip-path="url(#pe7d97b5046)" style="fill: none; stroke: #2ca02c; stroke-width: 1.5; stroke-linecap: square"/>
   </g>
   <g id="line2d_22">
    <path d="M 66.005455 221.924618 
L 67.843189 197.66224 
L 69.680923 179.583276 
L 71.518657 170.845135 
L 73.356391 159.343698 
L 77.031859 147.047497 
L 80.707328 139.043712 
L 82.545062 137.135829 
L 84.382796 127.728743 
L 86.22053 123.006405 
L 88.058264 121.519361 
L 91.733732 112.951066 
L 95.409201 108.46346 
L 97.246935 106.497962 
L 99.084669 104.844576 
L 100.922403 103.725158 
L 102.760137 103.200347 
L 104.597871 103.393992 
L 106.435605 104.954977 
L 108.273339 107.809157 
L 110.111074 109.451518 
L 111.948808 112.874944 
L 113.786542 105.380098 
L 117.46201 97.581668 
L 119.299744 94.664629 
L 121.137478 92.858757 
L 122.975212 90.802504 
L 124.812947 89.367219 
L 126.650681 88.172807 
L 128.488415 87.233049 
L 141.352554 81.735575 
L 152.378958 77.682191 
L 157.892161 75.882035 
L 165.243097 73.813629 
L 179.94497 70.004262 
L 203.835514 64.030203 
L 213.024185 62.016738 
L 224.050589 59.896701 
L 236.914728 57.739241 
L 247.941133 56.124 
L 258.967538 54.768241 
L 262.643006 54.343157 
L 268.156208 54.004444 
L 269.993942 53.270744 
L 271.831677 52.24665 
L 273.669411 52.767873 
L 275.507145 54.863787 
L 277.344879 55.590846 
L 279.182613 74.444697 
L 281.020347 105.130568 
L 282.858081 120.325799 
L 284.695815 85.925239 
L 286.53355 77.563873 
L 288.371284 70.580204 
L 290.209018 64.899074 
L 292.046752 61.40341 
L 293.884486 59.076427 
L 295.72222 57.283708 
L 297.559954 56.023144 
L 299.397688 55.058543 
L 301.235423 54.297872 
L 304.910891 53.117186 
L 308.586359 52.164608 
L 314.099561 51.032371 
L 321.450498 49.793524 
L 330.639169 48.497239 
L 343.503307 46.946077 
L 361.880649 45.003888 
L 411.49947 39.968717 
L 415.174938 39.568458 
L 417.012672 39.46 
L 418.850407 39.476704 
L 420.688141 39.789797 
L 422.525875 40.577568 
L 424.363609 41.803151 
L 426.201343 44.702949 
L 428.039077 49.321139 
L 429.876811 48.207659 
L 431.714545 46.501033 
L 431.714545 46.501033 
" clip-path="url(#pe7d97b5046)" style="fill: none; stroke: #d62728; stroke-width: 1.5; stroke-linecap: square"/>
   </g>
   <g id="line2d_23">
    <path d="M 66.005455 212.085017 
L 67.843189 201.050369 
L 69.680923 186.320494 
L 71.518657 174.299287 
L 73.356391 164.246732 
L 75.194125 155.618131 
L 77.031859 151.191756 
L 78.869593 145.443336 
L 80.707328 142.558688 
L 82.545062 138.122878 
L 84.382796 134.839961 
L 88.058264 120.804715 
L 89.895998 119.869933 
L 91.733732 117.584036 
L 93.571466 114.836686 
L 95.409201 112.715687 
L 97.246935 110.827108 
L 99.084669 109.353585 
L 100.922403 108.420543 
L 102.760137 108.084919 
L 104.597871 108.429589 
L 106.435605 109.005142 
L 108.273339 109.35945 
L 110.111074 111.826616 
L 111.948808 109.739859 
L 113.786542 101.546591 
L 115.624276 104.037362 
L 117.46201 100.455309 
L 119.299744 97.570144 
L 121.137478 95.250542 
L 124.812947 92.685035 
L 128.488415 90.664762 
L 134.001617 88.005078 
L 141.352554 84.702672 
L 148.70349 81.656844 
L 156.054427 78.931989 
L 163.405363 76.465358 
L 172.594034 73.681677 
L 183.620439 70.601626 
L 196.484577 67.217714 
L 205.673248 65.045159 
L 214.861919 63.11294 
L 225.888323 61.013751 
L 240.590196 58.506183 
L 253.454335 56.514546 
L 266.318474 54.68039 
L 268.156208 54.595314 
L 271.831677 54.877828 
L 273.669411 53.661346 
L 275.507145 52.90802 
L 277.344879 54.722789 
L 279.182613 58.566397 
L 281.020347 114.813637 
L 282.858081 104.442745 
L 284.695815 89.696609 
L 286.53355 78.370143 
L 288.371284 71.070497 
L 290.209018 65.496493 
L 293.884486 60.276019 
L 295.72222 58.602636 
L 297.559954 57.376369 
L 299.397688 56.4052 
L 303.073157 54.934046 
L 306.748625 53.859635 
L 312.261827 52.657009 
L 319.612764 51.382978 
L 328.801434 50.067991 
L 339.827839 48.698395 
L 356.367446 46.873913 
L 391.284395 43.141447 
L 407.824002 41.157191 
L 415.174938 40.569392 
L 417.012672 40.540793 
L 418.850407 40.701177 
L 420.688141 41.163148 
L 422.525875 42.360853 
L 424.363609 44.502737 
L 426.201343 47.212275 
L 428.039077 46.787302 
L 429.876811 48.666374 
L 431.714545 49.98519 
L 431.714545 49.98519 
" clip-path="url(#pe7d97b5046)" style="fill: none; stroke: #9467bd; stroke-width: 1.5; stroke-linecap: square"/>
   </g>
   <g id="line2d_24">
    <path d="M 66.005455 226.726214 
L 67.843189 203.394741 
L 69.680923 187.131638 
L 71.518657 175.127617 
L 73.356391 164.023507 
L 75.194125 157.031736 
L 78.869593 147.586718 
L 80.707328 144.354598 
L 82.545062 141.590757 
L 84.382796 133.887272 
L 86.22053 127.175906 
L 88.058264 122.957014 
L 89.895998 120.445579 
L 91.733732 116.91634 
L 93.571466 114.109017 
L 95.409201 111.775005 
L 97.246935 109.760633 
L 99.084669 108.185645 
L 100.922403 107.229571 
L 102.760137 106.993564 
L 104.597871 107.696093 
L 106.435605 109.569411 
L 108.273339 111.989887 
L 110.111074 114.072963 
L 111.948808 113.609531 
L 113.786542 104.809132 
L 115.624276 104.5229 
L 117.46201 100.039512 
L 119.299744 96.775065 
L 121.137478 94.703883 
L 122.975212 93.005194 
L 124.812947 91.597268 
L 126.650681 90.467361 
L 130.326149 88.671091 
L 141.352554 83.795934 
L 150.541224 80.20959 
L 156.054427 78.263719 
L 161.567629 76.536467 
L 172.594034 73.403751 
L 198.322312 66.380328 
L 205.673248 64.554145 
L 214.861919 62.548227 
L 224.050589 60.759374 
L 235.076994 58.834555 
L 247.941133 56.837906 
L 258.967538 55.36714 
L 264.48074 54.71526 
L 268.156208 54.454094 
L 271.831677 53.696161 
L 273.669411 53.327591 
L 275.507145 54.130421 
L 277.344879 55.650578 
L 279.182613 71.66231 
L 281.020347 118.299292 
L 282.858081 117.717708 
L 284.695815 89.028284 
L 286.53355 78.55502 
L 288.371284 71.230289 
L 290.209018 65.414746 
L 292.046752 62.336009 
L 293.884486 59.888007 
L 295.72222 58.163752 
L 297.559954 56.931491 
L 299.397688 55.96737 
L 303.073157 54.536025 
L 306.748625 53.463076 
L 310.424093 52.609079 
L 315.937296 51.549079 
L 323.288232 50.362862 
L 334.314637 48.859113 
L 349.01651 47.133933 
L 369.231585 45.024792 
L 393.122129 42.49138 
L 411.49947 40.486351 
L 415.174938 40.160994 
L 417.012672 40.110381 
L 418.850407 40.238781 
L 420.688141 40.69683 
L 422.525875 41.836264 
L 424.363609 43.71565 
L 426.201343 46.807854 
L 428.039077 48.605217 
L 429.876811 49.135189 
L 431.714545 48.668667 
L 431.714545 48.668667 
" clip-path="url(#pe7d97b5046)" style="fill: none; stroke: #8c564b; stroke-width: 1.5; stroke-linecap: square"/>
   </g>
   <g id="patch_3">
    <path d="M 47.72 303.64 
L 47.72 26.88 
" style="fill: none; stroke: #000000; stroke-width: 0.8; stroke-linejoin: miter; stroke-linecap: square"/>
   </g>
   <g id="patch_4">
    <path d="M 450 303.64 
L 450 26.88 
" style="fill: none; stroke: #000000; stroke-width: 0.8; stroke-linejoin: miter; stroke-linecap: square"/>
   </g>
   <g id="patch_5">
    <path d="M 47.72 303.64 
L 450 303.64 
" style="fill: none; stroke: #000000; stroke-width: 0.8; stroke-linejoin: miter; stroke-linecap: square"/>
   </g>
   <g id="patch_6">
    <path d="M 47.72 26.88 
L 450 26.88 
" style="fill: none; stroke: #000000; stroke-width: 0.8; stroke-linejoin: miter; stroke-linecap: square"/>
   </g>
   <g id="text_21">
    <!-- Metrics of training -->
    <g transform="translate(194.240312 20.88)scale(0.12 -0.12)">
     <defs>
      <path id="DejaVuSans-4d" d="M 628 4666 
L 1569 4666 
L 2759 1491 
L 3956 4666 
L 4897 4666 
L 4897 0 
L 4281 0 
L 4281 4097 
L 3078 897 
L 2444 897 
L 1241 4097 
L 1241 0 
L 628 0 
L 628 4666 
z
" transform="scale(0.015625)"/>
      <path id="DejaVuSans-61" d="M 2194 1759 
Q 1497 1759 1228 1600 
Q 959 1441 959 1056 
Q 959 750 1161 570 
Q 1363 391 1709 391 
Q 2188 391 2477 730 
Q 2766 1069 2766 1631 
L 2766 1759 
L 2194 1759 
z
M 3341 1997 
L 3341 0 
L 2766 0 
L 2766 531 
Q 2569 213 2275 61 
Q 1981 -91 1556 -91 
Q 1019 -91 701 211 
Q 384 513 384 1019 
Q 384 1609 779 1909 
Q 1175 2209 1959 2209 
L 2766 2209 
L 2766 2266 
Q 2766 2663 2505 2880 
Q 2244 3097 1772 3097 
Q 1472 3097 1187 3025 
Q 903 2953 641 2809 
L 641 3341 
Q 956 3463 1253 3523 
Q 1550 3584 1831 3584 
Q 2591 3584 2966 3190 
Q 3341 2797 3341 1997 
z
" transform="scale(0.015625)"/>
      <path id="DejaVuSans-67" d="M 2906 1791 
Q 2906 2416 2648 2759 
Q 2391 3103 1925 3103 
Q 1463 3103 1205 2759 
Q 947 2416 947 1791 
Q 947 1169 1205 825 
Q 1463 481 1925 481 
Q 2391 481 2648 825 
Q 2906 1169 2906 1791 
z
M 3481 434 
Q 3481 -459 3084 -895 
Q 2688 -1331 1869 -1331 
Q 1566 -1331 1297 -1286 
Q 1028 -1241 775 -1147 
L 775 -588 
Q 1028 -725 1275 -790 
Q 1522 -856 1778 -856 
Q 2344 -856 2625 -561 
Q 2906 -266 2906 331 
L 2906 616 
Q 2728 306 2450 153 
Q 2172 0 1784 0 
Q 1141 0 747 490 
Q 353 981 353 1791 
Q 353 2603 747 3093 
Q 1141 3584 1784 3584 
Q 2172 3584 2450 3431 
Q 2728 3278 2906 2969 
L 2906 3500 
L 3481 3500 
L 3481 434 
z
" transform="scale(0.015625)"/>
     </defs>
     <use xlink:href="#DejaVuSans-4d"/>
     <use xlink:href="#DejaVuSans-65" x="86.279297"/>
     <use xlink:href="#DejaVuSans-74" x="147.802734"/>
     <use xlink:href="#DejaVuSans-72" x="187.011719"/>
     <use xlink:href="#DejaVuSans-69" x="228.125"/>
     <use xlink:href="#DejaVuSans-63" x="255.908203"/>
     <use xlink:href="#DejaVuSans-73" x="310.888672"/>
     <use xlink:href="#DejaVuSans-20" x="362.988281"/>
     <use xlink:href="#DejaVuSans-6f" x="394.775391"/>
     <use xlink:href="#DejaVuSans-66" x="455.957031"/>
     <use xlink:href="#DejaVuSans-20" x="491.162109"/>
     <use xlink:href="#DejaVuSans-74" x="522.949219"/>
     <use xlink:href="#DejaVuSans-72" x="562.158203"/>
     <use xlink:href="#DejaVuSans-61" x="603.271484"/>
     <use xlink:href="#DejaVuSans-69" x="664.550781"/>
     <use xlink:href="#DejaVuSans-6e" x="692.333984"/>
     <use xlink:href="#DejaVuSans-69" x="755.712891"/>
     <use xlink:href="#DejaVuSans-6e" x="783.496094"/>
     <use xlink:href="#DejaVuSans-67" x="846.875"/>
    </g>
   </g>
   <g id="legend_1">
    <g id="patch_7">
     <path d="M 344.534375 211.0725 
L 443 211.0725 
Q 445 211.0725 445 209.0725 
L 445 121.4475 
Q 445 119.4475 443 119.4475 
L 344.534375 119.4475 
Q 342.534375 119.4475 342.534375 121.4475 
L 342.534375 209.0725 
Q 342.534375 211.0725 344.534375 211.0725 
z
" style="fill: #ffffff; opacity: 0.8; stroke: #cccccc; stroke-linejoin: miter"/>
    </g>
    <g id="line2d_25">
     <path d="M 346.534375 127.545937 
L 356.534375 127.545937 
L 366.534375 127.545937 
" style="fill: none; stroke: #1f77b4; stroke-width: 1.5; stroke-linecap: square"/>
    </g>
    <g id="text_22">
     <!-- loss -->
     <g transform="translate(374.534375 131.045937)scale(0.1 -0.1)">
      <defs>
       <path id="DejaVuSans-6c" d="M 603 4863 
L 1178 4863 
L 1178 0 
L 603 0 
L 603 4863 
z
" transform="scale(0.015625)"/>
      </defs>
      <use xlink:href="#DejaVuSans-6c"/>
      <use xlink:href="#DejaVuSans-6f" x="27.783203"/>
      <use xlink:href="#DejaVuSans-73" x="88.964844"/>
      <use xlink:href="#DejaVuSans-73" x="141.064453"/>
     </g>
    </g>
    <g id="line2d_26">
     <path d="M 346.534375 142.224062 
L 356.534375 142.224062 
L 366.534375 142.224062 
" style="fill: none; stroke: #ff7f0e; stroke-width: 1.5; stroke-linecap: square"/>
    </g>
    <g id="text_23">
     <!-- iou_binarized -->
     <g transform="translate(374.534375 145.724062)scale(0.1 -0.1)">
      <defs>
       <path id="DejaVuSans-5f" d="M 3263 -1063 
L 3263 -1509 
L -63 -1509 
L -63 -1063 
L 3263 -1063 
z
" transform="scale(0.015625)"/>
       <path id="DejaVuSans-7a" d="M 353 3500 
L 3084 3500 
L 3084 2975 
L 922 459 
L 3084 459 
L 3084 0 
L 275 0 
L 275 525 
L 2438 3041 
L 353 3041 
L 353 3500 
z
" transform="scale(0.015625)"/>
       <path id="DejaVuSans-64" d="M 2906 2969 
L 2906 4863 
L 3481 4863 
L 3481 0 
L 2906 0 
L 2906 525 
Q 2725 213 2448 61 
Q 2172 -91 1784 -91 
Q 1150 -91 751 415 
Q 353 922 353 1747 
Q 353 2572 751 3078 
Q 1150 3584 1784 3584 
Q 2172 3584 2448 3432 
Q 2725 3281 2906 2969 
z
M 947 1747 
Q 947 1113 1208 752 
Q 1469 391 1925 391 
Q 2381 391 2643 752 
Q 2906 1113 2906 1747 
Q 2906 2381 2643 2742 
Q 2381 3103 1925 3103 
Q 1469 3103 1208 2742 
Q 947 2381 947 1747 
z
" transform="scale(0.015625)"/>
      </defs>
      <use xlink:href="#DejaVuSans-69"/>
      <use xlink:href="#DejaVuSans-6f" x="27.783203"/>
      <use xlink:href="#DejaVuSans-75" x="88.964844"/>
      <use xlink:href="#DejaVuSans-5f" x="152.34375"/>
      <use xlink:href="#DejaVuSans-62" x="202.34375"/>
      <use xlink:href="#DejaVuSans-69" x="265.820312"/>
      <use xlink:href="#DejaVuSans-6e" x="293.603516"/>
      <use xlink:href="#DejaVuSans-61" x="356.982422"/>
      <use xlink:href="#DejaVuSans-72" x="418.261719"/>
      <use xlink:href="#DejaVuSans-69" x="459.375"/>
      <use xlink:href="#DejaVuSans-7a" x="487.158203"/>
      <use xlink:href="#DejaVuSans-65" x="539.648438"/>
      <use xlink:href="#DejaVuSans-64" x="601.171875"/>
     </g>
    </g>
    <g id="line2d_27">
     <path d="M 346.534375 157.180312 
L 356.534375 157.180312 
L 366.534375 157.180312 
" style="fill: none; stroke: #2ca02c; stroke-width: 1.5; stroke-linecap: square"/>
    </g>
    <g id="text_24">
     <!-- iou -->
     <g transform="translate(374.534375 160.680312)scale(0.1 -0.1)">
      <use xlink:href="#DejaVuSans-69"/>
      <use xlink:href="#DejaVuSans-6f" x="27.783203"/>
      <use xlink:href="#DejaVuSans-75" x="88.964844"/>
     </g>
    </g>
    <g id="line2d_28">
     <path d="M 346.534375 171.858437 
L 356.534375 171.858437 
L 366.534375 171.858437 
" style="fill: none; stroke: #d62728; stroke-width: 1.5; stroke-linecap: square"/>
    </g>
    <g id="text_25">
     <!-- recall -->
     <g transform="translate(374.534375 175.358437)scale(0.1 -0.1)">
      <use xlink:href="#DejaVuSans-72"/>
      <use xlink:href="#DejaVuSans-65" x="38.863281"/>
      <use xlink:href="#DejaVuSans-63" x="100.386719"/>
      <use xlink:href="#DejaVuSans-61" x="155.367188"/>
      <use xlink:href="#DejaVuSans-6c" x="216.646484"/>
      <use xlink:href="#DejaVuSans-6c" x="244.429688"/>
     </g>
    </g>
    <g id="line2d_29">
     <path d="M 346.534375 186.536562 
L 356.534375 186.536562 
L 366.534375 186.536562 
" style="fill: none; stroke: #9467bd; stroke-width: 1.5; stroke-linecap: square"/>
    </g>
    <g id="text_26">
     <!-- precision -->
     <g transform="translate(374.534375 190.036562)scale(0.1 -0.1)">
      <use xlink:href="#DejaVuSans-70"/>
      <use xlink:href="#DejaVuSans-72" x="63.476562"/>
      <use xlink:href="#DejaVuSans-65" x="102.339844"/>
      <use xlink:href="#DejaVuSans-63" x="163.863281"/>
      <use xlink:href="#DejaVuSans-69" x="218.84375"/>
      <use xlink:href="#DejaVuSans-73" x="246.626953"/>
      <use xlink:href="#DejaVuSans-69" x="298.726562"/>
      <use xlink:href="#DejaVuSans-6f" x="326.509766"/>
      <use xlink:href="#DejaVuSans-6e" x="387.691406"/>
     </g>
    </g>
    <g id="line2d_30">
     <path d="M 346.534375 201.214687 
L 356.534375 201.214687 
L 366.534375 201.214687 
" style="fill: none; stroke: #8c564b; stroke-width: 1.5; stroke-linecap: square"/>
    </g>
    <g id="text_27">
     <!-- F1_score -->
     <g transform="translate(374.534375 204.714687)scale(0.1 -0.1)">
      <defs>
       <path id="DejaVuSans-46" d="M 628 4666 
L 3309 4666 
L 3309 4134 
L 1259 4134 
L 1259 2759 
L 3109 2759 
L 3109 2228 
L 1259 2228 
L 1259 0 
L 628 0 
L 628 4666 
z
" transform="scale(0.015625)"/>
      </defs>
      <use xlink:href="#DejaVuSans-46"/>
      <use xlink:href="#DejaVuSans-31" x="57.519531"/>
      <use xlink:href="#DejaVuSans-5f" x="121.142578"/>
      <use xlink:href="#DejaVuSans-73" x="171.142578"/>
      <use xlink:href="#DejaVuSans-63" x="223.242188"/>
      <use xlink:href="#DejaVuSans-6f" x="278.222656"/>
      <use xlink:href="#DejaVuSans-72" x="339.404297"/>
      <use xlink:href="#DejaVuSans-65" x="378.267578"/>
     </g>
    </g>
   </g>
  </g>
 </g>
 <defs>
  <clipPath id="pe7d97b5046">
   <rect x="47.72" y="26.88" width="402.28" height="276.76"/>
  </clipPath>
 </defs>
</svg>
