<?xml version="1.0" encoding="utf-8" standalone="no"?>
<!DOCTYPE svg PUBLIC "-//W3C//DTD SVG 1.1//EN"
  "http://www.w3.org/Graphics/SVG/1.1/DTD/svg11.dtd">
<svg xmlns:xlink="http://www.w3.org/1999/xlink" width="460.8pt" height="345.6pt" viewBox="0 0 460.8 345.6" xmlns="http://www.w3.org/2000/svg" version="1.1">
 <metadata>
  <rdf:RDF xmlns:dc="http://purl.org/dc/elements/1.1/" xmlns:cc="http://creativecommons.org/ns#" xmlns:rdf="http://www.w3.org/1999/02/22-rdf-syntax-ns#">
   <cc:Work>
    <dc:type rdf:resource="http://purl.org/dc/dcmitype/StillImage"/>
    <dc:date>2022-07-14T18:06:11.704396</dc:date>
    <dc:format>image/svg+xml</dc:format>
    <dc:creator>
     <cc:Agent>
      <dc:title>Matplotlib v3.5.1, https://matplotlib.org/</dc:title>
     </cc:Agent>
    </dc:creator>
   </cc:Work>
  </rdf:RDF>
 </metadata>
 <defs>
  <style type="text/css">*{stroke-linejoin: round; stroke-linecap: butt}</style>
 </defs>
 <g id="figure_1">
  <g id="patch_1">
   <path d="M 0 345.6 
L 460.8 345.6 
L 460.8 0 
L 0 0 
z
" style="fill: #ffffff"/>
  </g>
  <g id="axes_1">
   <g id="patch_2">
    <path d="M 47.72 303.64 
L 450 303.64 
L 450 26.88 
L 47.72 26.88 
z
" style="fill: #ffffff"/>
   </g>
   <g id="matplotlib.axis_1">
    <g id="xtick_1">
     <g id="line2d_1">
      <defs>
       <path id="mb559c9ed86" d="M 0 0 
L 0 3.5 
" style="stroke: #000000; stroke-width: 0.8"/>
      </defs>
      <g>
       <use xlink:href="#mb559c9ed86" x="66.005455" y="303.64" style="stroke: #000000; stroke-width: 0.8"/>
      </g>
     </g>
     <g id="text_1">
      <!-- 0 -->
      <g transform="translate(62.824205 318.238437)scale(0.1 -0.1)">
       <defs>
        <path id="DejaVuSans-30" d="M 2034 4250 
Q 1547 4250 1301 3770 
Q 1056 3291 1056 2328 
Q 1056 1369 1301 889 
Q 1547 409 2034 409 
Q 2525 409 2770 889 
Q 3016 1369 3016 2328 
Q 3016 3291 2770 3770 
Q 2525 4250 2034 4250 
z
M 2034 4750 
Q 2819 4750 3233 4129 
Q 3647 3509 3647 2328 
Q 3647 1150 3233 529 
Q 2819 -91 2034 -91 
Q 1250 -91 836 529 
Q 422 1150 422 2328 
Q 422 3509 836 4129 
Q 1250 4750 2034 4750 
z
" transform="scale(0.015625)"/>
       </defs>
       <use xlink:href="#DejaVuSans-30"/>
      </g>
     </g>
    </g>
    <g id="xtick_2">
     <g id="line2d_2">
      <g>
       <use xlink:href="#mb559c9ed86" x="111.948808" y="303.64" style="stroke: #000000; stroke-width: 0.8"/>
      </g>
     </g>
     <g id="text_2">
      <!-- 25 -->
      <g transform="translate(105.586308 318.238437)scale(0.1 -0.1)">
       <defs>
        <path id="DejaVuSans-32" d="M 1228 531 
L 3431 531 
L 3431 0 
L 469 0 
L 469 531 
Q 828 903 1448 1529 
Q 2069 2156 2228 2338 
Q 2531 2678 2651 2914 
Q 2772 3150 2772 3378 
Q 2772 3750 2511 3984 
Q 2250 4219 1831 4219 
Q 1534 4219 1204 4116 
Q 875 4013 500 3803 
L 500 4441 
Q 881 4594 1212 4672 
Q 1544 4750 1819 4750 
Q 2544 4750 2975 4387 
Q 3406 4025 3406 3419 
Q 3406 3131 3298 2873 
Q 3191 2616 2906 2266 
Q 2828 2175 2409 1742 
Q 1991 1309 1228 531 
z
" transform="scale(0.015625)"/>
        <path id="DejaVuSans-35" d="M 691 4666 
L 3169 4666 
L 3169 4134 
L 1269 4134 
L 1269 2991 
Q 1406 3038 1543 3061 
Q 1681 3084 1819 3084 
Q 2600 3084 3056 2656 
Q 3513 2228 3513 1497 
Q 3513 744 3044 326 
Q 2575 -91 1722 -91 
Q 1428 -91 1123 -41 
Q 819 9 494 109 
L 494 744 
Q 775 591 1075 516 
Q 1375 441 1709 441 
Q 2250 441 2565 725 
Q 2881 1009 2881 1497 
Q 2881 1984 2565 2268 
Q 2250 2553 1709 2553 
Q 1456 2553 1204 2497 
Q 953 2441 691 2322 
L 691 4666 
z
" transform="scale(0.015625)"/>
       </defs>
       <use xlink:href="#DejaVuSans-32"/>
       <use xlink:href="#DejaVuSans-35" x="63.623047"/>
      </g>
     </g>
    </g>
    <g id="xtick_3">
     <g id="line2d_3">
      <g>
       <use xlink:href="#mb559c9ed86" x="157.892161" y="303.64" style="stroke: #000000; stroke-width: 0.8"/>
      </g>
     </g>
     <g id="text_3">
      <!-- 50 -->
      <g transform="translate(151.529661 318.238437)scale(0.1 -0.1)">
       <use xlink:href="#DejaVuSans-35"/>
       <use xlink:href="#DejaVuSans-30" x="63.623047"/>
      </g>
     </g>
    </g>
    <g id="xtick_4">
     <g id="line2d_4">
      <g>
       <use xlink:href="#mb559c9ed86" x="203.835514" y="303.64" style="stroke: #000000; stroke-width: 0.8"/>
      </g>
     </g>
     <g id="text_4">
      <!-- 75 -->
      <g transform="translate(197.473014 318.238437)scale(0.1 -0.1)">
       <defs>
        <path id="DejaVuSans-37" d="M 525 4666 
L 3525 4666 
L 3525 4397 
L 1831 0 
L 1172 0 
L 2766 4134 
L 525 4134 
L 525 4666 
z
" transform="scale(0.015625)"/>
       </defs>
       <use xlink:href="#DejaVuSans-37"/>
       <use xlink:href="#DejaVuSans-35" x="63.623047"/>
      </g>
     </g>
    </g>
    <g id="xtick_5">
     <g id="line2d_5">
      <g>
       <use xlink:href="#mb559c9ed86" x="249.778867" y="303.64" style="stroke: #000000; stroke-width: 0.8"/>
      </g>
     </g>
     <g id="text_5">
      <!-- 100 -->
      <g transform="translate(240.235117 318.238437)scale(0.1 -0.1)">
       <defs>
        <path id="DejaVuSans-31" d="M 794 531 
L 1825 531 
L 1825 4091 
L 703 3866 
L 703 4441 
L 1819 4666 
L 2450 4666 
L 2450 531 
L 3481 531 
L 3481 0 
L 794 0 
L 794 531 
z
" transform="scale(0.015625)"/>
       </defs>
       <use xlink:href="#DejaVuSans-31"/>
       <use xlink:href="#DejaVuSans-30" x="63.623047"/>
       <use xlink:href="#DejaVuSans-30" x="127.246094"/>
      </g>
     </g>
    </g>
    <g id="xtick_6">
     <g id="line2d_6">
      <g>
       <use xlink:href="#mb559c9ed86" x="295.72222" y="303.64" style="stroke: #000000; stroke-width: 0.8"/>
      </g>
     </g>
     <g id="text_6">
      <!-- 125 -->
      <g transform="translate(286.17847 318.238437)scale(0.1 -0.1)">
       <use xlink:href="#DejaVuSans-31"/>
       <use xlink:href="#DejaVuSans-32" x="63.623047"/>
       <use xlink:href="#DejaVuSans-35" x="127.246094"/>
      </g>
     </g>
    </g>
    <g id="xtick_7">
     <g id="line2d_7">
      <g>
       <use xlink:href="#mb559c9ed86" x="341.665573" y="303.64" style="stroke: #000000; stroke-width: 0.8"/>
      </g>
     </g>
     <g id="text_7">
      <!-- 150 -->
      <g transform="translate(332.121823 318.238437)scale(0.1 -0.1)">
       <use xlink:href="#DejaVuSans-31"/>
       <use xlink:href="#DejaVuSans-35" x="63.623047"/>
       <use xlink:href="#DejaVuSans-30" x="127.246094"/>
      </g>
     </g>
    </g>
    <g id="xtick_8">
     <g id="line2d_8">
      <g>
       <use xlink:href="#mb559c9ed86" x="387.608926" y="303.64" style="stroke: #000000; stroke-width: 0.8"/>
      </g>
     </g>
     <g id="text_8">
      <!-- 175 -->
      <g transform="translate(378.065176 318.238437)scale(0.1 -0.1)">
       <use xlink:href="#DejaVuSans-31"/>
       <use xlink:href="#DejaVuSans-37" x="63.623047"/>
       <use xlink:href="#DejaVuSans-35" x="127.246094"/>
      </g>
     </g>
    </g>
    <g id="xtick_9">
     <g id="line2d_9">
      <g>
       <use xlink:href="#mb559c9ed86" x="433.55228" y="303.64" style="stroke: #000000; stroke-width: 0.8"/>
      </g>
     </g>
     <g id="text_9">
      <!-- 200 -->
      <g transform="translate(424.00853 318.238437)scale(0.1 -0.1)">
       <use xlink:href="#DejaVuSans-32"/>
       <use xlink:href="#DejaVuSans-30" x="63.623047"/>
       <use xlink:href="#DejaVuSans-30" x="127.246094"/>
      </g>
     </g>
    </g>
    <g id="text_10">
     <!-- number of epochs -->
     <g transform="translate(203.515469 331.916562)scale(0.1 -0.1)">
      <defs>
       <path id="DejaVuSans-6e" d="M 3513 2113 
L 3513 0 
L 2938 0 
L 2938 2094 
Q 2938 2591 2744 2837 
Q 2550 3084 2163 3084 
Q 1697 3084 1428 2787 
Q 1159 2491 1159 1978 
L 1159 0 
L 581 0 
L 581 3500 
L 1159 3500 
L 1159 2956 
Q 1366 3272 1645 3428 
Q 1925 3584 2291 3584 
Q 2894 3584 3203 3211 
Q 3513 2838 3513 2113 
z
" transform="scale(0.015625)"/>
       <path id="DejaVuSans-75" d="M 544 1381 
L 544 3500 
L 1119 3500 
L 1119 1403 
Q 1119 906 1312 657 
Q 1506 409 1894 409 
Q 2359 409 2629 706 
Q 2900 1003 2900 1516 
L 2900 3500 
L 3475 3500 
L 3475 0 
L 2900 0 
L 2900 538 
Q 2691 219 2414 64 
Q 2138 -91 1772 -91 
Q 1169 -91 856 284 
Q 544 659 544 1381 
z
M 1991 3584 
L 1991 3584 
z
" transform="scale(0.015625)"/>
       <path id="DejaVuSans-6d" d="M 3328 2828 
Q 3544 3216 3844 3400 
Q 4144 3584 4550 3584 
Q 5097 3584 5394 3201 
Q 5691 2819 5691 2113 
L 5691 0 
L 5113 0 
L 5113 2094 
Q 5113 2597 4934 2840 
Q 4756 3084 4391 3084 
Q 3944 3084 3684 2787 
Q 3425 2491 3425 1978 
L 3425 0 
L 2847 0 
L 2847 2094 
Q 2847 2600 2669 2842 
Q 2491 3084 2119 3084 
Q 1678 3084 1418 2786 
Q 1159 2488 1159 1978 
L 1159 0 
L 581 0 
L 581 3500 
L 1159 3500 
L 1159 2956 
Q 1356 3278 1631 3431 
Q 1906 3584 2284 3584 
Q 2666 3584 2933 3390 
Q 3200 3197 3328 2828 
z
" transform="scale(0.015625)"/>
       <path id="DejaVuSans-62" d="M 3116 1747 
Q 3116 2381 2855 2742 
Q 2594 3103 2138 3103 
Q 1681 3103 1420 2742 
Q 1159 2381 1159 1747 
Q 1159 1113 1420 752 
Q 1681 391 2138 391 
Q 2594 391 2855 752 
Q 3116 1113 3116 1747 
z
M 1159 2969 
Q 1341 3281 1617 3432 
Q 1894 3584 2278 3584 
Q 2916 3584 3314 3078 
Q 3713 2572 3713 1747 
Q 3713 922 3314 415 
Q 2916 -91 2278 -91 
Q 1894 -91 1617 61 
Q 1341 213 1159 525 
L 1159 0 
L 581 0 
L 581 4863 
L 1159 4863 
L 1159 2969 
z
" transform="scale(0.015625)"/>
       <path id="DejaVuSans-65" d="M 3597 1894 
L 3597 1613 
L 953 1613 
Q 991 1019 1311 708 
Q 1631 397 2203 397 
Q 2534 397 2845 478 
Q 3156 559 3463 722 
L 3463 178 
Q 3153 47 2828 -22 
Q 2503 -91 2169 -91 
Q 1331 -91 842 396 
Q 353 884 353 1716 
Q 353 2575 817 3079 
Q 1281 3584 2069 3584 
Q 2775 3584 3186 3129 
Q 3597 2675 3597 1894 
z
M 3022 2063 
Q 3016 2534 2758 2815 
Q 2500 3097 2075 3097 
Q 1594 3097 1305 2825 
Q 1016 2553 972 2059 
L 3022 2063 
z
" transform="scale(0.015625)"/>
       <path id="DejaVuSans-72" d="M 2631 2963 
Q 2534 3019 2420 3045 
Q 2306 3072 2169 3072 
Q 1681 3072 1420 2755 
Q 1159 2438 1159 1844 
L 1159 0 
L 581 0 
L 581 3500 
L 1159 3500 
L 1159 2956 
Q 1341 3275 1631 3429 
Q 1922 3584 2338 3584 
Q 2397 3584 2469 3576 
Q 2541 3569 2628 3553 
L 2631 2963 
z
" transform="scale(0.015625)"/>
       <path id="DejaVuSans-20" transform="scale(0.015625)"/>
       <path id="DejaVuSans-6f" d="M 1959 3097 
Q 1497 3097 1228 2736 
Q 959 2375 959 1747 
Q 959 1119 1226 758 
Q 1494 397 1959 397 
Q 2419 397 2687 759 
Q 2956 1122 2956 1747 
Q 2956 2369 2687 2733 
Q 2419 3097 1959 3097 
z
M 1959 3584 
Q 2709 3584 3137 3096 
Q 3566 2609 3566 1747 
Q 3566 888 3137 398 
Q 2709 -91 1959 -91 
Q 1206 -91 779 398 
Q 353 888 353 1747 
Q 353 2609 779 3096 
Q 1206 3584 1959 3584 
z
" transform="scale(0.015625)"/>
       <path id="DejaVuSans-66" d="M 2375 4863 
L 2375 4384 
L 1825 4384 
Q 1516 4384 1395 4259 
Q 1275 4134 1275 3809 
L 1275 3500 
L 2222 3500 
L 2222 3053 
L 1275 3053 
L 1275 0 
L 697 0 
L 697 3053 
L 147 3053 
L 147 3500 
L 697 3500 
L 697 3744 
Q 697 4328 969 4595 
Q 1241 4863 1831 4863 
L 2375 4863 
z
" transform="scale(0.015625)"/>
       <path id="DejaVuSans-70" d="M 1159 525 
L 1159 -1331 
L 581 -1331 
L 581 3500 
L 1159 3500 
L 1159 2969 
Q 1341 3281 1617 3432 
Q 1894 3584 2278 3584 
Q 2916 3584 3314 3078 
Q 3713 2572 3713 1747 
Q 3713 922 3314 415 
Q 2916 -91 2278 -91 
Q 1894 -91 1617 61 
Q 1341 213 1159 525 
z
M 3116 1747 
Q 3116 2381 2855 2742 
Q 2594 3103 2138 3103 
Q 1681 3103 1420 2742 
Q 1159 2381 1159 1747 
Q 1159 1113 1420 752 
Q 1681 391 2138 391 
Q 2594 391 2855 752 
Q 3116 1113 3116 1747 
z
" transform="scale(0.015625)"/>
       <path id="DejaVuSans-63" d="M 3122 3366 
L 3122 2828 
Q 2878 2963 2633 3030 
Q 2388 3097 2138 3097 
Q 1578 3097 1268 2742 
Q 959 2388 959 1747 
Q 959 1106 1268 751 
Q 1578 397 2138 397 
Q 2388 397 2633 464 
Q 2878 531 3122 666 
L 3122 134 
Q 2881 22 2623 -34 
Q 2366 -91 2075 -91 
Q 1284 -91 818 406 
Q 353 903 353 1747 
Q 353 2603 823 3093 
Q 1294 3584 2113 3584 
Q 2378 3584 2631 3529 
Q 2884 3475 3122 3366 
z
" transform="scale(0.015625)"/>
       <path id="DejaVuSans-68" d="M 3513 2113 
L 3513 0 
L 2938 0 
L 2938 2094 
Q 2938 2591 2744 2837 
Q 2550 3084 2163 3084 
Q 1697 3084 1428 2787 
Q 1159 2491 1159 1978 
L 1159 0 
L 581 0 
L 581 4863 
L 1159 4863 
L 1159 2956 
Q 1366 3272 1645 3428 
Q 1925 3584 2291 3584 
Q 2894 3584 3203 3211 
Q 3513 2838 3513 2113 
z
" transform="scale(0.015625)"/>
       <path id="DejaVuSans-73" d="M 2834 3397 
L 2834 2853 
Q 2591 2978 2328 3040 
Q 2066 3103 1784 3103 
Q 1356 3103 1142 2972 
Q 928 2841 928 2578 
Q 928 2378 1081 2264 
Q 1234 2150 1697 2047 
L 1894 2003 
Q 2506 1872 2764 1633 
Q 3022 1394 3022 966 
Q 3022 478 2636 193 
Q 2250 -91 1575 -91 
Q 1294 -91 989 -36 
Q 684 19 347 128 
L 347 722 
Q 666 556 975 473 
Q 1284 391 1588 391 
Q 1994 391 2212 530 
Q 2431 669 2431 922 
Q 2431 1156 2273 1281 
Q 2116 1406 1581 1522 
L 1381 1569 
Q 847 1681 609 1914 
Q 372 2147 372 2553 
Q 372 3047 722 3315 
Q 1072 3584 1716 3584 
Q 2034 3584 2315 3537 
Q 2597 3491 2834 3397 
z
" transform="scale(0.015625)"/>
      </defs>
      <use xlink:href="#DejaVuSans-6e"/>
      <use xlink:href="#DejaVuSans-75" x="63.378906"/>
      <use xlink:href="#DejaVuSans-6d" x="126.757812"/>
      <use xlink:href="#DejaVuSans-62" x="224.169922"/>
      <use xlink:href="#DejaVuSans-65" x="287.646484"/>
      <use xlink:href="#DejaVuSans-72" x="349.169922"/>
      <use xlink:href="#DejaVuSans-20" x="390.283203"/>
      <use xlink:href="#DejaVuSans-6f" x="422.070312"/>
      <use xlink:href="#DejaVuSans-66" x="483.251953"/>
      <use xlink:href="#DejaVuSans-20" x="518.457031"/>
      <use xlink:href="#DejaVuSans-65" x="550.244141"/>
      <use xlink:href="#DejaVuSans-70" x="611.767578"/>
      <use xlink:href="#DejaVuSans-6f" x="675.244141"/>
      <use xlink:href="#DejaVuSans-63" x="736.425781"/>
      <use xlink:href="#DejaVuSans-68" x="791.40625"/>
      <use xlink:href="#DejaVuSans-73" x="854.785156"/>
     </g>
    </g>
   </g>
   <g id="matplotlib.axis_2">
    <g id="ytick_1">
     <g id="line2d_10">
      <defs>
       <path id="m0fa7c327c7" d="M 0 0 
L -3.5 0 
" style="stroke: #000000; stroke-width: 0.8"/>
      </defs>
      <g>
       <use xlink:href="#m0fa7c327c7" x="47.72" y="291.773395" style="stroke: #000000; stroke-width: 0.8"/>
      </g>
     </g>
     <g id="text_11">
      <!-- 0.0 -->
      <g transform="translate(24.816875 295.572614)scale(0.1 -0.1)">
       <defs>
        <path id="DejaVuSans-2e" d="M 684 794 
L 1344 794 
L 1344 0 
L 684 0 
L 684 794 
z
" transform="scale(0.015625)"/>
       </defs>
       <use xlink:href="#DejaVuSans-30"/>
       <use xlink:href="#DejaVuSans-2e" x="63.623047"/>
       <use xlink:href="#DejaVuSans-30" x="95.410156"/>
      </g>
     </g>
    </g>
    <g id="ytick_2">
     <g id="line2d_11">
      <g>
       <use xlink:href="#m0fa7c327c7" x="47.72" y="235.270384" style="stroke: #000000; stroke-width: 0.8"/>
      </g>
     </g>
     <g id="text_12">
      <!-- 0.2 -->
      <g transform="translate(24.816875 239.069602)scale(0.1 -0.1)">
       <use xlink:href="#DejaVuSans-30"/>
       <use xlink:href="#DejaVuSans-2e" x="63.623047"/>
       <use xlink:href="#DejaVuSans-32" x="95.410156"/>
      </g>
     </g>
    </g>
    <g id="ytick_3">
     <g id="line2d_12">
      <g>
       <use xlink:href="#m0fa7c327c7" x="47.72" y="178.767372" style="stroke: #000000; stroke-width: 0.8"/>
      </g>
     </g>
     <g id="text_13">
      <!-- 0.4 -->
      <g transform="translate(24.816875 182.566591)scale(0.1 -0.1)">
       <defs>
        <path id="DejaVuSans-34" d="M 2419 4116 
L 825 1625 
L 2419 1625 
L 2419 4116 
z
M 2253 4666 
L 3047 4666 
L 3047 1625 
L 3713 1625 
L 3713 1100 
L 3047 1100 
L 3047 0 
L 2419 0 
L 2419 1100 
L 313 1100 
L 313 1709 
L 2253 4666 
z
" transform="scale(0.015625)"/>
       </defs>
       <use xlink:href="#DejaVuSans-30"/>
       <use xlink:href="#DejaVuSans-2e" x="63.623047"/>
       <use xlink:href="#DejaVuSans-34" x="95.410156"/>
      </g>
     </g>
    </g>
    <g id="ytick_4">
     <g id="line2d_13">
      <g>
       <use xlink:href="#m0fa7c327c7" x="47.72" y="122.264361" style="stroke: #000000; stroke-width: 0.8"/>
      </g>
     </g>
     <g id="text_14">
      <!-- 0.6 -->
      <g transform="translate(24.816875 126.06358)scale(0.1 -0.1)">
       <defs>
        <path id="DejaVuSans-36" d="M 2113 2584 
Q 1688 2584 1439 2293 
Q 1191 2003 1191 1497 
Q 1191 994 1439 701 
Q 1688 409 2113 409 
Q 2538 409 2786 701 
Q 3034 994 3034 1497 
Q 3034 2003 2786 2293 
Q 2538 2584 2113 2584 
z
M 3366 4563 
L 3366 3988 
Q 3128 4100 2886 4159 
Q 2644 4219 2406 4219 
Q 1781 4219 1451 3797 
Q 1122 3375 1075 2522 
Q 1259 2794 1537 2939 
Q 1816 3084 2150 3084 
Q 2853 3084 3261 2657 
Q 3669 2231 3669 1497 
Q 3669 778 3244 343 
Q 2819 -91 2113 -91 
Q 1303 -91 875 529 
Q 447 1150 447 2328 
Q 447 3434 972 4092 
Q 1497 4750 2381 4750 
Q 2619 4750 2861 4703 
Q 3103 4656 3366 4563 
z
" transform="scale(0.015625)"/>
       </defs>
       <use xlink:href="#DejaVuSans-30"/>
       <use xlink:href="#DejaVuSans-2e" x="63.623047"/>
       <use xlink:href="#DejaVuSans-36" x="95.410156"/>
      </g>
     </g>
    </g>
    <g id="ytick_5">
     <g id="line2d_14">
      <g>
       <use xlink:href="#m0fa7c327c7" x="47.72" y="65.76135" style="stroke: #000000; stroke-width: 0.8"/>
      </g>
     </g>
     <g id="text_15">
      <!-- 0.8 -->
      <g transform="translate(24.816875 69.560569)scale(0.1 -0.1)">
       <defs>
        <path id="DejaVuSans-38" d="M 2034 2216 
Q 1584 2216 1326 1975 
Q 1069 1734 1069 1313 
Q 1069 891 1326 650 
Q 1584 409 2034 409 
Q 2484 409 2743 651 
Q 3003 894 3003 1313 
Q 3003 1734 2745 1975 
Q 2488 2216 2034 2216 
z
M 1403 2484 
Q 997 2584 770 2862 
Q 544 3141 544 3541 
Q 544 4100 942 4425 
Q 1341 4750 2034 4750 
Q 2731 4750 3128 4425 
Q 3525 4100 3525 3541 
Q 3525 3141 3298 2862 
Q 3072 2584 2669 2484 
Q 3125 2378 3379 2068 
Q 3634 1759 3634 1313 
Q 3634 634 3220 271 
Q 2806 -91 2034 -91 
Q 1263 -91 848 271 
Q 434 634 434 1313 
Q 434 1759 690 2068 
Q 947 2378 1403 2484 
z
M 1172 3481 
Q 1172 3119 1398 2916 
Q 1625 2713 2034 2713 
Q 2441 2713 2670 2916 
Q 2900 3119 2900 3481 
Q 2900 3844 2670 4047 
Q 2441 4250 2034 4250 
Q 1625 4250 1398 4047 
Q 1172 3844 1172 3481 
z
" transform="scale(0.015625)"/>
       </defs>
       <use xlink:href="#DejaVuSans-30"/>
       <use xlink:href="#DejaVuSans-2e" x="63.623047"/>
       <use xlink:href="#DejaVuSans-38" x="95.410156"/>
      </g>
     </g>
    </g>
    <g id="text_16">
     <!-- metrics -->
     <g transform="translate(18.737188 183.965469)rotate(-90)scale(0.1 -0.1)">
      <defs>
       <path id="DejaVuSans-74" d="M 1172 4494 
L 1172 3500 
L 2356 3500 
L 2356 3053 
L 1172 3053 
L 1172 1153 
Q 1172 725 1289 603 
Q 1406 481 1766 481 
L 2356 481 
L 2356 0 
L 1766 0 
Q 1100 0 847 248 
Q 594 497 594 1153 
L 594 3053 
L 172 3053 
L 172 3500 
L 594 3500 
L 594 4494 
L 1172 4494 
z
" transform="scale(0.015625)"/>
       <path id="DejaVuSans-69" d="M 603 3500 
L 1178 3500 
L 1178 0 
L 603 0 
L 603 3500 
z
M 603 4863 
L 1178 4863 
L 1178 4134 
L 603 4134 
L 603 4863 
z
" transform="scale(0.015625)"/>
      </defs>
      <use xlink:href="#DejaVuSans-6d"/>
      <use xlink:href="#DejaVuSans-65" x="97.412109"/>
      <use xlink:href="#DejaVuSans-74" x="158.935547"/>
      <use xlink:href="#DejaVuSans-72" x="198.144531"/>
      <use xlink:href="#DejaVuSans-69" x="239.257812"/>
      <use xlink:href="#DejaVuSans-63" x="267.041016"/>
      <use xlink:href="#DejaVuSans-73" x="322.021484"/>
     </g>
    </g>
   </g>
   <g id="line2d_15">
    <path d="M 66.005455 284.790041 
L 67.843189 287.934098 
L 69.680923 288.386877 
L 71.518657 289.044002 
L 75.194125 289.454089 
L 80.707328 289.777473 
L 89.895998 290.090627 
L 106.435605 290.36206 
L 137.677085 290.604561 
L 146.865756 290.582983 
L 150.541224 290.41626 
L 163.405363 290.696785 
L 172.594034 290.674261 
L 178.107236 290.696366 
L 209.348716 290.783207 
L 288.371284 290.727189 
L 292.046752 290.711081 
L 295.72222 290.788397 
L 303.073157 290.921207 
L 315.937296 290.917946 
L 321.450498 290.879663 
L 330.639169 290.966084 
L 349.01651 290.967303 
L 374.744788 290.968404 
L 389.446661 290.73529 
L 391.284395 289.948758 
L 394.959863 290.250237 
L 396.797597 290.641413 
L 398.635331 290.869143 
L 404.148534 290.993904 
L 431.714545 291.06 
L 431.714545 291.06 
" clip-path="url(#p6e38489311)" style="fill: none; stroke: #1f77b4; stroke-width: 1.5; stroke-linecap: square"/>
   </g>
   <g id="line2d_16">
    <path d="M 66.005455 183.036026 
L 67.843189 151.961538 
L 69.680923 132.637813 
L 71.518657 116.672929 
L 73.356391 109.230284 
L 75.194125 104.108959 
L 77.031859 99.321639 
L 78.869593 96.675475 
L 80.707328 93.672387 
L 82.545062 90.966292 
L 86.22053 86.84594 
L 88.058264 84.910087 
L 89.895998 83.207812 
L 93.571466 80.430487 
L 97.246935 78.103561 
L 100.922403 76.112476 
L 104.597871 74.50706 
L 110.111074 72.60918 
L 117.46201 70.472974 
L 122.975212 68.94362 
L 130.326149 67.230063 
L 135.839351 66.1927 
L 141.352554 65.213483 
L 143.190288 65.199708 
L 145.028022 64.992334 
L 146.865756 66.496446 
L 148.70349 67.804751 
L 150.541224 72.679045 
L 152.378958 68.512469 
L 154.216693 67.122174 
L 156.054427 64.062001 
L 157.892161 63.573277 
L 159.729895 63.536853 
L 161.567629 62.7916 
L 163.405363 62.273711 
L 167.080831 61.686746 
L 168.918566 61.816172 
L 170.7563 62.381818 
L 172.594034 63.574573 
L 174.431768 63.207731 
L 176.269502 64.43834 
L 178.107236 62.182981 
L 179.94497 62.79059 
L 181.782704 61.250005 
L 183.620439 61.286108 
L 185.458173 60.27813 
L 187.295907 60.382549 
L 189.133641 60.001057 
L 190.971375 60.4721 
L 192.809109 60.317786 
L 194.646843 60.741124 
L 198.322312 60.28724 
L 200.160046 59.727252 
L 201.99778 59.617393 
L 203.835514 59.104622 
L 205.673248 59.35007 
L 207.510982 58.950813 
L 209.348716 59.488169 
L 211.18645 58.948876 
L 213.024185 59.582956 
L 214.861919 58.849205 
L 216.699653 59.26217 
L 218.537387 58.41482 
L 220.375121 58.628948 
L 222.212855 57.973111 
L 224.050589 58.1054 
L 225.888323 57.530341 
L 227.726058 57.811455 
L 229.563792 57.353832 
L 231.401526 57.742549 
L 233.23926 57.339789 
L 235.076994 57.88873 
L 236.914728 57.323202 
L 238.752462 57.932428 
L 240.590196 57.056856 
L 242.427931 57.664617 
L 244.265665 56.625924 
L 246.103399 57.282417 
L 247.941133 56.609371 
L 249.778867 57.289422 
L 251.616601 56.720863 
L 253.454335 57.283024 
L 255.292069 56.651418 
L 257.129804 57.003611 
L 258.967538 56.378825 
L 260.805272 56.69414 
L 262.643006 55.996811 
L 264.48074 56.540482 
L 266.318474 55.888114 
L 268.156208 56.426548 
L 269.993942 55.61478 
L 271.831677 55.81254 
L 273.669411 55.652921 
L 275.507145 56.002301 
L 279.182613 58.0403 
L 281.020347 58.251985 
L 282.858081 58.097317 
L 284.695815 56.731657 
L 286.53355 57.246786 
L 288.371284 62.047661 
L 290.209018 63.866784 
L 292.046752 61.974646 
L 293.884486 57.82272 
L 295.72222 59.093407 
L 297.559954 56.14375 
L 301.235423 55.900154 
L 303.073157 54.194342 
L 304.910891 53.483559 
L 306.748625 52.968077 
L 308.586359 52.610715 
L 312.261827 52.772995 
L 314.099561 52.603811 
L 315.937296 54.205978 
L 317.77503 54.515617 
L 319.612764 56.533797 
L 321.450498 54.533063 
L 323.288232 54.259661 
L 325.125966 52.624574 
L 326.9637 52.108755 
L 328.801434 52.079304 
L 330.639169 52.295267 
L 332.476903 52.198155 
L 334.314637 52.874923 
L 336.152371 52.745968 
L 337.990105 53.537394 
L 339.827839 52.820431 
L 341.665573 53.197646 
L 343.503307 52.186957 
L 345.341042 52.745581 
L 347.178776 51.9212 
L 349.01651 52.256183 
L 350.854244 51.440491 
L 352.691978 51.936692 
L 354.529712 51.387414 
L 356.367446 51.849246 
L 358.20518 51.274827 
L 360.042915 51.830976 
L 361.880649 51.371383 
L 363.718383 51.764343 
L 365.556117 51.412471 
L 369.231585 51.337705 
L 371.069319 51.311806 
L 372.907053 51.122112 
L 376.582522 52.36584 
L 378.420256 52.615228 
L 380.25799 51.543632 
L 382.095724 52.303248 
L 383.933458 51.525462 
L 385.771192 53.274197 
L 387.608926 55.333498 
L 389.446661 60.319116 
L 391.284395 82.041814 
L 393.122129 84.47023 
L 394.959863 71.848418 
L 396.797597 62.240571 
L 398.635331 55.122317 
L 400.473065 53.013173 
L 402.310799 51.337654 
L 405.986268 50.569584 
L 413.337204 49.571676 
L 418.850407 48.951774 
L 429.876811 48.236781 
L 431.714545 48.229237 
L 431.714545 48.229237 
" clip-path="url(#p6e38489311)" style="fill: none; stroke: #ff7f0e; stroke-width: 1.5; stroke-linecap: square"/>
   </g>
   <g id="line2d_17">
    <path d="M 66.005455 199.326446 
L 67.843189 179.445098 
L 69.680923 169.179184 
L 71.518657 153.602107 
L 73.356391 145.940839 
L 75.194125 139.51887 
L 77.031859 134.883759 
L 78.869593 130.967784 
L 80.707328 127.37822 
L 82.545062 124.112458 
L 84.382796 121.198416 
L 88.058264 116.059038 
L 89.895998 113.88806 
L 91.733732 111.998196 
L 95.409201 108.71684 
L 99.084669 105.859664 
L 102.760137 103.355825 
L 106.435605 101.172386 
L 110.111074 99.266676 
L 115.624276 96.763881 
L 122.975212 93.77546 
L 128.488415 91.775871 
L 134.001617 90.018312 
L 139.51482 88.497024 
L 141.352554 88.018673 
L 143.190288 87.695562 
L 145.028022 87.517774 
L 146.865756 88.520161 
L 148.70349 90.408763 
L 150.541224 94.174835 
L 152.378958 93.024667 
L 156.054427 87.500699 
L 157.892161 86.254917 
L 159.729895 85.627994 
L 161.567629 84.538665 
L 165.243097 83.283403 
L 168.918566 82.686251 
L 170.7563 83.330132 
L 172.594034 84.152289 
L 174.431768 84.374196 
L 176.269502 85.035321 
L 178.107236 83.593564 
L 179.94497 83.55251 
L 181.782704 82.33608 
L 183.620439 81.717643 
L 185.458173 80.912274 
L 187.295907 80.438183 
L 189.133641 80.158079 
L 190.971375 80.087675 
L 192.809109 80.286377 
L 194.646843 80.268275 
L 196.484577 80.537399 
L 198.322312 79.95909 
L 200.160046 79.74658 
L 201.99778 79.228555 
L 203.835514 78.894701 
L 207.510982 78.501 
L 209.348716 78.644285 
L 211.18645 78.430376 
L 213.024185 78.635613 
L 214.861919 78.259442 
L 216.699653 78.241491 
L 218.537387 77.718229 
L 220.375121 77.475139 
L 222.212855 77.024235 
L 229.563792 76.090282 
L 231.401526 76.09301 
L 233.23926 75.974748 
L 235.076994 76.112493 
L 236.914728 75.937348 
L 238.752462 76.079219 
L 240.590196 75.670615 
L 242.427931 75.702694 
L 244.265665 75.157575 
L 246.103399 75.207402 
L 247.941133 74.839769 
L 249.778867 75.039499 
L 251.616601 74.760759 
L 253.454335 74.965137 
L 255.292069 74.600382 
L 257.129804 74.624446 
L 258.967538 74.221163 
L 260.805272 74.201445 
L 262.643006 73.880759 
L 264.48074 74.007137 
L 266.318474 73.694029 
L 268.156208 73.734089 
L 269.993942 73.344278 
L 273.669411 73.242738 
L 275.507145 73.562498 
L 277.344879 74.33045 
L 279.182613 75.736675 
L 281.020347 75.996858 
L 282.858081 76.664583 
L 284.695815 75.377411 
L 286.53355 75.68828 
L 288.371284 80.11876 
L 290.209018 82.555764 
L 292.046752 81.094777 
L 293.884486 77.344803 
L 295.72222 77.234271 
L 297.559954 74.795128 
L 299.397688 74.036909 
L 301.235423 73.994306 
L 303.073157 72.291744 
L 304.910891 71.087673 
L 306.748625 70.174045 
L 308.586359 69.429667 
L 314.099561 69.306977 
L 315.937296 70.479979 
L 317.77503 71.406725 
L 319.612764 73.04838 
L 321.450498 72.351169 
L 323.288232 71.424339 
L 325.125966 69.822577 
L 326.9637 69.045632 
L 328.801434 68.643899 
L 332.476903 68.595554 
L 334.314637 69.040379 
L 336.152371 69.307937 
L 337.990105 69.766115 
L 339.827839 69.537337 
L 341.665573 69.48165 
L 343.503307 68.806751 
L 345.341042 68.908258 
L 347.178776 68.301659 
L 349.01651 68.329309 
L 350.854244 67.819502 
L 352.691978 67.840905 
L 354.529712 67.59581 
L 356.367446 67.588266 
L 358.20518 67.370384 
L 360.042915 67.446042 
L 361.880649 67.329919 
L 363.718383 67.416675 
L 365.556117 67.363513 
L 367.393851 67.147786 
L 369.231585 67.215716 
L 372.907053 66.962841 
L 374.744788 67.240183 
L 376.582522 68.13709 
L 378.420256 68.53692 
L 380.25799 67.822365 
L 382.095724 68.385249 
L 383.933458 67.942193 
L 385.771192 69.134005 
L 387.608926 71.466976 
L 389.446661 75.628197 
L 391.284395 101.096171 
L 393.122129 105.14521 
L 394.959863 98.931643 
L 396.797597 85.441095 
L 398.635331 77.220648 
L 400.473065 73.122338 
L 402.310799 70.562172 
L 404.148534 68.933972 
L 405.986268 67.95499 
L 407.824002 67.173314 
L 411.49947 66.056908 
L 415.174938 65.267335 
L 420.688141 64.389709 
L 426.201343 63.758171 
L 431.714545 63.346587 
L 431.714545 63.346587 
" clip-path="url(#p6e38489311)" style="fill: none; stroke: #2ca02c; stroke-width: 1.5; stroke-linecap: square"/>
   </g>
   <g id="line2d_18">
    <path d="M 66.005455 144.638461 
L 67.843189 127.639178 
L 69.680923 111.719254 
L 71.518657 103.32016 
L 73.356391 95.869752 
L 75.194125 91.721144 
L 77.031859 86.724411 
L 78.869593 84.821614 
L 80.707328 82.000979 
L 82.545062 79.432427 
L 84.382796 77.412093 
L 89.895998 72.193335 
L 93.571466 69.773625 
L 97.246935 67.673085 
L 100.922403 65.788845 
L 104.597871 64.147578 
L 108.273339 62.739601 
L 113.786542 60.984888 
L 122.975212 58.452153 
L 130.326149 56.685585 
L 137.677085 55.27126 
L 145.028022 54.333114 
L 146.865756 55.310495 
L 148.70349 55.111742 
L 150.541224 61.301196 
L 152.378958 54.07704 
L 154.216693 57.672548 
L 156.054427 54.86754 
L 157.892161 53.862576 
L 159.729895 52.548023 
L 161.567629 51.88412 
L 163.405363 51.462837 
L 165.243097 51.753128 
L 167.080831 51.01552 
L 168.918566 51.548144 
L 170.7563 51.055732 
L 172.594034 53.540459 
L 174.431768 51.129842 
L 176.269502 54.368274 
L 178.107236 51.162038 
L 179.94497 52.964305 
L 181.782704 51.027981 
L 183.620439 51.698468 
L 185.458173 49.774757 
L 187.295907 50.634853 
L 189.133641 48.845586 
L 190.971375 50.495172 
L 192.809109 48.510553 
L 194.646843 50.733245 
L 196.484577 48.410865 
L 198.322312 50.513122 
L 200.160046 48.228917 
L 201.99778 50.034081 
L 203.835514 48.05576 
L 205.673248 49.777451 
L 207.510982 47.921821 
L 209.348716 49.848866 
L 211.18645 47.832775 
L 213.024185 49.922689 
L 214.861919 47.741944 
L 216.699653 49.603755 
L 218.537387 47.594399 
L 220.375121 49.003673 
L 222.212855 47.252024 
L 224.050589 48.48777 
L 225.888323 46.798612 
L 227.726058 48.137514 
L 229.563792 46.43118 
L 231.401526 48.134971 
L 233.23926 46.099195 
L 235.076994 48.413896 
L 236.914728 45.842532 
L 238.752462 48.564388 
L 240.590196 45.756972 
L 242.427931 48.283375 
L 244.265665 45.735468 
L 246.103399 47.952081 
L 247.941133 45.685439 
L 249.778867 47.813915 
L 251.616601 45.716373 
L 253.454335 47.63227 
L 255.292069 45.726426 
L 257.129804 47.270968 
L 258.967538 45.527689 
L 260.805272 46.907039 
L 262.643006 45.212493 
L 264.48074 46.650561 
L 266.318474 45.033492 
L 268.156208 46.218232 
L 269.993942 44.945861 
L 271.831677 45.547728 
L 273.669411 45.129021 
L 275.507145 45.109791 
L 277.344879 46.339777 
L 279.182613 45.377837 
L 281.020347 47.90936 
L 282.858081 46.236687 
L 284.695815 46.326693 
L 286.53355 45.252267 
L 288.371284 49.428357 
L 290.209018 52.388741 
L 292.046752 53.16806 
L 293.884486 47.461134 
L 295.72222 48.586852 
L 297.559954 43.671419 
L 301.235423 47.260899 
L 303.073157 46.257551 
L 304.910891 44.778563 
L 306.748625 42.994163 
L 308.586359 43.015414 
L 310.424093 42.761142 
L 312.261827 44.00923 
L 314.099561 42.415618 
L 315.937296 45.47478 
L 317.77503 42.228635 
L 319.612764 47.437559 
L 321.450498 42.607619 
L 323.288232 45.989909 
L 325.125966 42.68976 
L 326.9637 43.709088 
L 328.801434 41.97992 
L 330.639169 43.713635 
L 332.476903 41.536594 
L 334.314637 44.15105 
L 336.152371 41.671948 
L 337.990105 44.738351 
L 339.827839 42.063594 
L 341.665573 44.619163 
L 343.503307 41.925344 
L 345.341042 44.072175 
L 347.178776 41.646622 
L 349.01651 43.426375 
L 350.854244 41.506755 
L 352.691978 43.033415 
L 354.529712 41.288334 
L 356.367446 42.843755 
L 358.20518 41.24105 
L 360.042915 42.732162 
L 361.880649 41.319116 
L 363.718383 42.613917 
L 365.556117 41.493099 
L 367.393851 42.421293 
L 369.231585 41.312902 
L 371.069319 42.412671 
L 372.907053 40.970006 
L 374.744788 42.723792 
L 376.582522 41.375359 
L 378.420256 43.386281 
L 380.25799 41.140334 
L 382.095724 43.579561 
L 383.933458 40.921997 
L 385.771192 44.257238 
L 387.608926 42.303166 
L 389.446661 49.716577 
L 391.284395 59.355981 
L 393.122129 66.555955 
L 394.959863 59.169554 
L 396.797597 53.391145 
L 398.635331 48.122443 
L 400.473065 45.975797 
L 402.310799 44.073186 
L 404.148534 43.268591 
L 405.986268 42.618042 
L 407.824002 42.100977 
L 409.661736 41.828048 
L 413.337204 41.146043 
L 417.012672 40.712635 
L 426.201343 39.860436 
L 428.039077 39.891959 
L 429.876811 39.6617 
L 431.714545 39.817884 
L 431.714545 39.817884 
" clip-path="url(#p6e38489311)" style="fill: none; stroke: #d62728; stroke-width: 1.5; stroke-linecap: square"/>
   </g>
   <g id="line2d_19">
    <path d="M 66.005455 151.807779 
L 67.843189 130.021522 
L 69.680923 127.948362 
L 71.518657 111.233847 
L 73.356391 105.563816 
L 75.194125 98.577666 
L 77.031859 95.856197 
L 78.869593 91.201502 
L 80.707328 88.250869 
L 84.382796 83.005472 
L 86.22053 80.631648 
L 89.895998 76.931047 
L 91.733732 75.305592 
L 93.571466 73.884868 
L 97.246935 71.440387 
L 100.922403 69.399357 
L 104.597871 67.637807 
L 108.273339 66.088381 
L 113.786542 64.047856 
L 119.299744 62.273071 
L 124.812947 60.711217 
L 132.163883 58.892987 
L 139.51482 57.273358 
L 141.352554 56.979362 
L 143.190288 56.541762 
L 146.865756 56.588322 
L 148.70349 59.127624 
L 150.541224 57.098146 
L 152.378958 63.430261 
L 154.216693 56.384685 
L 156.054427 55.931525 
L 157.892161 55.182922 
L 159.729895 55.565946 
L 161.567629 54.919371 
L 163.405363 54.483589 
L 165.243097 53.482313 
L 167.080831 53.710282 
L 168.918566 52.844747 
L 170.7563 53.915771 
L 172.594034 52.451635 
L 174.431768 55.082004 
L 176.269502 52.518504 
L 178.107236 54.094704 
L 179.94497 52.080567 
L 181.782704 52.622772 
L 183.620439 51.137487 
L 185.458173 52.084608 
L 187.295907 50.623908 
L 189.133641 52.008276 
L 190.971375 50.292647 
L 192.809109 52.389617 
L 194.646843 50.2425 
L 196.484577 52.739232 
L 198.322312 50.108156 
L 200.160046 51.988237 
L 201.99778 49.657472 
L 203.835514 51.128175 
L 205.673248 49.246359 
L 207.510982 50.7305 
L 209.348716 48.944432 
L 211.18645 50.669744 
L 213.024185 48.76981 
L 214.861919 50.507178 
L 216.699653 48.569036 
L 218.537387 49.968222 
L 220.375121 48.22954 
L 222.212855 49.432399 
L 224.050589 47.875462 
L 225.888323 49.110096 
L 227.726058 47.606692 
L 229.563792 49.00667 
L 231.401526 47.347065 
L 233.23926 49.138757 
L 235.076994 47.040254 
L 236.914728 49.309641 
L 238.752462 46.787734 
L 240.590196 49.063149 
L 242.427931 46.553669 
L 244.265665 48.449393 
L 246.103399 46.222138 
L 247.941133 48.071555 
L 249.778867 46.07978 
L 251.616601 47.906329 
L 253.454335 46.110124 
L 255.292069 47.67452 
L 257.129804 46.034954 
L 258.967538 47.390813 
L 260.805272 45.867589 
L 262.643006 47.265816 
L 264.48074 45.842953 
L 266.318474 47.192413 
L 268.156208 45.912482 
L 269.993942 46.81146 
L 271.831677 46.039972 
L 275.507145 46.722044 
L 277.344879 46.390968 
L 279.182613 48.982152 
L 281.020347 47.075684 
L 282.858081 49.550122 
L 284.695815 47.978653 
L 286.53355 49.189207 
L 290.209018 50.145354 
L 292.046752 48.142347 
L 293.884486 49.350257 
L 295.72222 47.570218 
L 297.559954 49.679986 
L 299.397688 46.945568 
L 301.235423 45.135706 
L 303.073157 44.249038 
L 304.910891 44.197796 
L 306.748625 44.807729 
L 308.586359 43.938388 
L 310.424093 44.141519 
L 312.261827 42.909276 
L 314.099561 44.307385 
L 315.937296 42.554659 
L 317.77503 46.903806 
L 319.612764 43.540056 
L 321.450498 47.710943 
L 323.288232 43.272515 
L 325.125966 44.680441 
L 326.9637 42.735816 
L 328.801434 43.901038 
L 330.639169 42.112748 
L 332.476903 44.221438 
L 334.314637 42.153145 
L 336.152371 44.905043 
L 337.990105 42.40282 
L 339.827839 44.798484 
L 341.665573 42.1699 
L 343.503307 44.086607 
L 345.341042 42.021951 
L 347.178776 43.749014 
L 349.01651 41.990849 
L 350.854244 43.30813 
L 352.691978 41.815418 
L 354.529712 43.217383 
L 356.367446 41.681226 
L 358.20518 42.990441 
L 360.042915 41.582094 
L 361.880649 42.871994 
L 363.718383 41.649821 
L 365.556117 42.723489 
L 367.393851 41.534405 
L 369.231585 42.70079 
L 371.069319 41.403885 
L 372.907053 42.739958 
L 374.744788 41.286886 
L 376.582522 43.612465 
L 378.420256 42.141947 
L 380.25799 43.506075 
L 382.095724 41.701989 
L 383.933458 43.850184 
L 385.771192 42.061439 
L 387.608926 46.45585 
L 389.446661 44.05958 
L 391.284395 66.708939 
L 393.122129 64.293119 
L 394.959863 63.90415 
L 396.797597 54.110617 
L 398.635331 48.636544 
L 400.473065 45.603432 
L 404.148534 43.01533 
L 407.824002 41.951344 
L 409.661736 41.484713 
L 413.337204 40.982921 
L 420.688141 40.209665 
L 426.201343 39.929848 
L 428.039077 39.722288 
L 429.876811 39.743774 
L 431.714545 39.46 
L 431.714545 39.46 
" clip-path="url(#p6e38489311)" style="fill: none; stroke: #9467bd; stroke-width: 1.5; stroke-linecap: square"/>
   </g>
   <g id="line2d_20">
    <path d="M 66.005455 155.260828 
L 67.843189 134.291642 
L 69.680923 123.835924 
L 71.518657 108.787177 
L 73.356391 101.809127 
L 75.194125 96.181581 
L 77.031859 92.155983 
L 78.869593 88.881026 
L 80.707328 85.866656 
L 82.545062 83.167179 
L 84.382796 80.799182 
L 88.058264 76.681776 
L 89.895998 74.976234 
L 91.733732 73.508848 
L 95.409201 70.988035 
L 99.084669 68.823927 
L 102.760137 66.952771 
L 106.435605 65.340299 
L 110.111074 63.946332 
L 115.624276 62.131352 
L 122.975212 59.985582 
L 128.488415 58.565919 
L 134.001617 57.330493 
L 141.352554 55.936847 
L 145.028022 55.574147 
L 146.865756 56.240424 
L 148.70349 57.503954 
L 150.541224 60.214326 
L 152.378958 59.328179 
L 156.054427 55.552593 
L 157.892161 54.688758 
L 159.729895 54.259072 
L 161.567629 53.512034 
L 165.243097 52.667548 
L 168.918566 52.26504 
L 170.7563 52.679251 
L 172.594034 53.250151 
L 174.431768 53.352533 
L 176.269502 53.869598 
L 178.107236 52.841648 
L 179.94497 52.86785 
L 181.782704 52.006828 
L 183.620439 51.60267 
L 185.458173 51.03923 
L 189.133641 50.522266 
L 190.971375 50.480825 
L 192.809109 50.590633 
L 194.646843 50.588444 
L 196.484577 50.748114 
L 198.322312 50.383578 
L 200.160046 50.227462 
L 203.835514 49.668064 
L 205.673248 49.595487 
L 207.510982 49.408925 
L 209.348716 49.527069 
L 211.18645 49.359485 
L 213.024185 49.521344 
L 214.861919 49.245029 
L 216.699653 49.26266 
L 218.537387 48.890294 
L 220.375121 48.754351 
L 222.212855 48.431897 
L 229.563792 47.803694 
L 231.401526 47.823918 
L 233.23926 47.720643 
L 235.076994 47.829626 
L 236.914728 47.690753 
L 238.752462 47.806455 
L 240.590196 47.51773 
L 242.427931 47.565772 
L 244.265665 47.18918 
L 246.103399 47.245659 
L 247.941133 46.985241 
L 249.778867 47.136002 
L 251.616601 46.935043 
L 253.454335 47.085181 
L 255.292069 46.832408 
L 257.129804 46.859637 
L 258.967538 46.586 
L 260.805272 46.579365 
L 262.643006 46.361702 
L 264.48074 46.449299 
L 266.318474 46.23731 
L 268.156208 46.272471 
L 269.993942 46.011833 
L 273.669411 45.950589 
L 275.507145 46.166165 
L 277.344879 46.666996 
L 279.182613 47.589027 
L 281.020347 47.749387 
L 282.858081 48.18106 
L 284.695815 47.323473 
L 286.53355 47.536674 
L 288.371284 50.554277 
L 290.209018 52.155215 
L 292.046752 51.115562 
L 293.884486 48.61398 
L 295.72222 48.561711 
L 297.559954 46.927634 
L 299.397688 46.472251 
L 301.235423 46.465347 
L 303.073157 45.341229 
L 304.910891 44.558559 
L 306.748625 43.965364 
L 308.586359 43.490751 
L 314.099561 43.407565 
L 315.937296 44.1592 
L 317.77503 44.719272 
L 319.612764 45.796241 
L 323.288232 44.771188 
L 325.125966 43.729127 
L 326.9637 43.248873 
L 328.801434 42.985154 
L 332.476903 42.946457 
L 334.314637 43.237927 
L 336.152371 43.392376 
L 337.990105 43.705232 
L 339.827839 43.540174 
L 341.665573 43.522914 
L 343.503307 43.072482 
L 345.341042 43.15363 
L 347.178776 42.75087 
L 349.01651 42.784969 
L 350.854244 42.44773 
L 352.691978 42.474538 
L 354.529712 42.304883 
L 356.367446 42.312326 
L 358.20518 42.159409 
L 360.042915 42.214844 
L 361.880649 42.13117 
L 365.556117 42.152657 
L 367.393851 42.025656 
L 369.231585 42.057549 
L 372.907053 41.892525 
L 374.744788 42.06484 
L 376.582522 42.63414 
L 378.420256 42.90217 
L 380.25799 42.43303 
L 382.095724 42.81917 
L 383.933458 42.514734 
L 385.771192 43.266486 
L 387.608926 44.77144 
L 389.446661 47.529669 
L 391.284395 65.221852 
L 393.122129 68.365328 
L 394.959863 63.32766 
L 396.797597 54.048464 
L 398.635331 48.532612 
L 400.473065 45.862756 
L 402.310799 44.212867 
L 404.148534 43.169375 
L 405.986268 42.547654 
L 407.824002 42.049365 
L 411.49947 41.34515 
L 417.012672 40.645497 
L 424.363609 40.022564 
L 431.714545 39.648414 
L 431.714545 39.648414 
" clip-path="url(#p6e38489311)" style="fill: none; stroke: #8c564b; stroke-width: 1.5; stroke-linecap: square"/>
   </g>
   <g id="patch_3">
    <path d="M 47.72 303.64 
L 47.72 26.88 
" style="fill: none; stroke: #000000; stroke-width: 0.8; stroke-linejoin: miter; stroke-linecap: square"/>
   </g>
   <g id="patch_4">
    <path d="M 450 303.64 
L 450 26.88 
" style="fill: none; stroke: #000000; stroke-width: 0.8; stroke-linejoin: miter; stroke-linecap: square"/>
   </g>
   <g id="patch_5">
    <path d="M 47.72 303.64 
L 450 303.64 
" style="fill: none; stroke: #000000; stroke-width: 0.8; stroke-linejoin: miter; stroke-linecap: square"/>
   </g>
   <g id="patch_6">
    <path d="M 47.72 26.88 
L 450 26.88 
" style="fill: none; stroke: #000000; stroke-width: 0.8; stroke-linejoin: miter; stroke-linecap: square"/>
   </g>
   <g id="text_17">
    <!-- Metrics of training -->
    <g transform="translate(194.240312 20.88)scale(0.12 -0.12)">
     <defs>
      <path id="DejaVuSans-4d" d="M 628 4666 
L 1569 4666 
L 2759 1491 
L 3956 4666 
L 4897 4666 
L 4897 0 
L 4281 0 
L 4281 4097 
L 3078 897 
L 2444 897 
L 1241 4097 
L 1241 0 
L 628 0 
L 628 4666 
z
" transform="scale(0.015625)"/>
      <path id="DejaVuSans-61" d="M 2194 1759 
Q 1497 1759 1228 1600 
Q 959 1441 959 1056 
Q 959 750 1161 570 
Q 1363 391 1709 391 
Q 2188 391 2477 730 
Q 2766 1069 2766 1631 
L 2766 1759 
L 2194 1759 
z
M 3341 1997 
L 3341 0 
L 2766 0 
L 2766 531 
Q 2569 213 2275 61 
Q 1981 -91 1556 -91 
Q 1019 -91 701 211 
Q 384 513 384 1019 
Q 384 1609 779 1909 
Q 1175 2209 1959 2209 
L 2766 2209 
L 2766 2266 
Q 2766 2663 2505 2880 
Q 2244 3097 1772 3097 
Q 1472 3097 1187 3025 
Q 903 2953 641 2809 
L 641 3341 
Q 956 3463 1253 3523 
Q 1550 3584 1831 3584 
Q 2591 3584 2966 3190 
Q 3341 2797 3341 1997 
z
" transform="scale(0.015625)"/>
      <path id="DejaVuSans-67" d="M 2906 1791 
Q 2906 2416 2648 2759 
Q 2391 3103 1925 3103 
Q 1463 3103 1205 2759 
Q 947 2416 947 1791 
Q 947 1169 1205 825 
Q 1463 481 1925 481 
Q 2391 481 2648 825 
Q 2906 1169 2906 1791 
z
M 3481 434 
Q 3481 -459 3084 -895 
Q 2688 -1331 1869 -1331 
Q 1566 -1331 1297 -1286 
Q 1028 -1241 775 -1147 
L 775 -588 
Q 1028 -725 1275 -790 
Q 1522 -856 1778 -856 
Q 2344 -856 2625 -561 
Q 2906 -266 2906 331 
L 2906 616 
Q 2728 306 2450 153 
Q 2172 0 1784 0 
Q 1141 0 747 490 
Q 353 981 353 1791 
Q 353 2603 747 3093 
Q 1141 3584 1784 3584 
Q 2172 3584 2450 3431 
Q 2728 3278 2906 2969 
L 2906 3500 
L 3481 3500 
L 3481 434 
z
" transform="scale(0.015625)"/>
     </defs>
     <use xlink:href="#DejaVuSans-4d"/>
     <use xlink:href="#DejaVuSans-65" x="86.279297"/>
     <use xlink:href="#DejaVuSans-74" x="147.802734"/>
     <use xlink:href="#DejaVuSans-72" x="187.011719"/>
     <use xlink:href="#DejaVuSans-69" x="228.125"/>
     <use xlink:href="#DejaVuSans-63" x="255.908203"/>
     <use xlink:href="#DejaVuSans-73" x="310.888672"/>
     <use xlink:href="#DejaVuSans-20" x="362.988281"/>
     <use xlink:href="#DejaVuSans-6f" x="394.775391"/>
     <use xlink:href="#DejaVuSans-66" x="455.957031"/>
     <use xlink:href="#DejaVuSans-20" x="491.162109"/>
     <use xlink:href="#DejaVuSans-74" x="522.949219"/>
     <use xlink:href="#DejaVuSans-72" x="562.158203"/>
     <use xlink:href="#DejaVuSans-61" x="603.271484"/>
     <use xlink:href="#DejaVuSans-69" x="664.550781"/>
     <use xlink:href="#DejaVuSans-6e" x="692.333984"/>
     <use xlink:href="#DejaVuSans-69" x="755.712891"/>
     <use xlink:href="#DejaVuSans-6e" x="783.496094"/>
     <use xlink:href="#DejaVuSans-67" x="846.875"/>
    </g>
   </g>
   <g id="legend_1">
    <g id="patch_7">
     <path d="M 344.534375 211.0725 
L 443 211.0725 
Q 445 211.0725 445 209.0725 
L 445 121.4475 
Q 445 119.4475 443 119.4475 
L 344.534375 119.4475 
Q 342.534375 119.4475 342.534375 121.4475 
L 342.534375 209.0725 
Q 342.534375 211.0725 344.534375 211.0725 
z
" style="fill: #ffffff; opacity: 0.8; stroke: #cccccc; stroke-linejoin: miter"/>
    </g>
    <g id="line2d_21">
     <path d="M 346.534375 127.545937 
L 356.534375 127.545937 
L 366.534375 127.545937 
" style="fill: none; stroke: #1f77b4; stroke-width: 1.5; stroke-linecap: square"/>
    </g>
    <g id="text_18">
     <!-- loss -->
     <g transform="translate(374.534375 131.045937)scale(0.1 -0.1)">
      <defs>
       <path id="DejaVuSans-6c" d="M 603 4863 
L 1178 4863 
L 1178 0 
L 603 0 
L 603 4863 
z
" transform="scale(0.015625)"/>
      </defs>
      <use xlink:href="#DejaVuSans-6c"/>
      <use xlink:href="#DejaVuSans-6f" x="27.783203"/>
      <use xlink:href="#DejaVuSans-73" x="88.964844"/>
      <use xlink:href="#DejaVuSans-73" x="141.064453"/>
     </g>
    </g>
    <g id="line2d_22">
     <path d="M 346.534375 142.224062 
L 356.534375 142.224062 
L 366.534375 142.224062 
" style="fill: none; stroke: #ff7f0e; stroke-width: 1.5; stroke-linecap: square"/>
    </g>
    <g id="text_19">
     <!-- iou_binarized -->
     <g transform="translate(374.534375 145.724062)scale(0.1 -0.1)">
      <defs>
       <path id="DejaVuSans-5f" d="M 3263 -1063 
L 3263 -1509 
L -63 -1509 
L -63 -1063 
L 3263 -1063 
z
" transform="scale(0.015625)"/>
       <path id="DejaVuSans-7a" d="M 353 3500 
L 3084 3500 
L 3084 2975 
L 922 459 
L 3084 459 
L 3084 0 
L 275 0 
L 275 525 
L 2438 3041 
L 353 3041 
L 353 3500 
z
" transform="scale(0.015625)"/>
       <path id="DejaVuSans-64" d="M 2906 2969 
L 2906 4863 
L 3481 4863 
L 3481 0 
L 2906 0 
L 2906 525 
Q 2725 213 2448 61 
Q 2172 -91 1784 -91 
Q 1150 -91 751 415 
Q 353 922 353 1747 
Q 353 2572 751 3078 
Q 1150 3584 1784 3584 
Q 2172 3584 2448 3432 
Q 2725 3281 2906 2969 
z
M 947 1747 
Q 947 1113 1208 752 
Q 1469 391 1925 391 
Q 2381 391 2643 752 
Q 2906 1113 2906 1747 
Q 2906 2381 2643 2742 
Q 2381 3103 1925 3103 
Q 1469 3103 1208 2742 
Q 947 2381 947 1747 
z
" transform="scale(0.015625)"/>
      </defs>
      <use xlink:href="#DejaVuSans-69"/>
      <use xlink:href="#DejaVuSans-6f" x="27.783203"/>
      <use xlink:href="#DejaVuSans-75" x="88.964844"/>
      <use xlink:href="#DejaVuSans-5f" x="152.34375"/>
      <use xlink:href="#DejaVuSans-62" x="202.34375"/>
      <use xlink:href="#DejaVuSans-69" x="265.820312"/>
      <use xlink:href="#DejaVuSans-6e" x="293.603516"/>
      <use xlink:href="#DejaVuSans-61" x="356.982422"/>
      <use xlink:href="#DejaVuSans-72" x="418.261719"/>
      <use xlink:href="#DejaVuSans-69" x="459.375"/>
      <use xlink:href="#DejaVuSans-7a" x="487.158203"/>
      <use xlink:href="#DejaVuSans-65" x="539.648438"/>
      <use xlink:href="#DejaVuSans-64" x="601.171875"/>
     </g>
    </g>
    <g id="line2d_23">
     <path d="M 346.534375 157.180312 
L 356.534375 157.180312 
L 366.534375 157.180312 
" style="fill: none; stroke: #2ca02c; stroke-width: 1.5; stroke-linecap: square"/>
    </g>
    <g id="text_20">
     <!-- iou -->
     <g transform="translate(374.534375 160.680312)scale(0.1 -0.1)">
      <use xlink:href="#DejaVuSans-69"/>
      <use xlink:href="#DejaVuSans-6f" x="27.783203"/>
      <use xlink:href="#DejaVuSans-75" x="88.964844"/>
     </g>
    </g>
    <g id="line2d_24">
     <path d="M 346.534375 171.858437 
L 356.534375 171.858437 
L 366.534375 171.858437 
" style="fill: none; stroke: #d62728; stroke-width: 1.5; stroke-linecap: square"/>
    </g>
    <g id="text_21">
     <!-- recall -->
     <g transform="translate(374.534375 175.358437)scale(0.1 -0.1)">
      <use xlink:href="#DejaVuSans-72"/>
      <use xlink:href="#DejaVuSans-65" x="38.863281"/>
      <use xlink:href="#DejaVuSans-63" x="100.386719"/>
      <use xlink:href="#DejaVuSans-61" x="155.367188"/>
      <use xlink:href="#DejaVuSans-6c" x="216.646484"/>
      <use xlink:href="#DejaVuSans-6c" x="244.429688"/>
     </g>
    </g>
    <g id="line2d_25">
     <path d="M 346.534375 186.536562 
L 356.534375 186.536562 
L 366.534375 186.536562 
" style="fill: none; stroke: #9467bd; stroke-width: 1.5; stroke-linecap: square"/>
    </g>
    <g id="text_22">
     <!-- precision -->
     <g transform="translate(374.534375 190.036562)scale(0.1 -0.1)">
      <use xlink:href="#DejaVuSans-70"/>
      <use xlink:href="#DejaVuSans-72" x="63.476562"/>
      <use xlink:href="#DejaVuSans-65" x="102.339844"/>
      <use xlink:href="#DejaVuSans-63" x="163.863281"/>
      <use xlink:href="#DejaVuSans-69" x="218.84375"/>
      <use xlink:href="#DejaVuSans-73" x="246.626953"/>
      <use xlink:href="#DejaVuSans-69" x="298.726562"/>
      <use xlink:href="#DejaVuSans-6f" x="326.509766"/>
      <use xlink:href="#DejaVuSans-6e" x="387.691406"/>
     </g>
    </g>
    <g id="line2d_26">
     <path d="M 346.534375 201.214687 
L 356.534375 201.214687 
L 366.534375 201.214687 
" style="fill: none; stroke: #8c564b; stroke-width: 1.5; stroke-linecap: square"/>
    </g>
    <g id="text_23">
     <!-- F1_score -->
     <g transform="translate(374.534375 204.714687)scale(0.1 -0.1)">
      <defs>
       <path id="DejaVuSans-46" d="M 628 4666 
L 3309 4666 
L 3309 4134 
L 1259 4134 
L 1259 2759 
L 3109 2759 
L 3109 2228 
L 1259 2228 
L 1259 0 
L 628 0 
L 628 4666 
z
" transform="scale(0.015625)"/>
      </defs>
      <use xlink:href="#DejaVuSans-46"/>
      <use xlink:href="#DejaVuSans-31" x="57.519531"/>
      <use xlink:href="#DejaVuSans-5f" x="121.142578"/>
      <use xlink:href="#DejaVuSans-73" x="171.142578"/>
      <use xlink:href="#DejaVuSans-63" x="223.242188"/>
      <use xlink:href="#DejaVuSans-6f" x="278.222656"/>
      <use xlink:href="#DejaVuSans-72" x="339.404297"/>
      <use xlink:href="#DejaVuSans-65" x="378.267578"/>
     </g>
    </g>
   </g>
  </g>
 </g>
 <defs>
  <clipPath id="p6e38489311">
   <rect x="47.72" y="26.88" width="402.28" height="276.76"/>
  </clipPath>
 </defs>
</svg>
