<?xml version="1.0" encoding="utf-8" standalone="no"?>
<!DOCTYPE svg PUBLIC "-//W3C//DTD SVG 1.1//EN"
  "http://www.w3.org/Graphics/SVG/1.1/DTD/svg11.dtd">
<svg xmlns:xlink="http://www.w3.org/1999/xlink" width="460.8pt" height="345.6pt" viewBox="0 0 460.8 345.6" xmlns="http://www.w3.org/2000/svg" version="1.1">
 <metadata>
  <rdf:RDF xmlns:dc="http://purl.org/dc/elements/1.1/" xmlns:cc="http://creativecommons.org/ns#" xmlns:rdf="http://www.w3.org/1999/02/22-rdf-syntax-ns#">
   <cc:Work>
    <dc:type rdf:resource="http://purl.org/dc/dcmitype/StillImage"/>
    <dc:date>2022-07-15T02:11:19.460207</dc:date>
    <dc:format>image/svg+xml</dc:format>
    <dc:creator>
     <cc:Agent>
      <dc:title>Matplotlib v3.5.1, https://matplotlib.org/</dc:title>
     </cc:Agent>
    </dc:creator>
   </cc:Work>
  </rdf:RDF>
 </metadata>
 <defs>
  <style type="text/css">*{stroke-linejoin: round; stroke-linecap: butt}</style>
 </defs>
 <g id="figure_1">
  <g id="patch_1">
   <path d="M 0 345.6 
L 460.8 345.6 
L 460.8 0 
L 0 0 
z
" style="fill: #ffffff"/>
  </g>
  <g id="axes_1">
   <g id="patch_2">
    <path d="M 47.72 303.64 
L 450 303.64 
L 450 26.88 
L 47.72 26.88 
z
" style="fill: #ffffff"/>
   </g>
   <g id="matplotlib.axis_1">
    <g id="xtick_1">
     <g id="line2d_1">
      <defs>
       <path id="mab70820ade" d="M 0 0 
L 0 3.5 
" style="stroke: #000000; stroke-width: 0.8"/>
      </defs>
      <g>
       <use xlink:href="#mab70820ade" x="66.005455" y="303.64" style="stroke: #000000; stroke-width: 0.8"/>
      </g>
     </g>
     <g id="text_1">
      <!-- 0 -->
      <g transform="translate(62.824205 318.238437)scale(0.1 -0.1)">
       <defs>
        <path id="DejaVuSans-30" d="M 2034 4250 
Q 1547 4250 1301 3770 
Q 1056 3291 1056 2328 
Q 1056 1369 1301 889 
Q 1547 409 2034 409 
Q 2525 409 2770 889 
Q 3016 1369 3016 2328 
Q 3016 3291 2770 3770 
Q 2525 4250 2034 4250 
z
M 2034 4750 
Q 2819 4750 3233 4129 
Q 3647 3509 3647 2328 
Q 3647 1150 3233 529 
Q 2819 -91 2034 -91 
Q 1250 -91 836 529 
Q 422 1150 422 2328 
Q 422 3509 836 4129 
Q 1250 4750 2034 4750 
z
" transform="scale(0.015625)"/>
       </defs>
       <use xlink:href="#DejaVuSans-30"/>
      </g>
     </g>
    </g>
    <g id="xtick_2">
     <g id="line2d_2">
      <g>
       <use xlink:href="#mab70820ade" x="127.160821" y="303.64" style="stroke: #000000; stroke-width: 0.8"/>
      </g>
     </g>
     <g id="text_2">
      <!-- 50 -->
      <g transform="translate(120.798321 318.238437)scale(0.1 -0.1)">
       <defs>
        <path id="DejaVuSans-35" d="M 691 4666 
L 3169 4666 
L 3169 4134 
L 1269 4134 
L 1269 2991 
Q 1406 3038 1543 3061 
Q 1681 3084 1819 3084 
Q 2600 3084 3056 2656 
Q 3513 2228 3513 1497 
Q 3513 744 3044 326 
Q 2575 -91 1722 -91 
Q 1428 -91 1123 -41 
Q 819 9 494 109 
L 494 744 
Q 775 591 1075 516 
Q 1375 441 1709 441 
Q 2250 441 2565 725 
Q 2881 1009 2881 1497 
Q 2881 1984 2565 2268 
Q 2250 2553 1709 2553 
Q 1456 2553 1204 2497 
Q 953 2441 691 2322 
L 691 4666 
z
" transform="scale(0.015625)"/>
       </defs>
       <use xlink:href="#DejaVuSans-35"/>
       <use xlink:href="#DejaVuSans-30" x="63.623047"/>
      </g>
     </g>
    </g>
    <g id="xtick_3">
     <g id="line2d_3">
      <g>
       <use xlink:href="#mab70820ade" x="188.316187" y="303.64" style="stroke: #000000; stroke-width: 0.8"/>
      </g>
     </g>
     <g id="text_3">
      <!-- 100 -->
      <g transform="translate(178.772437 318.238437)scale(0.1 -0.1)">
       <defs>
        <path id="DejaVuSans-31" d="M 794 531 
L 1825 531 
L 1825 4091 
L 703 3866 
L 703 4441 
L 1819 4666 
L 2450 4666 
L 2450 531 
L 3481 531 
L 3481 0 
L 794 0 
L 794 531 
z
" transform="scale(0.015625)"/>
       </defs>
       <use xlink:href="#DejaVuSans-31"/>
       <use xlink:href="#DejaVuSans-30" x="63.623047"/>
       <use xlink:href="#DejaVuSans-30" x="127.246094"/>
      </g>
     </g>
    </g>
    <g id="xtick_4">
     <g id="line2d_4">
      <g>
       <use xlink:href="#mab70820ade" x="249.471554" y="303.64" style="stroke: #000000; stroke-width: 0.8"/>
      </g>
     </g>
     <g id="text_4">
      <!-- 150 -->
      <g transform="translate(239.927804 318.238437)scale(0.1 -0.1)">
       <use xlink:href="#DejaVuSans-31"/>
       <use xlink:href="#DejaVuSans-35" x="63.623047"/>
       <use xlink:href="#DejaVuSans-30" x="127.246094"/>
      </g>
     </g>
    </g>
    <g id="xtick_5">
     <g id="line2d_5">
      <g>
       <use xlink:href="#mab70820ade" x="310.62692" y="303.64" style="stroke: #000000; stroke-width: 0.8"/>
      </g>
     </g>
     <g id="text_5">
      <!-- 200 -->
      <g transform="translate(301.08317 318.238437)scale(0.1 -0.1)">
       <defs>
        <path id="DejaVuSans-32" d="M 1228 531 
L 3431 531 
L 3431 0 
L 469 0 
L 469 531 
Q 828 903 1448 1529 
Q 2069 2156 2228 2338 
Q 2531 2678 2651 2914 
Q 2772 3150 2772 3378 
Q 2772 3750 2511 3984 
Q 2250 4219 1831 4219 
Q 1534 4219 1204 4116 
Q 875 4013 500 3803 
L 500 4441 
Q 881 4594 1212 4672 
Q 1544 4750 1819 4750 
Q 2544 4750 2975 4387 
Q 3406 4025 3406 3419 
Q 3406 3131 3298 2873 
Q 3191 2616 2906 2266 
Q 2828 2175 2409 1742 
Q 1991 1309 1228 531 
z
" transform="scale(0.015625)"/>
       </defs>
       <use xlink:href="#DejaVuSans-32"/>
       <use xlink:href="#DejaVuSans-30" x="63.623047"/>
       <use xlink:href="#DejaVuSans-30" x="127.246094"/>
      </g>
     </g>
    </g>
    <g id="xtick_6">
     <g id="line2d_6">
      <g>
       <use xlink:href="#mab70820ade" x="371.782286" y="303.64" style="stroke: #000000; stroke-width: 0.8"/>
      </g>
     </g>
     <g id="text_6">
      <!-- 250 -->
      <g transform="translate(362.238536 318.238437)scale(0.1 -0.1)">
       <use xlink:href="#DejaVuSans-32"/>
       <use xlink:href="#DejaVuSans-35" x="63.623047"/>
       <use xlink:href="#DejaVuSans-30" x="127.246094"/>
      </g>
     </g>
    </g>
    <g id="xtick_7">
     <g id="line2d_7">
      <g>
       <use xlink:href="#mab70820ade" x="432.937653" y="303.64" style="stroke: #000000; stroke-width: 0.8"/>
      </g>
     </g>
     <g id="text_7">
      <!-- 300 -->
      <g transform="translate(423.393903 318.238437)scale(0.1 -0.1)">
       <defs>
        <path id="DejaVuSans-33" d="M 2597 2516 
Q 3050 2419 3304 2112 
Q 3559 1806 3559 1356 
Q 3559 666 3084 287 
Q 2609 -91 1734 -91 
Q 1441 -91 1130 -33 
Q 819 25 488 141 
L 488 750 
Q 750 597 1062 519 
Q 1375 441 1716 441 
Q 2309 441 2620 675 
Q 2931 909 2931 1356 
Q 2931 1769 2642 2001 
Q 2353 2234 1838 2234 
L 1294 2234 
L 1294 2753 
L 1863 2753 
Q 2328 2753 2575 2939 
Q 2822 3125 2822 3475 
Q 2822 3834 2567 4026 
Q 2313 4219 1838 4219 
Q 1578 4219 1281 4162 
Q 984 4106 628 3988 
L 628 4550 
Q 988 4650 1302 4700 
Q 1616 4750 1894 4750 
Q 2613 4750 3031 4423 
Q 3450 4097 3450 3541 
Q 3450 3153 3228 2886 
Q 3006 2619 2597 2516 
z
" transform="scale(0.015625)"/>
       </defs>
       <use xlink:href="#DejaVuSans-33"/>
       <use xlink:href="#DejaVuSans-30" x="63.623047"/>
       <use xlink:href="#DejaVuSans-30" x="127.246094"/>
      </g>
     </g>
    </g>
    <g id="text_8">
     <!-- number of epochs -->
     <g transform="translate(203.515469 331.916562)scale(0.1 -0.1)">
      <defs>
       <path id="DejaVuSans-6e" d="M 3513 2113 
L 3513 0 
L 2938 0 
L 2938 2094 
Q 2938 2591 2744 2837 
Q 2550 3084 2163 3084 
Q 1697 3084 1428 2787 
Q 1159 2491 1159 1978 
L 1159 0 
L 581 0 
L 581 3500 
L 1159 3500 
L 1159 2956 
Q 1366 3272 1645 3428 
Q 1925 3584 2291 3584 
Q 2894 3584 3203 3211 
Q 3513 2838 3513 2113 
z
" transform="scale(0.015625)"/>
       <path id="DejaVuSans-75" d="M 544 1381 
L 544 3500 
L 1119 3500 
L 1119 1403 
Q 1119 906 1312 657 
Q 1506 409 1894 409 
Q 2359 409 2629 706 
Q 2900 1003 2900 1516 
L 2900 3500 
L 3475 3500 
L 3475 0 
L 2900 0 
L 2900 538 
Q 2691 219 2414 64 
Q 2138 -91 1772 -91 
Q 1169 -91 856 284 
Q 544 659 544 1381 
z
M 1991 3584 
L 1991 3584 
z
" transform="scale(0.015625)"/>
       <path id="DejaVuSans-6d" d="M 3328 2828 
Q 3544 3216 3844 3400 
Q 4144 3584 4550 3584 
Q 5097 3584 5394 3201 
Q 5691 2819 5691 2113 
L 5691 0 
L 5113 0 
L 5113 2094 
Q 5113 2597 4934 2840 
Q 4756 3084 4391 3084 
Q 3944 3084 3684 2787 
Q 3425 2491 3425 1978 
L 3425 0 
L 2847 0 
L 2847 2094 
Q 2847 2600 2669 2842 
Q 2491 3084 2119 3084 
Q 1678 3084 1418 2786 
Q 1159 2488 1159 1978 
L 1159 0 
L 581 0 
L 581 3500 
L 1159 3500 
L 1159 2956 
Q 1356 3278 1631 3431 
Q 1906 3584 2284 3584 
Q 2666 3584 2933 3390 
Q 3200 3197 3328 2828 
z
" transform="scale(0.015625)"/>
       <path id="DejaVuSans-62" d="M 3116 1747 
Q 3116 2381 2855 2742 
Q 2594 3103 2138 3103 
Q 1681 3103 1420 2742 
Q 1159 2381 1159 1747 
Q 1159 1113 1420 752 
Q 1681 391 2138 391 
Q 2594 391 2855 752 
Q 3116 1113 3116 1747 
z
M 1159 2969 
Q 1341 3281 1617 3432 
Q 1894 3584 2278 3584 
Q 2916 3584 3314 3078 
Q 3713 2572 3713 1747 
Q 3713 922 3314 415 
Q 2916 -91 2278 -91 
Q 1894 -91 1617 61 
Q 1341 213 1159 525 
L 1159 0 
L 581 0 
L 581 4863 
L 1159 4863 
L 1159 2969 
z
" transform="scale(0.015625)"/>
       <path id="DejaVuSans-65" d="M 3597 1894 
L 3597 1613 
L 953 1613 
Q 991 1019 1311 708 
Q 1631 397 2203 397 
Q 2534 397 2845 478 
Q 3156 559 3463 722 
L 3463 178 
Q 3153 47 2828 -22 
Q 2503 -91 2169 -91 
Q 1331 -91 842 396 
Q 353 884 353 1716 
Q 353 2575 817 3079 
Q 1281 3584 2069 3584 
Q 2775 3584 3186 3129 
Q 3597 2675 3597 1894 
z
M 3022 2063 
Q 3016 2534 2758 2815 
Q 2500 3097 2075 3097 
Q 1594 3097 1305 2825 
Q 1016 2553 972 2059 
L 3022 2063 
z
" transform="scale(0.015625)"/>
       <path id="DejaVuSans-72" d="M 2631 2963 
Q 2534 3019 2420 3045 
Q 2306 3072 2169 3072 
Q 1681 3072 1420 2755 
Q 1159 2438 1159 1844 
L 1159 0 
L 581 0 
L 581 3500 
L 1159 3500 
L 1159 2956 
Q 1341 3275 1631 3429 
Q 1922 3584 2338 3584 
Q 2397 3584 2469 3576 
Q 2541 3569 2628 3553 
L 2631 2963 
z
" transform="scale(0.015625)"/>
       <path id="DejaVuSans-20" transform="scale(0.015625)"/>
       <path id="DejaVuSans-6f" d="M 1959 3097 
Q 1497 3097 1228 2736 
Q 959 2375 959 1747 
Q 959 1119 1226 758 
Q 1494 397 1959 397 
Q 2419 397 2687 759 
Q 2956 1122 2956 1747 
Q 2956 2369 2687 2733 
Q 2419 3097 1959 3097 
z
M 1959 3584 
Q 2709 3584 3137 3096 
Q 3566 2609 3566 1747 
Q 3566 888 3137 398 
Q 2709 -91 1959 -91 
Q 1206 -91 779 398 
Q 353 888 353 1747 
Q 353 2609 779 3096 
Q 1206 3584 1959 3584 
z
" transform="scale(0.015625)"/>
       <path id="DejaVuSans-66" d="M 2375 4863 
L 2375 4384 
L 1825 4384 
Q 1516 4384 1395 4259 
Q 1275 4134 1275 3809 
L 1275 3500 
L 2222 3500 
L 2222 3053 
L 1275 3053 
L 1275 0 
L 697 0 
L 697 3053 
L 147 3053 
L 147 3500 
L 697 3500 
L 697 3744 
Q 697 4328 969 4595 
Q 1241 4863 1831 4863 
L 2375 4863 
z
" transform="scale(0.015625)"/>
       <path id="DejaVuSans-70" d="M 1159 525 
L 1159 -1331 
L 581 -1331 
L 581 3500 
L 1159 3500 
L 1159 2969 
Q 1341 3281 1617 3432 
Q 1894 3584 2278 3584 
Q 2916 3584 3314 3078 
Q 3713 2572 3713 1747 
Q 3713 922 3314 415 
Q 2916 -91 2278 -91 
Q 1894 -91 1617 61 
Q 1341 213 1159 525 
z
M 3116 1747 
Q 3116 2381 2855 2742 
Q 2594 3103 2138 3103 
Q 1681 3103 1420 2742 
Q 1159 2381 1159 1747 
Q 1159 1113 1420 752 
Q 1681 391 2138 391 
Q 2594 391 2855 752 
Q 3116 1113 3116 1747 
z
" transform="scale(0.015625)"/>
       <path id="DejaVuSans-63" d="M 3122 3366 
L 3122 2828 
Q 2878 2963 2633 3030 
Q 2388 3097 2138 3097 
Q 1578 3097 1268 2742 
Q 959 2388 959 1747 
Q 959 1106 1268 751 
Q 1578 397 2138 397 
Q 2388 397 2633 464 
Q 2878 531 3122 666 
L 3122 134 
Q 2881 22 2623 -34 
Q 2366 -91 2075 -91 
Q 1284 -91 818 406 
Q 353 903 353 1747 
Q 353 2603 823 3093 
Q 1294 3584 2113 3584 
Q 2378 3584 2631 3529 
Q 2884 3475 3122 3366 
z
" transform="scale(0.015625)"/>
       <path id="DejaVuSans-68" d="M 3513 2113 
L 3513 0 
L 2938 0 
L 2938 2094 
Q 2938 2591 2744 2837 
Q 2550 3084 2163 3084 
Q 1697 3084 1428 2787 
Q 1159 2491 1159 1978 
L 1159 0 
L 581 0 
L 581 4863 
L 1159 4863 
L 1159 2956 
Q 1366 3272 1645 3428 
Q 1925 3584 2291 3584 
Q 2894 3584 3203 3211 
Q 3513 2838 3513 2113 
z
" transform="scale(0.015625)"/>
       <path id="DejaVuSans-73" d="M 2834 3397 
L 2834 2853 
Q 2591 2978 2328 3040 
Q 2066 3103 1784 3103 
Q 1356 3103 1142 2972 
Q 928 2841 928 2578 
Q 928 2378 1081 2264 
Q 1234 2150 1697 2047 
L 1894 2003 
Q 2506 1872 2764 1633 
Q 3022 1394 3022 966 
Q 3022 478 2636 193 
Q 2250 -91 1575 -91 
Q 1294 -91 989 -36 
Q 684 19 347 128 
L 347 722 
Q 666 556 975 473 
Q 1284 391 1588 391 
Q 1994 391 2212 530 
Q 2431 669 2431 922 
Q 2431 1156 2273 1281 
Q 2116 1406 1581 1522 
L 1381 1569 
Q 847 1681 609 1914 
Q 372 2147 372 2553 
Q 372 3047 722 3315 
Q 1072 3584 1716 3584 
Q 2034 3584 2315 3537 
Q 2597 3491 2834 3397 
z
" transform="scale(0.015625)"/>
      </defs>
      <use xlink:href="#DejaVuSans-6e"/>
      <use xlink:href="#DejaVuSans-75" x="63.378906"/>
      <use xlink:href="#DejaVuSans-6d" x="126.757812"/>
      <use xlink:href="#DejaVuSans-62" x="224.169922"/>
      <use xlink:href="#DejaVuSans-65" x="287.646484"/>
      <use xlink:href="#DejaVuSans-72" x="349.169922"/>
      <use xlink:href="#DejaVuSans-20" x="390.283203"/>
      <use xlink:href="#DejaVuSans-6f" x="422.070312"/>
      <use xlink:href="#DejaVuSans-66" x="483.251953"/>
      <use xlink:href="#DejaVuSans-20" x="518.457031"/>
      <use xlink:href="#DejaVuSans-65" x="550.244141"/>
      <use xlink:href="#DejaVuSans-70" x="611.767578"/>
      <use xlink:href="#DejaVuSans-6f" x="675.244141"/>
      <use xlink:href="#DejaVuSans-63" x="736.425781"/>
      <use xlink:href="#DejaVuSans-68" x="791.40625"/>
      <use xlink:href="#DejaVuSans-73" x="854.785156"/>
     </g>
    </g>
   </g>
   <g id="matplotlib.axis_2">
    <g id="ytick_1">
     <g id="line2d_8">
      <defs>
       <path id="m9e00370165" d="M 0 0 
L -3.5 0 
" style="stroke: #000000; stroke-width: 0.8"/>
      </defs>
      <g>
       <use xlink:href="#m9e00370165" x="47.72" y="291.091424" style="stroke: #000000; stroke-width: 0.8"/>
      </g>
     </g>
     <g id="text_9">
      <!-- 0.0 -->
      <g transform="translate(24.816875 294.890643)scale(0.1 -0.1)">
       <defs>
        <path id="DejaVuSans-2e" d="M 684 794 
L 1344 794 
L 1344 0 
L 684 0 
L 684 794 
z
" transform="scale(0.015625)"/>
       </defs>
       <use xlink:href="#DejaVuSans-30"/>
       <use xlink:href="#DejaVuSans-2e" x="63.623047"/>
       <use xlink:href="#DejaVuSans-30" x="95.410156"/>
      </g>
     </g>
    </g>
    <g id="ytick_2">
     <g id="line2d_9">
      <g>
       <use xlink:href="#m9e00370165" x="47.72" y="255.148264" style="stroke: #000000; stroke-width: 0.8"/>
      </g>
     </g>
     <g id="text_10">
      <!-- 0.1 -->
      <g transform="translate(24.816875 258.947483)scale(0.1 -0.1)">
       <use xlink:href="#DejaVuSans-30"/>
       <use xlink:href="#DejaVuSans-2e" x="63.623047"/>
       <use xlink:href="#DejaVuSans-31" x="95.410156"/>
      </g>
     </g>
    </g>
    <g id="ytick_3">
     <g id="line2d_10">
      <g>
       <use xlink:href="#m9e00370165" x="47.72" y="219.205104" style="stroke: #000000; stroke-width: 0.8"/>
      </g>
     </g>
     <g id="text_11">
      <!-- 0.2 -->
      <g transform="translate(24.816875 223.004323)scale(0.1 -0.1)">
       <use xlink:href="#DejaVuSans-30"/>
       <use xlink:href="#DejaVuSans-2e" x="63.623047"/>
       <use xlink:href="#DejaVuSans-32" x="95.410156"/>
      </g>
     </g>
    </g>
    <g id="ytick_4">
     <g id="line2d_11">
      <g>
       <use xlink:href="#m9e00370165" x="47.72" y="183.261944" style="stroke: #000000; stroke-width: 0.8"/>
      </g>
     </g>
     <g id="text_12">
      <!-- 0.3 -->
      <g transform="translate(24.816875 187.061163)scale(0.1 -0.1)">
       <use xlink:href="#DejaVuSans-30"/>
       <use xlink:href="#DejaVuSans-2e" x="63.623047"/>
       <use xlink:href="#DejaVuSans-33" x="95.410156"/>
      </g>
     </g>
    </g>
    <g id="ytick_5">
     <g id="line2d_12">
      <g>
       <use xlink:href="#m9e00370165" x="47.72" y="147.318784" style="stroke: #000000; stroke-width: 0.8"/>
      </g>
     </g>
     <g id="text_13">
      <!-- 0.4 -->
      <g transform="translate(24.816875 151.118002)scale(0.1 -0.1)">
       <defs>
        <path id="DejaVuSans-34" d="M 2419 4116 
L 825 1625 
L 2419 1625 
L 2419 4116 
z
M 2253 4666 
L 3047 4666 
L 3047 1625 
L 3713 1625 
L 3713 1100 
L 3047 1100 
L 3047 0 
L 2419 0 
L 2419 1100 
L 313 1100 
L 313 1709 
L 2253 4666 
z
" transform="scale(0.015625)"/>
       </defs>
       <use xlink:href="#DejaVuSans-30"/>
       <use xlink:href="#DejaVuSans-2e" x="63.623047"/>
       <use xlink:href="#DejaVuSans-34" x="95.410156"/>
      </g>
     </g>
    </g>
    <g id="ytick_6">
     <g id="line2d_13">
      <g>
       <use xlink:href="#m9e00370165" x="47.72" y="111.375624" style="stroke: #000000; stroke-width: 0.8"/>
      </g>
     </g>
     <g id="text_14">
      <!-- 0.5 -->
      <g transform="translate(24.816875 115.174842)scale(0.1 -0.1)">
       <use xlink:href="#DejaVuSans-30"/>
       <use xlink:href="#DejaVuSans-2e" x="63.623047"/>
       <use xlink:href="#DejaVuSans-35" x="95.410156"/>
      </g>
     </g>
    </g>
    <g id="ytick_7">
     <g id="line2d_14">
      <g>
       <use xlink:href="#m9e00370165" x="47.72" y="75.432464" style="stroke: #000000; stroke-width: 0.8"/>
      </g>
     </g>
     <g id="text_15">
      <!-- 0.6 -->
      <g transform="translate(24.816875 79.231682)scale(0.1 -0.1)">
       <defs>
        <path id="DejaVuSans-36" d="M 2113 2584 
Q 1688 2584 1439 2293 
Q 1191 2003 1191 1497 
Q 1191 994 1439 701 
Q 1688 409 2113 409 
Q 2538 409 2786 701 
Q 3034 994 3034 1497 
Q 3034 2003 2786 2293 
Q 2538 2584 2113 2584 
z
M 3366 4563 
L 3366 3988 
Q 3128 4100 2886 4159 
Q 2644 4219 2406 4219 
Q 1781 4219 1451 3797 
Q 1122 3375 1075 2522 
Q 1259 2794 1537 2939 
Q 1816 3084 2150 3084 
Q 2853 3084 3261 2657 
Q 3669 2231 3669 1497 
Q 3669 778 3244 343 
Q 2819 -91 2113 -91 
Q 1303 -91 875 529 
Q 447 1150 447 2328 
Q 447 3434 972 4092 
Q 1497 4750 2381 4750 
Q 2619 4750 2861 4703 
Q 3103 4656 3366 4563 
z
" transform="scale(0.015625)"/>
       </defs>
       <use xlink:href="#DejaVuSans-30"/>
       <use xlink:href="#DejaVuSans-2e" x="63.623047"/>
       <use xlink:href="#DejaVuSans-36" x="95.410156"/>
      </g>
     </g>
    </g>
    <g id="ytick_8">
     <g id="line2d_15">
      <g>
       <use xlink:href="#m9e00370165" x="47.72" y="39.489303" style="stroke: #000000; stroke-width: 0.8"/>
      </g>
     </g>
     <g id="text_16">
      <!-- 0.7 -->
      <g transform="translate(24.816875 43.288522)scale(0.1 -0.1)">
       <defs>
        <path id="DejaVuSans-37" d="M 525 4666 
L 3525 4666 
L 3525 4397 
L 1831 0 
L 1172 0 
L 2766 4134 
L 525 4134 
L 525 4666 
z
" transform="scale(0.015625)"/>
       </defs>
       <use xlink:href="#DejaVuSans-30"/>
       <use xlink:href="#DejaVuSans-2e" x="63.623047"/>
       <use xlink:href="#DejaVuSans-37" x="95.410156"/>
      </g>
     </g>
    </g>
    <g id="text_17">
     <!-- metrics -->
     <g transform="translate(18.737188 183.965469)rotate(-90)scale(0.1 -0.1)">
      <defs>
       <path id="DejaVuSans-74" d="M 1172 4494 
L 1172 3500 
L 2356 3500 
L 2356 3053 
L 1172 3053 
L 1172 1153 
Q 1172 725 1289 603 
Q 1406 481 1766 481 
L 2356 481 
L 2356 0 
L 1766 0 
Q 1100 0 847 248 
Q 594 497 594 1153 
L 594 3053 
L 172 3053 
L 172 3500 
L 594 3500 
L 594 4494 
L 1172 4494 
z
" transform="scale(0.015625)"/>
       <path id="DejaVuSans-69" d="M 603 3500 
L 1178 3500 
L 1178 0 
L 603 0 
L 603 3500 
z
M 603 4863 
L 1178 4863 
L 1178 4134 
L 603 4134 
L 603 4863 
z
" transform="scale(0.015625)"/>
      </defs>
      <use xlink:href="#DejaVuSans-6d"/>
      <use xlink:href="#DejaVuSans-65" x="97.412109"/>
      <use xlink:href="#DejaVuSans-74" x="158.935547"/>
      <use xlink:href="#DejaVuSans-72" x="198.144531"/>
      <use xlink:href="#DejaVuSans-69" x="239.257812"/>
      <use xlink:href="#DejaVuSans-63" x="267.041016"/>
      <use xlink:href="#DejaVuSans-73" x="322.021484"/>
     </g>
    </g>
   </g>
   <g id="line2d_16">
    <path d="M 66.005455 283.392526 
L 67.228562 291.06 
L 68.451669 290.937312 
L 69.674777 290.319684 
L 70.897884 289.372444 
L 72.120991 287.877267 
L 73.344099 283.785721 
L 74.567206 275.992982 
L 75.790313 265.82894 
L 79.459635 223.714308 
L 80.682742 212.230496 
L 81.90585 202.393012 
L 83.128957 193.949959 
L 84.352064 186.888302 
L 85.575172 180.814485 
L 86.798279 175.402921 
L 89.244494 166.13817 
L 91.690708 158.591114 
L 94.136923 152.48905 
L 95.36003 149.863982 
L 97.806245 145.361761 
L 99.029352 143.397745 
L 101.475567 140.135919 
L 103.921782 137.449472 
L 106.367996 135.061019 
L 111.260426 131.14205 
L 114.929748 128.607691 
L 121.045284 124.832422 
L 125.937714 122.053863 
L 132.05325 118.899885 
L 135.722572 117.068847 
L 138.168787 115.883618 
L 141.838109 114.184561 
L 158.961611 105.950734 
L 163.854041 103.619482 
L 166.300255 102.537324 
L 178.531329 97.597875 
L 180.977543 96.726848 
L 184.646865 95.403479 
L 188.316187 94.015389 
L 198.101046 91.024242 
L 201.770368 89.869178 
L 233.571158 79.62432 
L 237.24048 78.653479 
L 259.256412 72.65696 
L 262.925734 71.874756 
L 265.371949 71.653641 
L 266.595056 71.811963 
L 267.818164 72.534994 
L 269.041271 75.73498 
L 270.264378 86.883065 
L 271.487486 88.977541 
L 272.710593 75.626854 
L 273.9337 72.669386 
L 275.156808 72.191464 
L 276.379915 71.023438 
L 277.603022 70.211841 
L 280.049237 69.340557 
L 282.495452 68.385355 
L 286.164773 67.509679 
L 287.387881 67.238047 
L 291.057203 66.855804 
L 292.28031 67.220801 
L 293.503417 67.961807 
L 294.726525 69.939673 
L 295.949632 73.476248 
L 297.172739 72.83302 
L 298.395847 69.306621 
L 299.618954 67.994907 
L 300.842061 67.335654 
L 302.065169 65.33013 
L 304.511383 63.77187 
L 305.734491 63.20354 
L 309.403813 62.21466 
L 315.519349 60.725021 
L 327.750423 58.055702 
L 333.865959 56.780387 
L 343.650818 55.222791 
L 344.873925 55.07049 
L 347.32014 55.058428 
L 348.543247 55.391225 
L 349.766355 56.018899 
L 350.989462 57.318531 
L 352.212569 59.240824 
L 353.435676 61.704196 
L 354.658784 62.041642 
L 355.881891 58.096943 
L 357.104998 55.566 
L 358.328106 55.355319 
L 359.551213 55.668235 
L 360.77432 54.979117 
L 361.997428 53.695403 
L 363.220535 52.828168 
L 364.443642 52.434763 
L 365.66675 52.165895 
L 369.336072 51.797427 
L 370.559179 51.480526 
L 376.674716 49.260271 
L 390.128896 46.082609 
L 403.583077 43.591043 
L 421.929687 40.649128 
L 431.714545 39.46 
L 431.714545 39.46 
" clip-path="url(#pab642fef0b)" style="fill: none; stroke: #1f77b4; stroke-width: 1.5; stroke-linecap: square"/>
   </g>
   <g id="line2d_17">
    <path d="M 66.005455 267.772793 
L 69.674777 254.48111 
L 70.897884 252.151645 
L 72.120991 250.327337 
L 74.567206 245.159241 
L 75.790313 243.087672 
L 79.459635 235.920835 
L 81.90585 231.550258 
L 84.352064 227.793044 
L 86.798279 224.581795 
L 89.244494 221.807745 
L 91.690708 219.360356 
L 94.136923 217.205647 
L 96.583138 215.323411 
L 99.029352 213.691133 
L 101.475567 212.265867 
L 105.144889 210.435268 
L 108.814211 208.870533 
L 113.70664 207.076392 
L 118.59907 205.509397 
L 124.714606 203.784369 
L 133.276358 201.651663 
L 143.061216 199.467378 
L 167.523363 194.355704 
L 180.977543 191.930263 
L 194.431724 189.681665 
L 211.555227 187.0893 
L 228.678729 184.705582 
L 242.13291 183.04918 
L 258.033305 181.333873 
L 264.148842 180.86286 
L 266.595056 180.899838 
L 267.818164 181.207226 
L 269.041271 182.512107 
L 270.264378 187.103547 
L 271.487486 187.835469 
L 272.710593 182.522754 
L 273.9337 181.350937 
L 275.156808 181.440199 
L 277.603022 180.690592 
L 286.164773 179.666813 
L 289.834095 179.470025 
L 292.28031 179.605562 
L 293.503417 179.945172 
L 294.726525 180.827522 
L 295.949632 182.533606 
L 297.172739 182.559303 
L 298.395847 180.667743 
L 299.618954 180.059629 
L 300.842061 180.088862 
L 302.065169 179.000458 
L 303.288276 178.546091 
L 304.511383 178.596834 
L 305.734491 178.045374 
L 308.180705 177.853471 
L 313.073135 177.297566 
L 330.196637 175.653537 
L 342.427711 174.704741 
L 347.32014 174.511509 
L 348.543247 174.555096 
L 349.766355 174.731681 
L 350.989462 175.20473 
L 352.212569 176.116215 
L 353.435676 177.4651 
L 354.658784 177.78078 
L 355.881891 176.583318 
L 357.104998 174.918572 
L 359.551213 175.199909 
L 360.77432 174.894995 
L 363.220535 173.983338 
L 365.66675 173.733493 
L 370.559179 173.484388 
L 382.790252 172.021754 
L 397.46754 170.866304 
L 418.260365 169.528014 
L 430.491438 168.919696 
L 431.714545 168.861584 
L 431.714545 168.861584 
" clip-path="url(#pab642fef0b)" style="fill: none; stroke: #ff7f0e; stroke-width: 1.5; stroke-linecap: square"/>
   </g>
   <g id="line2d_18">
    <path d="M 66.005455 228.012911 
L 67.228562 227.063521 
L 68.451669 218.105677 
L 69.674777 207.470065 
L 70.897884 203.169431 
L 72.120991 199.372546 
L 78.236528 176.093849 
L 80.682742 167.46306 
L 83.128957 159.716302 
L 85.575172 153.237683 
L 88.021386 147.775269 
L 90.467601 143.044081 
L 92.913816 138.920226 
L 95.36003 135.349383 
L 97.806245 132.28907 
L 100.25246 129.662695 
L 102.698674 127.391194 
L 105.144889 125.395814 
L 107.591104 123.620039 
L 111.260426 121.273384 
L 114.929748 119.200857 
L 119.822177 116.757259 
L 124.714606 114.58945 
L 130.830143 112.156682 
L 138.168787 109.525551 
L 146.730538 106.72816 
L 166.300255 100.66542 
L 176.085114 97.978555 
L 190.762402 94.158542 
L 201.770368 91.564678 
L 217.670763 88.028467 
L 229.901836 85.522547 
L 240.909802 83.488829 
L 253.140876 81.490739 
L 260.47952 80.480565 
L 264.148842 80.156487 
L 265.371949 80.141662 
L 266.595056 80.254737 
L 267.818164 80.726895 
L 269.041271 82.688522 
L 270.264378 90.424311 
L 271.487486 90.29956 
L 272.710593 82.287512 
L 273.9337 80.496204 
L 275.156808 80.544858 
L 277.603022 79.461949 
L 280.049237 79.039279 
L 283.718559 78.29341 
L 287.387881 77.801862 
L 289.834095 77.607784 
L 291.057203 77.603157 
L 292.28031 77.729814 
L 293.503417 78.136288 
L 294.726525 79.208227 
L 295.949632 81.179602 
L 297.172739 80.048404 
L 298.395847 77.432987 
L 299.618954 78.098046 
L 300.842061 78.017021 
L 302.065169 76.017689 
L 303.288276 76.004342 
L 304.511383 75.790297 
L 305.734491 75.206198 
L 317.965564 73.360988 
L 330.196637 71.849925 
L 339.981496 70.853955 
L 344.873925 70.534933 
L 347.32014 70.545324 
L 348.543247 70.677915 
L 349.766355 71.018832 
L 350.989462 71.740707 
L 352.212569 72.847374 
L 353.435676 74.80808 
L 354.658784 75.507353 
L 355.881891 72.632687 
L 357.104998 71.04197 
L 358.328106 71.090152 
L 359.551213 71.438546 
L 360.77432 71.049747 
L 361.997428 70.315832 
L 363.220535 69.726656 
L 364.443642 69.45391 
L 366.889857 69.220241 
L 370.559179 68.917394 
L 374.228501 68.184872 
L 377.897823 67.501067 
L 384.01336 66.678436 
L 395.021326 65.448603 
L 408.475506 64.21907 
L 424.375901 62.942041 
L 431.714545 62.42667 
L 431.714545 62.42667 
" clip-path="url(#pab642fef0b)" style="fill: none; stroke: #2ca02c; stroke-width: 1.5; stroke-linecap: square"/>
   </g>
   <g id="line2d_19">
    <path d="M 66.005455 256.277503 
L 67.228562 247.35158 
L 68.451669 240.276544 
L 69.674777 234.998803 
L 70.897884 231.25687 
L 72.120991 228.997313 
L 74.567206 221.952394 
L 75.790313 219.377693 
L 79.459635 210.309082 
L 81.90585 204.97927 
L 84.352064 200.515152 
L 86.798279 196.760461 
L 89.244494 193.574411 
L 91.690708 190.799815 
L 94.136923 188.38289 
L 96.583138 186.286422 
L 99.029352 184.479089 
L 101.475567 182.905748 
L 105.144889 180.89145 
L 108.814211 179.171291 
L 113.70664 177.205433 
L 118.59907 175.497764 
L 124.714606 173.633444 
L 132.05325 171.65997 
L 140.615002 169.604711 
L 154.069182 166.645785 
L 166.300255 164.076397 
L 189.539295 159.715499 
L 200.547261 157.870953 
L 215.224548 155.625418 
L 229.901836 153.60584 
L 244.579124 151.846722 
L 259.256412 150.309457 
L 264.148842 149.924579 
L 266.595056 149.894307 
L 267.818164 150.102964 
L 269.041271 151.071041 
L 270.264378 155.118745 
L 271.487486 157.174315 
L 272.710593 151.938598 
L 273.9337 150.901172 
L 275.156808 150.999143 
L 277.603022 150.273733 
L 280.049237 149.953115 
L 286.164773 149.234979 
L 289.834095 149.023334 
L 292.28031 149.101295 
L 293.503417 149.361412 
L 294.726525 150.069072 
L 295.949632 151.53177 
L 297.172739 152.065716 
L 298.395847 150.259711 
L 299.618954 148.969892 
L 300.842061 149.057783 
L 303.288276 147.623074 
L 304.511383 147.809279 
L 305.734491 147.207688 
L 306.957598 147.23736 
L 313.073135 146.547043 
L 338.758389 144.138752 
L 349.766355 143.141731 
L 350.989462 143.274987 
L 352.212569 144.177186 
L 353.435676 146.217599 
L 354.658784 146.784033 
L 355.881891 146.100818 
L 357.104998 144.265409 
L 359.551213 144.419371 
L 360.77432 144.215181 
L 363.220535 143.391511 
L 365.66675 143.083844 
L 371.782286 142.773585 
L 380.344038 141.773522 
L 388.905789 141.101704 
L 403.583077 140.207453 
L 429.268331 138.843036 
L 431.714545 138.74484 
L 431.714545 138.74484 
" clip-path="url(#pab642fef0b)" style="fill: none; stroke: #d62728; stroke-width: 1.5; stroke-linecap: square"/>
   </g>
   <g id="line2d_20">
    <path d="M 66.005455 247.519486 
L 68.451669 231.84701 
L 69.674777 224.738006 
L 70.897884 220.921031 
L 72.120991 217.969277 
L 74.567206 209.756798 
L 75.790313 206.519459 
L 78.236528 198.948259 
L 81.90585 189.108021 
L 84.352064 183.646036 
L 86.798279 179.056642 
L 89.244494 175.149392 
L 91.690708 171.745922 
L 94.136923 168.783001 
L 96.583138 166.220426 
L 99.029352 164.017503 
L 101.475567 162.108333 
L 103.921782 160.437759 
L 107.591104 158.266683 
L 111.260426 156.3939 
L 116.152855 154.216547 
L 121.045284 152.307644 
L 127.160821 150.196061 
L 134.499465 147.931352 
L 143.061216 145.542203 
L 162.630933 140.425258 
L 169.969577 138.684136 
L 184.646865 135.485724 
L 195.654831 133.294328 
L 212.778334 130.179308 
L 227.455622 127.718957 
L 240.909802 125.716196 
L 254.363983 123.95545 
L 261.702627 123.149112 
L 265.371949 122.944279 
L 266.595056 123.013317 
L 267.818164 123.365439 
L 269.041271 124.870781 
L 270.264378 130.396974 
L 271.487486 131.540694 
L 272.710593 124.950746 
L 273.9337 123.580448 
L 275.156808 123.685585 
L 277.603022 122.789417 
L 286.164773 121.571753 
L 289.834095 121.327747 
L 291.057203 121.339455 
L 292.28031 121.465287 
L 293.503417 121.839433 
L 294.726525 122.829962 
L 295.949632 124.788482 
L 297.172739 124.807206 
L 298.395847 122.609854 
L 299.618954 121.832952 
L 300.842061 121.882569 
L 302.065169 120.670068 
L 303.288276 120.134238 
L 304.511383 120.188601 
L 305.734491 119.557991 
L 306.957598 119.510698 
L 314.296242 118.555594 
L 326.527315 117.1977 
L 338.758389 116.054901 
L 344.873925 115.633238 
L 347.32014 115.581885 
L 348.543247 115.64395 
L 349.766355 115.863512 
L 350.989462 116.434756 
L 352.212569 117.534653 
L 353.435676 119.103068 
L 354.658784 119.380924 
L 355.881891 117.909656 
L 357.104998 116.013039 
L 359.551213 116.384271 
L 360.77432 116.043782 
L 363.220535 114.995356 
L 365.66675 114.708909 
L 369.336072 114.546859 
L 371.782286 114.246048 
L 377.897823 113.279942 
L 385.236467 112.51779 
L 397.46754 111.4514 
L 417.037258 110.028881 
L 428.045223 109.388524 
L 431.714545 109.195838 
L 431.714545 109.195838 
" clip-path="url(#pab642fef0b)" style="fill: none; stroke: #9467bd; stroke-width: 1.5; stroke-linecap: square"/>
   </g>
   <g id="line2d_21">
    <path d="M 66.005455 280.720021 
L 67.228562 282.145739 
L 68.451669 283.168711 
L 70.897884 283.529345 
L 74.567206 284.053356 
L 81.90585 284.703729 
L 92.913816 285.18837 
L 106.367996 285.513026 
L 147.953645 286.154334 
L 179.754436 286.513296 
L 244.579124 286.969027 
L 270.264378 287.186138 
L 271.487486 286.986915 
L 272.710593 286.992956 
L 273.9337 287.14339 
L 278.82613 287.164227 
L 293.503417 287.14046 
L 294.726525 287.063595 
L 297.172739 286.564278 
L 300.842061 286.865942 
L 309.403813 287.059149 
L 339.981496 287.33029 
L 352.212569 287.500258 
L 353.435676 287.579436 
L 355.881891 287.358997 
L 357.104998 287.500104 
L 364.443642 287.577679 
L 382.790252 287.662769 
L 431.714545 287.880104 
L 431.714545 287.880104 
" clip-path="url(#pab642fef0b)" style="fill: none; stroke: #8c564b; stroke-width: 1.5; stroke-linecap: square"/>
   </g>
   <g id="line2d_22">
    <path d="M 66.005455 254.20258 
L 431.714545 254.20258 
L 431.714545 254.20258 
" clip-path="url(#pab642fef0b)" style="fill: none; stroke: #e377c2; stroke-width: 1.5; stroke-linecap: square"/>
   </g>
   <g id="line2d_23">
    <path d="M 66.005455 276.667951 
L 67.228562 277.20902 
L 68.451669 277.224182 
L 69.674777 277.933039 
L 72.120991 277.67521 
L 73.344099 277.851836 
L 80.682742 277.463127 
L 86.798279 277.273833 
L 99.029352 277.165403 
L 149.176753 277.034798 
L 178.531329 276.857954 
L 204.216583 277.019291 
L 260.47952 276.9891 
L 266.595056 276.916991 
L 267.818164 276.830427 
L 269.041271 276.469499 
L 270.264378 274.870666 
L 271.487486 276.688619 
L 272.710593 277.16511 
L 273.9337 276.847282 
L 282.495452 276.921852 
L 291.057203 277.057316 
L 294.726525 277.300971 
L 297.172739 277.638594 
L 299.618954 277.635596 
L 304.511383 277.487258 
L 346.097033 277.1738 
L 348.543247 277.079855 
L 349.766355 276.947137 
L 350.989462 276.560931 
L 352.212569 275.648242 
L 353.435676 275.669868 
L 354.658784 276.580828 
L 355.881891 276.816294 
L 358.328106 276.394379 
L 360.77432 276.367345 
L 363.220535 276.445774 
L 371.782286 276.451043 
L 393.798218 276.724547 
L 412.144828 276.786516 
L 431.714545 276.630316 
L 431.714545 276.630316 
" clip-path="url(#pab642fef0b)" style="fill: none; stroke: #7f7f7f; stroke-width: 1.5; stroke-linecap: square"/>
   </g>
   <g id="line2d_24">
    <path d="M 66.005455 276.392979 
L 67.228562 277.981017 
L 68.451669 279.008537 
L 69.674777 279.346958 
L 74.567206 280.056912 
L 84.352064 280.710207 
L 95.36003 281.089349 
L 112.483533 281.447169 
L 151.622967 281.983352 
L 198.101046 282.398969 
L 266.595056 282.84977 
L 269.041271 282.678859 
L 270.264378 282.31991 
L 271.487486 282.666074 
L 273.9337 282.870147 
L 281.272344 282.916004 
L 294.726525 282.926459 
L 297.172739 282.528429 
L 299.618954 282.760766 
L 305.734491 282.929902 
L 326.527315 283.099142 
L 349.766355 283.162638 
L 352.212569 282.867303 
L 357.104998 283.14936 
L 360.77432 283.156784 
L 365.66675 283.174711 
L 377.897823 283.280169 
L 429.268331 283.538764 
L 431.714545 283.541771 
L 431.714545 283.541771 
" clip-path="url(#pab642fef0b)" style="fill: none; stroke: #bcbd22; stroke-width: 1.5; stroke-linecap: square"/>
   </g>
   <g id="patch_3">
    <path d="M 47.72 303.64 
L 47.72 26.88 
" style="fill: none; stroke: #000000; stroke-width: 0.8; stroke-linejoin: miter; stroke-linecap: square"/>
   </g>
   <g id="patch_4">
    <path d="M 450 303.64 
L 450 26.88 
" style="fill: none; stroke: #000000; stroke-width: 0.8; stroke-linejoin: miter; stroke-linecap: square"/>
   </g>
   <g id="patch_5">
    <path d="M 47.72 303.64 
L 450 303.64 
" style="fill: none; stroke: #000000; stroke-width: 0.8; stroke-linejoin: miter; stroke-linecap: square"/>
   </g>
   <g id="patch_6">
    <path d="M 47.72 26.88 
L 450 26.88 
" style="fill: none; stroke: #000000; stroke-width: 0.8; stroke-linejoin: miter; stroke-linecap: square"/>
   </g>
   <g id="text_18">
    <!-- Metrics of training -->
    <g transform="translate(194.240312 20.88)scale(0.12 -0.12)">
     <defs>
      <path id="DejaVuSans-4d" d="M 628 4666 
L 1569 4666 
L 2759 1491 
L 3956 4666 
L 4897 4666 
L 4897 0 
L 4281 0 
L 4281 4097 
L 3078 897 
L 2444 897 
L 1241 4097 
L 1241 0 
L 628 0 
L 628 4666 
z
" transform="scale(0.015625)"/>
      <path id="DejaVuSans-61" d="M 2194 1759 
Q 1497 1759 1228 1600 
Q 959 1441 959 1056 
Q 959 750 1161 570 
Q 1363 391 1709 391 
Q 2188 391 2477 730 
Q 2766 1069 2766 1631 
L 2766 1759 
L 2194 1759 
z
M 3341 1997 
L 3341 0 
L 2766 0 
L 2766 531 
Q 2569 213 2275 61 
Q 1981 -91 1556 -91 
Q 1019 -91 701 211 
Q 384 513 384 1019 
Q 384 1609 779 1909 
Q 1175 2209 1959 2209 
L 2766 2209 
L 2766 2266 
Q 2766 2663 2505 2880 
Q 2244 3097 1772 3097 
Q 1472 3097 1187 3025 
Q 903 2953 641 2809 
L 641 3341 
Q 956 3463 1253 3523 
Q 1550 3584 1831 3584 
Q 2591 3584 2966 3190 
Q 3341 2797 3341 1997 
z
" transform="scale(0.015625)"/>
      <path id="DejaVuSans-67" d="M 2906 1791 
Q 2906 2416 2648 2759 
Q 2391 3103 1925 3103 
Q 1463 3103 1205 2759 
Q 947 2416 947 1791 
Q 947 1169 1205 825 
Q 1463 481 1925 481 
Q 2391 481 2648 825 
Q 2906 1169 2906 1791 
z
M 3481 434 
Q 3481 -459 3084 -895 
Q 2688 -1331 1869 -1331 
Q 1566 -1331 1297 -1286 
Q 1028 -1241 775 -1147 
L 775 -588 
Q 1028 -725 1275 -790 
Q 1522 -856 1778 -856 
Q 2344 -856 2625 -561 
Q 2906 -266 2906 331 
L 2906 616 
Q 2728 306 2450 153 
Q 2172 0 1784 0 
Q 1141 0 747 490 
Q 353 981 353 1791 
Q 353 2603 747 3093 
Q 1141 3584 1784 3584 
Q 2172 3584 2450 3431 
Q 2728 3278 2906 2969 
L 2906 3500 
L 3481 3500 
L 3481 434 
z
" transform="scale(0.015625)"/>
     </defs>
     <use xlink:href="#DejaVuSans-4d"/>
     <use xlink:href="#DejaVuSans-65" x="86.279297"/>
     <use xlink:href="#DejaVuSans-74" x="147.802734"/>
     <use xlink:href="#DejaVuSans-72" x="187.011719"/>
     <use xlink:href="#DejaVuSans-69" x="228.125"/>
     <use xlink:href="#DejaVuSans-63" x="255.908203"/>
     <use xlink:href="#DejaVuSans-73" x="310.888672"/>
     <use xlink:href="#DejaVuSans-20" x="362.988281"/>
     <use xlink:href="#DejaVuSans-6f" x="394.775391"/>
     <use xlink:href="#DejaVuSans-66" x="455.957031"/>
     <use xlink:href="#DejaVuSans-20" x="491.162109"/>
     <use xlink:href="#DejaVuSans-74" x="522.949219"/>
     <use xlink:href="#DejaVuSans-72" x="562.158203"/>
     <use xlink:href="#DejaVuSans-61" x="603.271484"/>
     <use xlink:href="#DejaVuSans-69" x="664.550781"/>
     <use xlink:href="#DejaVuSans-6e" x="692.333984"/>
     <use xlink:href="#DejaVuSans-69" x="755.712891"/>
     <use xlink:href="#DejaVuSans-6e" x="783.496094"/>
     <use xlink:href="#DejaVuSans-67" x="846.875"/>
    </g>
   </g>
   <g id="legend_1">
    <g id="patch_7">
     <path d="M 54.72 168.37375 
L 153.185625 168.37375 
Q 155.185625 168.37375 155.185625 166.37375 
L 155.185625 33.88 
Q 155.185625 31.88 153.185625 31.88 
L 54.72 31.88 
Q 52.72 31.88 52.72 33.88 
L 52.72 166.37375 
Q 52.72 168.37375 54.72 168.37375 
z
" style="fill: #ffffff; opacity: 0.8; stroke: #cccccc; stroke-linejoin: miter"/>
    </g>
    <g id="line2d_25">
     <path d="M 56.72 39.978437 
L 66.72 39.978437 
L 76.72 39.978437 
" style="fill: none; stroke: #1f77b4; stroke-width: 1.5; stroke-linecap: square"/>
    </g>
    <g id="text_19">
     <!-- iou_binarized -->
     <g transform="translate(84.72 43.478437)scale(0.1 -0.1)">
      <defs>
       <path id="DejaVuSans-5f" d="M 3263 -1063 
L 3263 -1509 
L -63 -1509 
L -63 -1063 
L 3263 -1063 
z
" transform="scale(0.015625)"/>
       <path id="DejaVuSans-7a" d="M 353 3500 
L 3084 3500 
L 3084 2975 
L 922 459 
L 3084 459 
L 3084 0 
L 275 0 
L 275 525 
L 2438 3041 
L 353 3041 
L 353 3500 
z
" transform="scale(0.015625)"/>
       <path id="DejaVuSans-64" d="M 2906 2969 
L 2906 4863 
L 3481 4863 
L 3481 0 
L 2906 0 
L 2906 525 
Q 2725 213 2448 61 
Q 2172 -91 1784 -91 
Q 1150 -91 751 415 
Q 353 922 353 1747 
Q 353 2572 751 3078 
Q 1150 3584 1784 3584 
Q 2172 3584 2448 3432 
Q 2725 3281 2906 2969 
z
M 947 1747 
Q 947 1113 1208 752 
Q 1469 391 1925 391 
Q 2381 391 2643 752 
Q 2906 1113 2906 1747 
Q 2906 2381 2643 2742 
Q 2381 3103 1925 3103 
Q 1469 3103 1208 2742 
Q 947 2381 947 1747 
z
" transform="scale(0.015625)"/>
      </defs>
      <use xlink:href="#DejaVuSans-69"/>
      <use xlink:href="#DejaVuSans-6f" x="27.783203"/>
      <use xlink:href="#DejaVuSans-75" x="88.964844"/>
      <use xlink:href="#DejaVuSans-5f" x="152.34375"/>
      <use xlink:href="#DejaVuSans-62" x="202.34375"/>
      <use xlink:href="#DejaVuSans-69" x="265.820312"/>
      <use xlink:href="#DejaVuSans-6e" x="293.603516"/>
      <use xlink:href="#DejaVuSans-61" x="356.982422"/>
      <use xlink:href="#DejaVuSans-72" x="418.261719"/>
      <use xlink:href="#DejaVuSans-69" x="459.375"/>
      <use xlink:href="#DejaVuSans-7a" x="487.158203"/>
      <use xlink:href="#DejaVuSans-65" x="539.648438"/>
      <use xlink:href="#DejaVuSans-64" x="601.171875"/>
     </g>
    </g>
    <g id="line2d_26">
     <path d="M 56.72 54.934687 
L 66.72 54.934687 
L 76.72 54.934687 
" style="fill: none; stroke: #ff7f0e; stroke-width: 1.5; stroke-linecap: square"/>
    </g>
    <g id="text_20">
     <!-- iou -->
     <g transform="translate(84.72 58.434687)scale(0.1 -0.1)">
      <use xlink:href="#DejaVuSans-69"/>
      <use xlink:href="#DejaVuSans-6f" x="27.783203"/>
      <use xlink:href="#DejaVuSans-75" x="88.964844"/>
     </g>
    </g>
    <g id="line2d_27">
     <path d="M 56.72 69.612812 
L 66.72 69.612812 
L 76.72 69.612812 
" style="fill: none; stroke: #2ca02c; stroke-width: 1.5; stroke-linecap: square"/>
    </g>
    <g id="text_21">
     <!-- recall -->
     <g transform="translate(84.72 73.112812)scale(0.1 -0.1)">
      <defs>
       <path id="DejaVuSans-6c" d="M 603 4863 
L 1178 4863 
L 1178 0 
L 603 0 
L 603 4863 
z
" transform="scale(0.015625)"/>
      </defs>
      <use xlink:href="#DejaVuSans-72"/>
      <use xlink:href="#DejaVuSans-65" x="38.863281"/>
      <use xlink:href="#DejaVuSans-63" x="100.386719"/>
      <use xlink:href="#DejaVuSans-61" x="155.367188"/>
      <use xlink:href="#DejaVuSans-6c" x="216.646484"/>
      <use xlink:href="#DejaVuSans-6c" x="244.429688"/>
     </g>
    </g>
    <g id="line2d_28">
     <path d="M 56.72 84.290937 
L 66.72 84.290937 
L 76.72 84.290937 
" style="fill: none; stroke: #d62728; stroke-width: 1.5; stroke-linecap: square"/>
    </g>
    <g id="text_22">
     <!-- precision -->
     <g transform="translate(84.72 87.790937)scale(0.1 -0.1)">
      <use xlink:href="#DejaVuSans-70"/>
      <use xlink:href="#DejaVuSans-72" x="63.476562"/>
      <use xlink:href="#DejaVuSans-65" x="102.339844"/>
      <use xlink:href="#DejaVuSans-63" x="163.863281"/>
      <use xlink:href="#DejaVuSans-69" x="218.84375"/>
      <use xlink:href="#DejaVuSans-73" x="246.626953"/>
      <use xlink:href="#DejaVuSans-69" x="298.726562"/>
      <use xlink:href="#DejaVuSans-6f" x="326.509766"/>
      <use xlink:href="#DejaVuSans-6e" x="387.691406"/>
     </g>
    </g>
    <g id="line2d_29">
     <path d="M 56.72 98.969062 
L 66.72 98.969062 
L 76.72 98.969062 
" style="fill: none; stroke: #9467bd; stroke-width: 1.5; stroke-linecap: square"/>
    </g>
    <g id="text_23">
     <!-- F1_score -->
     <g transform="translate(84.72 102.469062)scale(0.1 -0.1)">
      <defs>
       <path id="DejaVuSans-46" d="M 628 4666 
L 3309 4666 
L 3309 4134 
L 1259 4134 
L 1259 2759 
L 3109 2759 
L 3109 2228 
L 1259 2228 
L 1259 0 
L 628 0 
L 628 4666 
z
" transform="scale(0.015625)"/>
      </defs>
      <use xlink:href="#DejaVuSans-46"/>
      <use xlink:href="#DejaVuSans-31" x="57.519531"/>
      <use xlink:href="#DejaVuSans-5f" x="121.142578"/>
      <use xlink:href="#DejaVuSans-73" x="171.142578"/>
      <use xlink:href="#DejaVuSans-63" x="223.242188"/>
      <use xlink:href="#DejaVuSans-6f" x="278.222656"/>
      <use xlink:href="#DejaVuSans-72" x="339.404297"/>
      <use xlink:href="#DejaVuSans-65" x="378.267578"/>
     </g>
    </g>
    <g id="line2d_30">
     <path d="M 56.72 113.925312 
L 66.72 113.925312 
L 76.72 113.925312 
" style="fill: none; stroke: #8c564b; stroke-width: 1.5; stroke-linecap: square"/>
    </g>
    <g id="text_24">
     <!-- s_loss -->
     <g transform="translate(84.72 117.425312)scale(0.1 -0.1)">
      <use xlink:href="#DejaVuSans-73"/>
      <use xlink:href="#DejaVuSans-5f" x="52.099609"/>
      <use xlink:href="#DejaVuSans-6c" x="102.099609"/>
      <use xlink:href="#DejaVuSans-6f" x="129.882812"/>
      <use xlink:href="#DejaVuSans-73" x="191.064453"/>
      <use xlink:href="#DejaVuSans-73" x="243.164062"/>
     </g>
    </g>
    <g id="line2d_31">
     <path d="M 56.72 128.881562 
L 66.72 128.881562 
L 76.72 128.881562 
" style="fill: none; stroke: #e377c2; stroke-width: 1.5; stroke-linecap: square"/>
    </g>
    <g id="text_25">
     <!-- t_loss -->
     <g transform="translate(84.72 132.381562)scale(0.1 -0.1)">
      <use xlink:href="#DejaVuSans-74"/>
      <use xlink:href="#DejaVuSans-5f" x="39.208984"/>
      <use xlink:href="#DejaVuSans-6c" x="89.208984"/>
      <use xlink:href="#DejaVuSans-6f" x="116.992188"/>
      <use xlink:href="#DejaVuSans-73" x="178.173828"/>
      <use xlink:href="#DejaVuSans-73" x="230.273438"/>
     </g>
    </g>
    <g id="line2d_32">
     <path d="M 56.72 143.837812 
L 66.72 143.837812 
L 76.72 143.837812 
" style="fill: none; stroke: #7f7f7f; stroke-width: 1.5; stroke-linecap: square"/>
    </g>
    <g id="text_26">
     <!-- dist_loss -->
     <g transform="translate(84.72 147.337812)scale(0.1 -0.1)">
      <use xlink:href="#DejaVuSans-64"/>
      <use xlink:href="#DejaVuSans-69" x="63.476562"/>
      <use xlink:href="#DejaVuSans-73" x="91.259766"/>
      <use xlink:href="#DejaVuSans-74" x="143.359375"/>
      <use xlink:href="#DejaVuSans-5f" x="182.568359"/>
      <use xlink:href="#DejaVuSans-6c" x="232.568359"/>
      <use xlink:href="#DejaVuSans-6f" x="260.351562"/>
      <use xlink:href="#DejaVuSans-73" x="321.533203"/>
      <use xlink:href="#DejaVuSans-73" x="373.632812"/>
     </g>
    </g>
    <g id="line2d_33">
     <path d="M 56.72 158.794062 
L 66.72 158.794062 
L 76.72 158.794062 
" style="fill: none; stroke: #bcbd22; stroke-width: 1.5; stroke-linecap: square"/>
    </g>
    <g id="text_27">
     <!-- loss -->
     <g transform="translate(84.72 162.294062)scale(0.1 -0.1)">
      <use xlink:href="#DejaVuSans-6c"/>
      <use xlink:href="#DejaVuSans-6f" x="27.783203"/>
      <use xlink:href="#DejaVuSans-73" x="88.964844"/>
      <use xlink:href="#DejaVuSans-73" x="141.064453"/>
     </g>
    </g>
   </g>
  </g>
 </g>
 <defs>
  <clipPath id="pab642fef0b">
   <rect x="47.72" y="26.88" width="402.28" height="276.76"/>
  </clipPath>
 </defs>
</svg>
